APL387.ufo2
<glyph name="exclam" format="1">
  <advance width="600"/>
  <unicode hex="0021"/>
  <outline>
    <contour>
      <point x="344" y="250" type="qcurve" smooth="yes"/>
      <point x="344" y="727" type="line" smooth="yes"/>
      <point x="344" y="745"/>
      <point x="319" y="768"/>
      <point x="301" y="768" type="qcurve" smooth="yes"/>
      <point x="282" y="768"/>
      <point x="258" y="744"/>
      <point x="258" y="725" type="qcurve" smooth="yes"/>
      <point x="258" y="252" type="line" smooth="yes"/>
      <point x="258" y="234"/>
      <point x="283" y="210"/>
      <point x="301" y="210" type="qcurve" smooth="yes"/>
      <point x="318" y="210"/>
      <point x="344" y="233"/>
    </contour>
    <contour>
      <point x="274" y="-10"/>
      <point x="237" y="27"/>
      <point x="237" y="79"/>
      <point x="274" y="116"/>
      <point x="326" y="116"/>
      <point x="363" y="79"/>
      <point x="363" y="27"/>
      <point x="326" y="-10"/>
    </contour>
  </outline>
</glyph>
<glyph name="quotedbl" format="1">
  <advance width="600"/>
  <unicode hex="0022"/>
  <outline>
    <contour>
      <point x="249" y="438" type="line" smooth="yes"/>
      <point x="249" y="421"/>
      <point x="224" y="398"/>
      <point x="188" y="398"/>
      <point x="163" y="422"/>
      <point x="163" y="440" type="qcurve" smooth="yes"/>
      <point x="163" y="649" type="line" smooth="yes"/>
      <point x="163" y="667"/>
      <point x="189" y="692"/>
      <point x="206" y="692" type="qcurve" smooth="yes"/>
      <point x="222" y="692"/>
      <point x="249" y="669"/>
      <point x="249" y="652" type="qcurve" smooth="yes"/>
    </contour>
    <contour>
      <point x="420" y="438" type="line" smooth="yes"/>
      <point x="420" y="421"/>
      <point x="395" y="398"/>
      <point x="377" y="398" type="qcurve" smooth="yes"/>
      <point x="358" y="398"/>
      <point x="334" y="422"/>
      <point x="334" y="440" type="qcurve" smooth="yes"/>
      <point x="334" y="649" type="line" smooth="yes"/>
      <point x="334" y="667"/>
      <point x="360" y="692"/>
      <point x="377" y="692" type="qcurve" smooth="yes"/>
      <point x="393" y="692"/>
      <point x="420" y="669"/>
      <point x="420" y="652" type="qcurve" smooth="yes"/>
    </contour>
  </outline>
</glyph>
<glyph name="numbersign" format="1">
  <advance width="600"/>
  <unicode hex="0023"/>
  <outline>
    <contour>
      <point x="120" y="504" type="qcurve" smooth="yes"/>
      <point x="198" y="504" type="line"/>
      <point x="222" y="626" type="line" smooth="yes"/>
      <point x="226" y="644"/>
      <point x="252" y="665"/>
      <point x="269" y="665" type="qcurve" smooth="yes"/>
      <point x="289" y="665"/>
      <point x="310" y="641"/>
      <point x="306" y="620" type="qcurve" smooth="yes"/>
      <point x="283" y="504" type="line"/>
      <point x="387" y="504" type="line"/>
      <point x="411" y="626" type="line" smooth="yes"/>
      <point x="415" y="644"/>
      <point x="441" y="665"/>
      <point x="458" y="665" type="qcurve" smooth="yes"/>
      <point x="478" y="665"/>
      <point x="499" y="641"/>
      <point x="495" y="620" type="qcurve" smooth="yes"/>
      <point x="472" y="504" type="line"/>
      <point x="529" y="504" type="line" smooth="yes"/>
      <point x="546" y="504"/>
      <point x="569" y="479"/>
      <point x="569" y="461" type="qcurve" smooth="yes"/>
      <point x="569" y="442"/>
      <point x="544" y="418"/>
      <point x="527" y="418" type="qcurve" smooth="yes"/>
      <point x="455" y="418" type="line"/>
      <point x="421" y="251" type="line"/>
      <point x="479" y="251" type="line" smooth="yes"/>
      <point x="496" y="251"/>
      <point x="519" y="226"/>
      <point x="519" y="190"/>
      <point x="494" y="165"/>
      <point x="477" y="165" type="qcurve" smooth="yes"/>
      <point x="404" y="165" type="line"/>
      <point x="379" y="38" type="line" smooth="yes"/>
      <point x="375" y="20"/>
      <point x="349" y="-1"/>
      <point x="332" y="-1" type="qcurve" smooth="yes"/>
      <point x="314" y="-1"/>
      <point x="292" y="26"/>
      <point x="295" y="43" type="qcurve" smooth="yes"/>
      <point x="319" y="165" type="line"/>
      <point x="215" y="165" type="line"/>
      <point x="190" y="38" type="line" smooth="yes"/>
      <point x="186" y="20"/>
      <point x="160" y="-1"/>
      <point x="143" y="-1" type="qcurve" smooth="yes"/>
      <point x="125" y="-1"/>
      <point x="103" y="26"/>
      <point x="106" y="43" type="qcurve" smooth="yes"/>
      <point x="130" y="165" type="line"/>
      <point x="73" y="165" type="line" smooth="yes"/>
      <point x="55" y="165"/>
      <point x="30" y="191"/>
      <point x="30" y="208" type="qcurve" smooth="yes"/>
      <point x="30" y="224"/>
      <point x="53" y="251"/>
      <point x="70" y="251" type="qcurve" smooth="yes"/>
      <point x="147" y="251" type="line"/>
      <point x="181" y="418" type="line"/>
      <point x="123" y="418" type="line" smooth="yes"/>
      <point x="105" y="418"/>
      <point x="80" y="444"/>
      <point x="80" y="461" type="qcurve" smooth="yes"/>
      <point x="80" y="477"/>
      <point x="103" y="504"/>
    </contour>
    <contour>
      <point x="232" y="251" type="line"/>
      <point x="336" y="251" type="line"/>
      <point x="370" y="418" type="line"/>
      <point x="266" y="418" type="line"/>
    </contour>
  </outline>
</glyph>
<glyph name="dollar" format="1">
  <advance width="600"/>
  <unicode hex="0024"/>
  <outline>
    <contour>
      <point x="305" y="-100" type="qcurve" smooth="yes"/>
      <point x="287" y="-100"/>
      <point x="262" y="-76"/>
      <point x="262" y="-58" type="qcurve" smooth="yes"/>
      <point x="262" y="-5" type="line"/>
      <point x="182" y="6"/>
      <point x="106" y="66" type="qcurve" smooth="yes"/>
      <point x="71" y="95"/>
      <point x="106" y="129" type="qcurve" smooth="yes"/>
      <point x="132" y="152"/>
      <point x="167" y="126" type="qcurve" smooth="yes"/>
      <point x="217" y="88"/>
      <point x="262" y="79" type="qcurve"/>
      <point x="262" y="314" type="line"/>
      <point x="117" y="385"/>
      <point x="117" y="502" type="qcurve" smooth="yes"/>
      <point x="117" y="563"/>
      <point x="199" y="651"/>
      <point x="262" y="659" type="qcurve"/>
      <point x="262" y="725" type="line" smooth="yes"/>
      <point x="262" y="744"/>
      <point x="286" y="768"/>
      <point x="305" y="768" type="qcurve" smooth="yes"/>
      <point x="323" y="768"/>
      <point x="348" y="745"/>
      <point x="348" y="727" type="qcurve" smooth="yes"/>
      <point x="348" y="654" type="line"/>
      <point x="393" y="644"/>
      <point x="427" y="623" type="qcurve" smooth="yes"/>
      <point x="464" y="600"/>
      <point x="449" y="570" type="qcurve" smooth="yes"/>
      <point x="430" y="531"/>
      <point x="388" y="552" type="qcurve" smooth="yes"/>
      <point x="369" y="562"/>
      <point x="348" y="568" type="qcurve"/>
      <point x="348" y="365" type="line"/>
      <point x="428" y="325"/>
      <point x="500" y="239"/>
      <point x="500" y="183" type="qcurve" smooth="yes"/>
      <point x="500" y="108"/>
      <point x="419" y="10"/>
      <point x="348" y="-4" type="qcurve"/>
      <point x="348" y="-60" type="line" smooth="yes"/>
      <point x="348" y="-77"/>
      <point x="322" y="-100"/>
    </contour>
    <contour>
      <point x="207" y="504" type="qcurve" smooth="yes"/>
      <point x="207" y="450"/>
      <point x="262" y="411" type="qcurve"/>
      <point x="262" y="576" type="line"/>
      <point x="238" y="569"/>
      <point x="207" y="530"/>
    </contour>
    <contour>
      <point x="348" y="87" type="line"/>
      <point x="378" y="100"/>
      <point x="414" y="151"/>
      <point x="414" y="184" type="qcurve" smooth="yes"/>
      <point x="414" y="230"/>
      <point x="348" y="270" type="qcurve"/>
    </contour>
  </outline>
</glyph>
<glyph name="percent" format="1">
  <advance width="600"/>
  <unicode hex="0025"/>
  <outline>
    <contour>
      <point x="189" y="451" type="qcurve" smooth="yes"/>
      <point x="137" y="451"/>
      <point x="63" y="525"/>
      <point x="63" y="578" type="qcurve" smooth="yes"/>
      <point x="63" y="630"/>
      <point x="137" y="704"/>
      <point x="241" y="704"/>
      <point x="316" y="630"/>
      <point x="316" y="526"/>
      <point x="242" y="451"/>
    </contour>
    <contour>
      <point x="212" y="524"/>
      <point x="243" y="556"/>
      <point x="243" y="600"/>
      <point x="211" y="631"/>
      <point x="167" y="631"/>
      <point x="135" y="600"/>
      <point x="135" y="556"/>
      <point x="166" y="524"/>
    </contour>
    <contour>
      <point x="411" y="-29" type="qcurve" smooth="yes"/>
      <point x="359" y="-29"/>
      <point x="285" y="45"/>
      <point x="285" y="98" type="qcurve" smooth="yes"/>
      <point x="285" y="150"/>
      <point x="359" y="224"/>
      <point x="463" y="224"/>
      <point x="538" y="150"/>
      <point x="538" y="46"/>
      <point x="464" y="-29"/>
    </contour>
    <contour>
      <point x="434" y="44"/>
      <point x="465" y="76"/>
      <point x="465" y="120"/>
      <point x="433" y="151"/>
      <point x="389" y="151"/>
      <point x="357" y="120"/>
      <point x="357" y="76"/>
      <point x="388" y="44"/>
    </contour>
    <contour>
      <point x="174" y="-8" type="line" smooth="yes"/>
      <point x="165" y="-27"/>
      <point x="132" y="-40"/>
      <point x="98" y="-24"/>
      <point x="86" y="10"/>
      <point x="95" y="29" type="qcurve" smooth="yes"/>
      <point x="410" y="673" type="line" smooth="yes"/>
      <point x="418" y="690"/>
      <point x="453" y="704"/>
      <point x="487" y="688"/>
      <point x="498" y="654"/>
      <point x="489" y="635" type="qcurve" smooth="yes"/>
    </contour>
  </outline>
</glyph>
<glyph name="ampersand" format="1">
  <advance width="600"/>
  <unicode hex="0026"/>
  <outline>
    <contour>
      <point x="525" y="175" type="qcurve" smooth="yes"/>
      <point x="497" y="209"/>
      <point x="462" y="183" type="qcurve" smooth="yes"/>
      <point x="438" y="166" type="line"/>
      <point x="319" y="357" type="line"/>
      <point x="452" y="459"/>
      <point x="452" y="554" type="qcurve" smooth="yes"/>
      <point x="452" y="617"/>
      <point x="347" y="683"/>
      <point x="285" y="683" type="qcurve" smooth="yes"/>
      <point x="212" y="683"/>
      <point x="110" y="606"/>
      <point x="110" y="540" type="qcurve" smooth="yes"/>
      <point x="110" y="528"/>
      <point x="114" y="503"/>
      <point x="123" y="478"/>
      <point x="132" y="456"/>
      <point x="147" y="431"/>
      <point x="157" y="414"/>
      <point x="174" y="391"/>
      <point x="182" y="382"/>
      <point x="197" y="362"/>
      <point x="198" y="361" type="qcurve"/>
      <point x="56" y="240"/>
      <point x="56" y="150" type="qcurve" smooth="yes"/>
      <point x="56" y="71"/>
      <point x="177" y="-11"/>
      <point x="263" y="-11" type="qcurve" smooth="yes"/>
      <point x="342" y="-11"/>
      <point x="408" y="38" type="qcurve"/>
      <point x="427" y="12" type="line" smooth="yes"/>
      <point x="453" y="-23"/>
      <point x="489" y="2" type="qcurve" smooth="yes"/>
      <point x="524" y="27"/>
      <point x="496" y="63" type="qcurve" smooth="yes"/>
      <point x="478" y="86" type="line"/>
      <point x="516" y="114" type="line" smooth="yes"/>
      <point x="553" y="140"/>
    </contour>
    <contour>
      <point x="360" y="543" type="qcurve" smooth="yes"/>
      <point x="360" y="511"/>
      <point x="297" y="436"/>
      <point x="266" y="417" type="qcurve"/>
      <point x="205" y="482"/>
      <point x="205" y="533" type="qcurve" smooth="yes"/>
      <point x="205" y="567"/>
      <point x="253" y="605"/>
      <point x="281" y="605" type="qcurve" smooth="yes"/>
      <point x="312" y="605"/>
      <point x="360" y="571"/>
    </contour>
    <contour>
      <point x="250" y="288" type="qcurve"/>
      <point x="359" y="111" type="line"/>
      <point x="312" y="71"/>
      <point x="249" y="71" type="qcurve" smooth="yes"/>
      <point x="207" y="71"/>
      <point x="149" y="111"/>
      <point x="151" y="146" type="qcurve" smooth="yes"/>
      <point x="149" y="181"/>
      <point x="209" y="261"/>
    </contour>
  </outline>
</glyph>
<glyph name="quotesingle" format="1">
  <advance width="600"/>
  <unicode hex="0027"/>
  <outline>
    <contour>
      <point x="341" y="438" type="line" smooth="yes"/>
      <point x="341" y="421"/>
      <point x="316" y="398"/>
      <point x="280" y="398"/>
      <point x="255" y="422"/>
      <point x="255" y="440" type="qcurve" smooth="yes"/>
      <point x="255" y="649" type="line" smooth="yes"/>
      <point x="255" y="667"/>
      <point x="281" y="692"/>
      <point x="298" y="692" type="qcurve" smooth="yes"/>
      <point x="314" y="692"/>
      <point x="341" y="669"/>
      <point x="341" y="652" type="qcurve" smooth="yes"/>
    </contour>
  </outline>
</glyph>
<glyph name="parenleft" format="1">
  <advance width="600"/>
  <unicode hex="0028"/>
  <outline>
    <contour>
      <point x="190" y="318" type="line" smooth="yes"/>
      <point x="190" y="442"/>
      <point x="266" y="652"/>
      <point x="330" y="712" type="qcurve" smooth="yes"/>
      <point x="367" y="747"/>
      <point x="399" y="722" type="qcurve" smooth="yes"/>
      <point x="413" y="710"/>
      <point x="410" y="676"/>
      <point x="395" y="660" type="qcurve" smooth="yes"/>
      <point x="346" y="605"/>
      <point x="287" y="423"/>
      <point x="287" y="318" type="qcurve" smooth="yes"/>
      <point x="287" y="212"/>
      <point x="345" y="30"/>
      <point x="395" y="-25" type="qcurve" smooth="yes"/>
      <point x="410" y="-41"/>
      <point x="413" y="-75"/>
      <point x="399" y="-87" type="qcurve" smooth="yes"/>
      <point x="367" y="-112"/>
      <point x="330" y="-77" type="qcurve" smooth="yes"/>
      <point x="266" y="-17"/>
      <point x="190" y="193"/>
      <point x="190" y="317" type="qcurve" smooth="yes"/>
    </contour>
  </outline>
</glyph>
<glyph name="parenright" format="1">
  <advance width="600"/>
  <unicode hex="0029"/>
  <outline>
    <contour>
      <point x="410" y="317" type="line" smooth="yes"/>
      <point x="410" y="193"/>
      <point x="334" y="-17"/>
      <point x="270" y="-77" type="qcurve" smooth="yes"/>
      <point x="233" y="-112"/>
      <point x="201" y="-87" type="qcurve" smooth="yes"/>
      <point x="187" y="-75"/>
      <point x="190" y="-41"/>
      <point x="205" y="-25" type="qcurve" smooth="yes"/>
      <point x="255" y="30"/>
      <point x="313" y="212"/>
      <point x="313" y="318" type="qcurve" smooth="yes"/>
      <point x="313" y="423"/>
      <point x="254" y="605"/>
      <point x="205" y="660" type="qcurve" smooth="yes"/>
      <point x="190" y="676"/>
      <point x="187" y="710"/>
      <point x="201" y="722" type="qcurve" smooth="yes"/>
      <point x="233" y="747"/>
      <point x="270" y="712" type="qcurve" smooth="yes"/>
      <point x="334" y="652"/>
      <point x="410" y="442"/>
      <point x="410" y="318" type="qcurve" smooth="yes"/>
    </contour>
  </outline>
</glyph>
<glyph name="asterisk" format="1">
  <advance width="600"/>
  <unicode hex="002A"/>
  <outline>
    <contour>
      <point x="346" y="510" type="qcurve" smooth="yes"/>
      <point x="346" y="400" type="line"/>
      <point x="453" y="439" type="line" smooth="yes"/>
      <point x="470" y="445"/>
      <point x="503" y="424"/>
      <point x="508" y="407" type="qcurve" smooth="yes"/>
      <point x="514" y="389"/>
      <point x="496" y="355"/>
      <point x="479" y="349" type="qcurve" smooth="yes"/>
      <point x="375" y="310" type="line"/>
      <point x="445" y="220" type="line" smooth="yes"/>
      <point x="455" y="204"/>
      <point x="446" y="167"/>
      <point x="431" y="157" type="qcurve" smooth="yes"/>
      <point x="415" y="146"/>
      <point x="377" y="152"/>
      <point x="367" y="167" type="qcurve" smooth="yes"/>
      <point x="299" y="255" type="line"/>
      <point x="231" y="167" type="line" smooth="yes"/>
      <point x="221" y="152"/>
      <point x="183" y="146"/>
      <point x="167" y="157" type="qcurve" smooth="yes"/>
      <point x="152" y="167"/>
      <point x="143" y="204"/>
      <point x="153" y="220" type="qcurve" smooth="yes"/>
      <point x="223" y="310" type="line"/>
      <point x="119" y="349" type="line" smooth="yes"/>
      <point x="102" y="355"/>
      <point x="84" y="389"/>
      <point x="90" y="407" type="qcurve" smooth="yes"/>
      <point x="95" y="424"/>
      <point x="128" y="445"/>
      <point x="145" y="439" type="qcurve" smooth="yes"/>
      <point x="252" y="400" type="line"/>
      <point x="252" y="507" type="line" smooth="yes"/>
      <point x="252" y="526"/>
      <point x="280" y="554"/>
      <point x="299" y="554" type="qcurve" smooth="yes"/>
      <point x="317" y="554"/>
      <point x="346" y="528"/>
    </contour>
  </outline>
</glyph>
<glyph name="plus" format="1">
  <advance width="600"/>
  <unicode hex="002B"/>
  <outline>
    <contour>
      <point x="142" y="374" type="qcurve" smooth="yes"/>
      <point x="257" y="374" type="line"/>
      <point x="257" y="486" type="line" smooth="yes"/>
      <point x="257" y="504"/>
      <point x="283" y="529"/>
      <point x="300" y="529" type="qcurve" smooth="yes"/>
      <point x="316" y="529"/>
      <point x="343" y="506"/>
      <point x="343" y="489" type="qcurve" smooth="yes"/>
      <point x="343" y="374" type="line"/>
      <point x="458" y="374" type="line" smooth="yes"/>
      <point x="475" y="374"/>
      <point x="498" y="349"/>
      <point x="498" y="331" type="qcurve" smooth="yes"/>
      <point x="498" y="312"/>
      <point x="474" y="288"/>
      <point x="456" y="288" type="qcurve" smooth="yes"/>
      <point x="343" y="288" type="line"/>
      <point x="343" y="173" type="line" smooth="yes"/>
      <point x="343" y="156"/>
      <point x="318" y="133"/>
      <point x="282" y="133"/>
      <point x="257" y="158"/>
      <point x="257" y="175" type="qcurve" smooth="yes"/>
      <point x="257" y="288" type="line"/>
      <point x="145" y="288" type="line" smooth="yes"/>
      <point x="127" y="288"/>
      <point x="102" y="314"/>
      <point x="102" y="331" type="qcurve" smooth="yes"/>
      <point x="102" y="347"/>
      <point x="125" y="374"/>
    </contour>
  </outline>
</glyph>
<glyph name="comma" format="1">
  <advance width="600"/>
  <unicode hex="002C"/>
  <outline>
    <contour>
      <point x="287" y="-7" type="qcurve" smooth="yes"/>
      <point x="267" y="-7"/>
      <point x="230" y="26"/>
      <point x="230" y="49" type="qcurve" smooth="yes"/>
      <point x="230" y="75"/>
      <point x="266" y="115"/>
      <point x="297" y="115" type="qcurve" smooth="yes"/>
      <point x="333" y="115"/>
      <point x="373" y="69"/>
      <point x="373" y="31" type="qcurve" smooth="yes"/>
      <point x="373" y="-47"/>
      <point x="302" y="-117"/>
      <point x="251" y="-117" type="qcurve" smooth="yes"/>
      <point x="239" y="-117"/>
      <point x="223" y="-103"/>
      <point x="223" y="-92" type="qcurve" smooth="yes"/>
      <point x="223" y="-63"/>
      <point x="249" y="-63" type="qcurve" smooth="yes"/>
      <point x="318" y="-63"/>
      <point x="318" y="3" type="qcurve"/>
      <point x="306" y="-7"/>
    </contour>
  </outline>
</glyph>
<glyph name="hyphen" format="1">
  <advance width="600"/>
  <unicode hex="002D"/>
  <outline>
    <contour>
      <point x="473" y="373" type="line" smooth="yes"/>
      <point x="490" y="373"/>
      <point x="513" y="348"/>
      <point x="513" y="312"/>
      <point x="488" y="287"/>
      <point x="471" y="287" type="qcurve" smooth="yes"/>
      <point x="130" y="287" type="line" smooth="yes"/>
      <point x="112" y="287"/>
      <point x="87" y="313"/>
      <point x="87" y="330" type="qcurve" smooth="yes"/>
      <point x="87" y="346"/>
      <point x="110" y="373"/>
      <point x="127" y="373" type="qcurve" smooth="yes"/>
    </contour>
  </outline>
</glyph>
<glyph name="period" format="1">
  <advance width="600"/>
  <unicode hex="002E"/>
  <outline>
    <contour>
      <point x="269" y="-16"/>
      <point x="226" y="28"/>
      <point x="226" y="58" type="qcurve" smooth="yes"/>
      <point x="226" y="89"/>
      <point x="269" y="133"/>
      <point x="331" y="133"/>
      <point x="374" y="89"/>
      <point x="374" y="58" type="qcurve" smooth="yes"/>
      <point x="374" y="28"/>
      <point x="331" y="-16"/>
    </contour>
  </outline>
</glyph>
<glyph name="zero" format="1">
  <advance width="600"/>
  <unicode hex="0030"/>
  <outline>
    <contour>
      <point x="300" y="665" type="qcurve" smooth="yes"/>
      <point x="195" y="664"/>
      <point x="69" y="470"/>
      <point x="69" y="334" type="qcurve" smooth="yes"/>
      <point x="69" y="183"/>
      <point x="197" y="-9"/>
      <point x="300" y="-10" type="qcurve" smooth="yes"/>
      <point x="402" y="-11"/>
      <point x="531" y="183"/>
      <point x="531" y="334" type="qcurve" smooth="yes"/>
      <point x="531" y="422"/>
      <point x="478" y="571"/>
      <point x="370" y="665"/>
    </contour>
    <contour>
      <point x="159" y="334" type="qcurve" smooth="yes"/>
      <point x="159" y="450"/>
      <point x="236" y="578"/>
      <point x="364" y="578"/>
      <point x="441" y="450"/>
      <point x="441" y="334" type="qcurve" smooth="yes"/>
      <point x="441" y="214"/>
      <point x="363" y="77"/>
      <point x="237" y="77"/>
      <point x="159" y="214"/>
    </contour>
    <contour>
      <point x="278" y="274"/>
      <point x="246" y="306"/>
      <point x="246" y="350"/>
      <point x="278" y="382"/>
      <point x="322" y="382"/>
      <point x="354" y="350"/>
      <point x="354" y="306"/>
      <point x="322" y="274"/>
    </contour>
  </outline>
</glyph>
<glyph name="one" format="1">
  <advance width="600"/>
  <unicode hex="0031"/>
  <outline>
    <contour>
      <point x="193" y="1" type="line" smooth="yes"/>
      <point x="176" y="1"/>
      <point x="150" y="25"/>
      <point x="150" y="40" type="qcurve" smooth="yes"/>
      <point x="150" y="54"/>
      <point x="173" y="79"/>
      <point x="190" y="79" type="qcurve" smooth="yes"/>
      <point x="266" y="79" type="line"/>
      <point x="266" y="496" type="line"/>
      <point x="235" y="443" type="line" smooth="yes"/>
      <point x="222" y="422"/>
      <point x="183" y="415"/>
      <point x="170" y="426" type="qcurve" smooth="yes"/>
      <point x="155" y="436"/>
      <point x="151" y="470"/>
      <point x="168" y="496" type="qcurve" smooth="yes"/>
      <point x="280" y="644" type="line" smooth="yes"/>
      <point x="299" y="668"/>
      <point x="353" y="646"/>
      <point x="353" y="615" type="qcurve" smooth="yes"/>
      <point x="353" y="79" type="line"/>
      <point x="424" y="79" type="line" smooth="yes"/>
      <point x="441" y="79"/>
      <point x="464" y="55"/>
      <point x="464" y="40" type="qcurve" smooth="yes"/>
      <point x="464" y="24"/>
      <point x="439" y="1"/>
      <point x="422" y="1" type="qcurve" smooth="yes"/>
    </contour>
  </outline>
</glyph>
<glyph name="two" format="1">
  <advance width="600"/>
  <unicode hex="0032"/>
  <outline>
    <contour>
      <point x="178" y="0" type="line" smooth="yes"/>
      <point x="157" y="0"/>
      <point x="123" y="28"/>
      <point x="123" y="53" type="qcurve" smooth="yes"/>
      <point x="123" y="85"/>
      <point x="173" y="142" type="qcurve" smooth="yes"/>
      <point x="310" y="299" type="line" smooth="yes"/>
      <point x="409" y="411"/>
      <point x="409" y="465" type="qcurve" smooth="yes"/>
      <point x="409" y="521"/>
      <point x="346" y="574"/>
      <point x="297" y="574" type="qcurve" smooth="yes"/>
      <point x="246" y="574"/>
      <point x="194" y="520"/>
      <point x="194" y="474" type="qcurve" smooth="yes"/>
      <point x="194" y="439"/>
      <point x="154" y="439" type="qcurve" smooth="yes"/>
      <point x="109" y="439"/>
      <point x="109" y="485" type="qcurve" smooth="yes"/>
      <point x="109" y="560"/>
      <point x="218" y="660"/>
      <point x="302" y="660" type="qcurve" smooth="yes"/>
      <point x="394" y="660"/>
      <point x="495" y="561"/>
      <point x="495" y="474" type="qcurve" smooth="yes"/>
      <point x="495" y="382"/>
      <point x="381" y="253" type="qcurve" smooth="yes"/>
      <point x="226" y="80" type="line"/>
      <point x="467" y="80" type="line" smooth="yes"/>
      <point x="484" y="80"/>
      <point x="507" y="56"/>
      <point x="507" y="24"/>
      <point x="482" y="0"/>
      <point x="465" y="0" type="qcurve" smooth="yes"/>
    </contour>
  </outline>
</glyph>
<glyph name="three" format="1">
  <advance width="600"/>
  <unicode hex="0033"/>
  <outline>
    <contour>
      <point x="274" y="384" type="qcurve" smooth="yes"/>
      <point x="329" y="391"/>
      <point x="387" y="458"/>
      <point x="387" y="501" type="qcurve" smooth="yes"/>
      <point x="387" y="574"/>
      <point x="299" y="574" type="qcurve" smooth="yes"/>
      <point x="228" y="574"/>
      <point x="188" y="538" type="qcurve" smooth="yes"/>
      <point x="150" y="504"/>
      <point x="126" y="528" type="qcurve" smooth="yes"/>
      <point x="92" y="562"/>
      <point x="124" y="594" type="qcurve" smooth="yes"/>
      <point x="187" y="659"/>
      <point x="292" y="659" type="qcurve" smooth="yes"/>
      <point x="378" y="659"/>
      <point x="477" y="573"/>
      <point x="477" y="501" type="qcurve" smooth="yes"/>
      <point x="477" y="385"/>
      <point x="370" y="347" type="qcurve"/>
      <point x="497" y="312"/>
      <point x="497" y="167" type="qcurve" smooth="yes"/>
      <point x="497" y="84"/>
      <point x="376" y="-12"/>
      <point x="293" y="-12" type="qcurve" smooth="yes"/>
      <point x="243" y="-12"/>
      <point x="143" y="26"/>
      <point x="109" y="60" type="qcurve" smooth="yes"/>
      <point x="78" y="93"/>
      <point x="113" y="128" type="qcurve" smooth="yes"/>
      <point x="139" y="154"/>
      <point x="177" y="120" type="qcurve" smooth="yes"/>
      <point x="225" y="79"/>
      <point x="300" y="79" type="qcurve" smooth="yes"/>
      <point x="336" y="79"/>
      <point x="407" y="127"/>
      <point x="407" y="177" type="qcurve" smooth="yes"/>
      <point x="407" y="235"/>
      <point x="337" y="290"/>
      <point x="274" y="298" type="qcurve" smooth="yes"/>
      <point x="232" y="304"/>
      <point x="232" y="341" type="qcurve" smooth="yes"/>
      <point x="232" y="379"/>
    </contour>
  </outline>
</glyph>
<glyph name="four" format="1">
  <advance width="600"/>
  <unicode hex="0034"/>
  <outline>
    <contour>
      <point x="412" y="461" type="line" smooth="yes"/>
      <point x="412" y="478"/>
      <point x="385" y="496"/>
      <point x="368" y="496" type="qcurve" smooth="yes"/>
      <point x="350" y="496"/>
      <point x="324" y="476"/>
      <point x="324" y="457" type="qcurve" smooth="yes"/>
      <point x="324" y="260" type="line"/>
      <point x="177" y="260" type="line"/>
      <point x="208" y="396"/>
      <point x="217" y="600" type="qcurve" smooth="yes"/>
      <point x="218" y="619"/>
      <point x="199" y="649"/>
      <point x="183" y="652" type="qcurve" smooth="yes"/>
      <point x="167" y="654"/>
      <point x="138" y="635"/>
      <point x="134" y="617" type="qcurve"/>
      <point x="135" y="496"/>
      <point x="114" y="339"/>
      <point x="86" y="231" type="qcurve" smooth="yes"/>
      <point x="86" y="230"/>
      <point x="86" y="227" type="qcurve" smooth="yes"/>
      <point x="85" y="224" type="line"/>
      <point x="85" y="219" type="line" smooth="yes"/>
      <point x="85" y="205"/>
      <point x="115" y="178"/>
      <point x="136" y="178" type="qcurve" smooth="yes"/>
      <point x="324" y="178" type="line"/>
      <point x="324" y="27" type="line" smooth="yes"/>
      <point x="324" y="-11"/>
      <point x="412" y="-11"/>
      <point x="412" y="24" type="qcurve" smooth="yes"/>
      <point x="412" y="178" type="line"/>
      <point x="480" y="178" type="line" smooth="yes"/>
      <point x="500" y="178"/>
      <point x="520" y="202"/>
      <point x="520" y="219" type="qcurve" smooth="yes"/>
      <point x="520" y="235"/>
      <point x="502" y="260"/>
      <point x="483" y="260" type="qcurve" smooth="yes"/>
      <point x="412" y="260" type="line"/>
    </contour>
  </outline>
</glyph>
<glyph name="six" format="1">
  <advance width="600"/>
  <unicode hex="0036"/>
  <outline>
    <contour>
      <point x="172" y="274" type="qcurve"/>
      <point x="235" y="352"/>
      <point x="312" y="352" type="qcurve" smooth="yes"/>
      <point x="362" y="352"/>
      <point x="434" y="278"/>
      <point x="434" y="213" type="qcurve" smooth="yes"/>
      <point x="434" y="145"/>
      <point x="355" y="72"/>
      <point x="304" y="72" type="qcurve" smooth="yes"/>
      <point x="154" y="72"/>
    </contour>
    <contour>
      <point x="351" y="653" type="qcurve" smooth="yes"/>
      <point x="226" y="601"/>
      <point x="85" y="383"/>
      <point x="85" y="250" type="qcurve" smooth="yes"/>
      <point x="85" y="202"/>
      <point x="108" y="115"/>
      <point x="156" y="36"/>
      <point x="243" y="-11"/>
      <point x="301" y="-11" type="qcurve" smooth="yes"/>
      <point x="394" y="-11"/>
      <point x="517" y="120"/>
      <point x="517" y="220" type="qcurve" smooth="yes"/>
      <point x="517" y="319"/>
      <point x="401" y="433"/>
      <point x="325" y="433" type="qcurve" smooth="yes"/>
      <point x="283" y="433"/>
      <point x="221" y="411"/>
      <point x="189" y="382" type="qcurve"/>
      <point x="225" y="510"/>
      <point x="384" y="580" type="qcurve" smooth="yes"/>
      <point x="406" y="589"/>
      <point x="419" y="625"/>
      <point x="409" y="637" type="qcurve" smooth="yes"/>
      <point x="389" y="669"/>
    </contour>
  </outline>
</glyph>
<glyph name="seven" format="1">
  <advance width="600"/>
  <unicode hex="0037"/>
  <outline>
    <contour>
      <point x="142" y="568" type="line" smooth="yes"/>
      <point x="101" y="568"/>
      <point x="101" y="650"/>
      <point x="142" y="650" type="qcurve" smooth="yes"/>
      <point x="428" y="650" type="line" smooth="yes"/>
      <point x="456" y="650"/>
      <point x="466" y="646" type="qcurve" smooth="yes"/>
      <point x="482" y="639"/>
      <point x="495" y="607"/>
      <point x="489" y="589" type="qcurve" smooth="yes"/>
      <point x="292" y="28" type="line" smooth="yes"/>
      <point x="285" y="9"/>
      <point x="254" y="-6"/>
      <point x="237" y="1" type="qcurve" smooth="yes"/>
      <point x="221" y="7"/>
      <point x="208" y="38"/>
      <point x="215" y="58" type="qcurve" smooth="yes"/>
      <point x="393" y="568" type="line"/>
    </contour>
  </outline>
</glyph>
<glyph name="eight" format="1">
  <advance width="600"/>
  <unicode hex="0038"/>
  <outline>
    <contour>
      <point x="300" y="388" type="qcurve"/>
      <point x="361" y="404"/>
      <point x="413" y="446"/>
      <point x="413" y="485" type="qcurve" smooth="yes"/>
      <point x="413" y="530"/>
      <point x="354" y="577"/>
      <point x="246" y="577"/>
      <point x="187" y="530"/>
      <point x="187" y="485" type="qcurve" smooth="yes"/>
      <point x="187" y="446"/>
      <point x="239" y="404"/>
    </contour>
    <contour>
      <point x="77" y="187" type="qcurve" smooth="yes"/>
      <point x="77" y="243"/>
      <point x="141" y="333"/>
      <point x="204" y="350" type="qcurve"/>
      <point x="97" y="388"/>
      <point x="97" y="501" type="qcurve" smooth="yes"/>
      <point x="97" y="574"/>
      <point x="202" y="659"/>
      <point x="398" y="659"/>
      <point x="503" y="574"/>
      <point x="503" y="501" type="qcurve" smooth="yes"/>
      <point x="503" y="388"/>
      <point x="396" y="350" type="qcurve"/>
      <point x="459" y="333"/>
      <point x="523" y="243"/>
      <point x="523" y="187" type="qcurve" smooth="yes"/>
      <point x="523" y="89"/>
      <point x="398" y="-10"/>
      <point x="202" y="-10"/>
      <point x="77" y="89"/>
    </contour>
    <contour>
      <point x="167" y="182" type="qcurve" smooth="yes"/>
      <point x="167" y="130"/>
      <point x="247" y="79"/>
      <point x="353" y="79"/>
      <point x="433" y="130"/>
      <point x="433" y="182" type="qcurve" smooth="yes"/>
      <point x="433" y="240"/>
      <point x="364" y="301"/>
      <point x="300" y="318" type="qcurve"/>
      <point x="236" y="301"/>
      <point x="167" y="240"/>
    </contour>
  </outline>
</glyph>
<glyph name="nine" format="1">
  <advance width="600"/>
  <unicode hex="0039"/>
  <outline>
    <contour>
      <point x="439" y="428" type="qcurve" smooth="yes"/>
      <point x="439" y="386"/>
      <point x="432" y="359" type="qcurve"/>
      <point x="361" y="297"/>
      <point x="299" y="297" type="qcurve" smooth="yes"/>
      <point x="235" y="297"/>
      <point x="157" y="369"/>
      <point x="157" y="436" type="qcurve" smooth="yes"/>
      <point x="157" y="506"/>
      <point x="242" y="577"/>
      <point x="307" y="577" type="qcurve" smooth="yes"/>
      <point x="369" y="577"/>
      <point x="439" y="504"/>
    </contour>
    <contour>
      <point x="136" y="24" type="qcurve" smooth="yes"/>
      <point x="146" y="-18"/>
      <point x="191" y="-9" type="qcurve" smooth="yes"/>
      <point x="277" y="6"/>
      <point x="409" y="87"/>
      <point x="487" y="201"/>
      <point x="526" y="334"/>
      <point x="526" y="409" type="qcurve" smooth="yes"/>
      <point x="526" y="524"/>
      <point x="414" y="660"/>
      <point x="310" y="660" type="qcurve" smooth="yes"/>
      <point x="204" y="660"/>
      <point x="74" y="531"/>
      <point x="74" y="429" type="qcurve" smooth="yes"/>
      <point x="74" y="328"/>
      <point x="196" y="216"/>
      <point x="286" y="216" type="qcurve" smooth="yes"/>
      <point x="364" y="216"/>
      <point x="426" y="269" type="qcurve"/>
      <point x="366" y="114"/>
      <point x="176" y="75" type="qcurve" smooth="yes"/>
      <point x="126" y="64"/>
    </contour>
  </outline>
</glyph>
<glyph name="colon" format="1">
  <advance width="600"/>
  <unicode hex="003A"/>
  <outline>
    <contour>
      <point x="269" y="323"/>
      <point x="226" y="367"/>
      <point x="226" y="397" type="qcurve" smooth="yes"/>
      <point x="226" y="428"/>
      <point x="269" y="472"/>
      <point x="331" y="472"/>
      <point x="374" y="428"/>
      <point x="374" y="397" type="qcurve" smooth="yes"/>
      <point x="374" y="367"/>
      <point x="331" y="323"/>
    </contour>
    <contour>
      <point x="269" y="-3"/>
      <point x="226" y="41"/>
      <point x="226" y="71" type="qcurve" smooth="yes"/>
      <point x="226" y="102"/>
      <point x="269" y="146"/>
      <point x="331" y="146"/>
      <point x="374" y="102"/>
      <point x="374" y="71" type="qcurve" smooth="yes"/>
      <point x="374" y="41"/>
      <point x="331" y="-3"/>
    </contour>
  </outline>
</glyph>
<glyph name="semicolon" format="1">
  <advance width="600"/>
  <unicode hex="003B"/>
  <outline>
    <contour>
      <point x="287" y="0" type="qcurve" smooth="yes"/>
      <point x="267" y="0"/>
      <point x="230" y="33"/>
      <point x="230" y="56" type="qcurve" smooth="yes"/>
      <point x="230" y="82"/>
      <point x="266" y="122"/>
      <point x="297" y="122" type="qcurve" smooth="yes"/>
      <point x="333" y="122"/>
      <point x="373" y="76"/>
      <point x="373" y="38" type="qcurve" smooth="yes"/>
      <point x="373" y="-40"/>
      <point x="302" y="-110"/>
      <point x="251" y="-110" type="qcurve" smooth="yes"/>
      <point x="239" y="-110"/>
      <point x="223" y="-96"/>
      <point x="223" y="-85" type="qcurve" smooth="yes"/>
      <point x="223" y="-56"/>
      <point x="249" y="-56" type="qcurve" smooth="yes"/>
      <point x="318" y="-56"/>
      <point x="318" y="10" type="qcurve"/>
      <point x="306" y="0"/>
    </contour>
    <contour>
      <point x="269" y="323"/>
      <point x="226" y="367"/>
      <point x="226" y="397" type="qcurve" smooth="yes"/>
      <point x="226" y="428"/>
      <point x="269" y="472"/>
      <point x="331" y="472"/>
      <point x="374" y="428"/>
      <point x="374" y="397" type="qcurve" smooth="yes"/>
      <point x="374" y="367"/>
      <point x="331" y="323"/>
    </contour>
  </outline>
</glyph>
<glyph name="equal" format="1">
  <advance width="600"/>
  <unicode hex="003D"/>
  <outline>
    <contour>
      <point x="476" y="462" type="qcurve" smooth="yes"/>
      <point x="120" y="462" type="line" smooth="yes"/>
      <point x="103" y="462"/>
      <point x="80" y="435"/>
      <point x="80" y="419" type="qcurve" smooth="yes"/>
      <point x="80" y="402"/>
      <point x="105" y="376"/>
      <point x="123" y="376" type="qcurve" smooth="yes"/>
      <point x="474" y="376" type="line" smooth="yes"/>
      <point x="492" y="376"/>
      <point x="516" y="400"/>
      <point x="516" y="419" type="qcurve" smooth="yes"/>
      <point x="516" y="437"/>
      <point x="493" y="462"/>
    </contour>
    <contour>
      <point x="476" y="290" type="qcurve" smooth="yes"/>
      <point x="120" y="290" type="line" smooth="yes"/>
      <point x="103" y="290"/>
      <point x="80" y="263"/>
      <point x="80" y="247" type="qcurve" smooth="yes"/>
      <point x="80" y="230"/>
      <point x="105" y="204"/>
      <point x="123" y="204" type="qcurve" smooth="yes"/>
      <point x="474" y="204" type="line" smooth="yes"/>
      <point x="492" y="204"/>
      <point x="516" y="228"/>
      <point x="516" y="247" type="qcurve" smooth="yes"/>
      <point x="516" y="265"/>
      <point x="493" y="290"/>
    </contour>
  </outline>
</glyph>
<glyph name="greater" format="1">
  <advance width="600"/>
  <unicode hex="003E"/>
  <outline>
    <contour>
      <point x="140" y="439" type="line" smooth="yes"/>
      <point x="123" y="448"/>
      <point x="115" y="491"/>
      <point x="125" y="507" type="qcurve" smooth="yes"/>
      <point x="136" y="524"/>
      <point x="178" y="536"/>
      <point x="195" y="526" type="qcurve" smooth="yes"/>
      <point x="454" y="374" type="line" smooth="yes"/>
      <point x="481" y="358"/>
      <point x="481" y="293"/>
      <point x="452" y="276" type="qcurve" smooth="yes"/>
      <point x="191" y="122" type="line" smooth="yes"/>
      <point x="174" y="112"/>
      <point x="136" y="125"/>
      <point x="125" y="143" type="qcurve" smooth="yes"/>
      <point x="114" y="163"/>
      <point x="124" y="203"/>
      <point x="142" y="213" type="qcurve" smooth="yes"/>
      <point x="355" y="325" type="line"/>
    </contour>
  </outline>
</glyph>
<glyph name="question" format="1">
  <advance width="600"/>
  <unicode hex="003F"/>
  <outline>
    <contour>
      <point x="158" y="648" type="qcurve" smooth="yes"/>
      <point x="217" y="707"/>
      <point x="299" y="707" type="qcurve" smooth="yes"/>
      <point x="370" y="707"/>
      <point x="453" y="625"/>
      <point x="453" y="551" type="qcurve" smooth="yes"/>
      <point x="453" y="509"/>
      <point x="409" y="422"/>
      <point x="357" y="362"/>
      <point x="312" y="290"/>
      <point x="311" y="261" type="qcurve" smooth="yes"/>
      <point x="310" y="210"/>
      <point x="266" y="210" type="qcurve" smooth="yes"/>
      <point x="222" y="210"/>
      <point x="224" y="262" type="qcurve" smooth="yes"/>
      <point x="225" y="301"/>
      <point x="270" y="379"/>
      <point x="322" y="434"/>
      <point x="365" y="512"/>
      <point x="365" y="550" type="qcurve" smooth="yes"/>
      <point x="365" y="580"/>
      <point x="328" y="622"/>
      <point x="302" y="622" type="qcurve" smooth="yes"/>
      <point x="254" y="622"/>
      <point x="223" y="590" type="qcurve" smooth="yes"/>
      <point x="188" y="554"/>
      <point x="156" y="583" type="qcurve" smooth="yes"/>
      <point x="122" y="612"/>
    </contour>
    <contour>
      <point x="199" y="27"/>
      <point x="199" y="79"/>
      <point x="236" y="116"/>
      <point x="288" y="116"/>
      <point x="325" y="79"/>
      <point x="325" y="27"/>
      <point x="288" y="-10"/>
      <point x="236" y="-10"/>
    </contour>
  </outline>
</glyph>
<glyph name="at" format="1">
  <advance width="600"/>
  <unicode hex="0040"/>
  <outline>
    <contour>
      <point x="422" y="407"/>
      <point x="422" y="368" type="qcurve" smooth="yes"/>
      <point x="422" y="315" type="line" smooth="yes"/>
      <point x="422" y="245"/>
      <point x="452" y="245" type="qcurve" smooth="yes"/>
      <point x="478" y="245"/>
      <point x="503" y="323"/>
      <point x="503" y="364" type="qcurve" smooth="yes"/>
      <point x="503" y="578"/>
      <point x="313" y="578" type="qcurve" smooth="yes"/>
      <point x="202" y="578"/>
      <point x="101" y="453"/>
      <point x="101" y="331" type="qcurve" smooth="yes"/>
      <point x="101" y="72"/>
      <point x="323" y="72" type="qcurve" smooth="yes"/>
      <point x="411" y="72"/>
      <point x="467" y="111" type="qcurve" smooth="yes"/>
      <point x="506" y="138"/>
      <point x="533" y="108" type="qcurve" smooth="yes"/>
      <point x="560" y="76"/>
      <point x="519" y="46" type="qcurve" smooth="yes"/>
      <point x="442" y="-10"/>
      <point x="323" y="-10" type="qcurve" smooth="yes"/>
      <point x="173" y="-10"/>
      <point x="20" y="175"/>
      <point x="20" y="331" type="qcurve" smooth="yes"/>
      <point x="20" y="470"/>
      <point x="168" y="659"/>
      <point x="313" y="659" type="qcurve" smooth="yes"/>
      <point x="385" y="659"/>
      <point x="492" y="612"/>
      <point x="552" y="528"/>
      <point x="581" y="426"/>
      <point x="581" y="365" type="qcurve" smooth="yes"/>
      <point x="581" y="327"/>
      <point x="559" y="246"/>
      <point x="498" y="177"/>
      <point x="455" y="177" type="qcurve" smooth="yes"/>
      <point x="422" y="177"/>
      <point x="369" y="206"/>
      <point x="367" y="240" type="qcurve"/>
      <point x="338" y="196"/>
      <point x="287" y="196" type="qcurve" smooth="yes"/>
      <point x="245" y="196"/>
      <point x="170" y="265"/>
      <point x="170" y="334" type="qcurve" smooth="yes"/>
      <point x="170" y="363"/>
      <point x="187" y="416"/>
      <point x="223" y="465"/>
      <point x="292" y="494"/>
      <point x="339" y="494" type="qcurve" smooth="yes"/>
      <point x="384" y="494"/>
      <point x="385" y="460" type="qcurve" smooth="yes"/>
      <point x="387" y="429"/>
      <point x="343" y="429" type="qcurve" smooth="yes"/>
      <point x="284" y="428"/>
      <point x="241" y="371"/>
      <point x="241" y="334" type="qcurve" smooth="yes"/>
      <point x="241" y="301"/>
      <point x="273" y="266"/>
      <point x="294" y="266" type="qcurve" smooth="yes"/>
      <point x="348" y="266"/>
      <point x="354" y="326" type="qcurve"/>
      <point x="354" y="368" type="line" smooth="yes"/>
      <point x="354" y="407"/>
    </contour>
  </outline>
</glyph>
<glyph name="D" format="1">
  <advance width="600"/>
  <unicode hex="0044"/>
  <outline>
    <contour>
      <point x="288" y="668" type="move" name="Anchor-7"/>
    </contour>
    <contour>
      <point x="288" y="0" type="move" name="Anchor-6"/>
    </contour>
    <contour>
      <point x="146" y="0" type="line" smooth="yes"/>
      <point x="110" y="0"/>
      <point x="71" y="39"/>
      <point x="71" y="75" type="qcurve" smooth="yes"/>
      <point x="71" y="575" type="line" smooth="yes"/>
      <point x="71" y="611"/>
      <point x="110" y="650"/>
      <point x="146" y="650" type="qcurve" smooth="yes"/>
      <point x="231" y="650" type="line" smooth="yes"/>
      <point x="377" y="650"/>
      <point x="561" y="481"/>
      <point x="561" y="330" type="qcurve" smooth="yes"/>
      <point x="561" y="178"/>
      <point x="389" y="0"/>
      <point x="256" y="0" type="qcurve" smooth="yes"/>
    </contour>
    <contour>
      <point x="257" y="79" type="line" smooth="yes"/>
      <point x="299" y="79"/>
      <point x="373" y="109"/>
      <point x="434" y="169"/>
      <point x="470" y="270"/>
      <point x="471" y="334" type="qcurve" smooth="yes"/>
      <point x="472" y="457"/>
      <point x="332" y="570"/>
      <point x="231" y="570" type="qcurve" smooth="yes"/>
      <point x="158" y="570" type="line"/>
      <point x="158" y="79" type="line"/>
    </contour>
  </outline>
</glyph>
<glyph name="E" format="1">
  <advance width="600"/>
  <unicode hex="0045"/>
  <outline>
    <contour>
      <point x="231" y="0" type="move" name="Anchor6"/>
    </contour>
    <contour>
      <point x="231" y="670" type="move" name="Anchor7"/>
    </contour>
    <contour>
      <point x="231" y="670" type="move" name="Anchor-7"/>
    </contour>
    <contour>
      <point x="231" y="0" type="move" name="Anchor-6"/>
    </contour>
    <contour>
      <point x="101" y="575" type="line" smooth="yes"/>
      <point x="101" y="611"/>
      <point x="140" y="650"/>
      <point x="176" y="650" type="qcurve" smooth="yes"/>
      <point x="479" y="650" type="line" smooth="yes"/>
      <point x="530" y="650"/>
      <point x="530" y="611" type="qcurve" smooth="yes"/>
      <point x="530" y="570"/>
      <point x="479" y="570" type="qcurve" smooth="yes"/>
      <point x="188" y="570" type="line"/>
      <point x="188" y="385" type="line"/>
      <point x="399" y="385" type="line" smooth="yes"/>
      <point x="450" y="385"/>
      <point x="450" y="305"/>
      <point x="399" y="305" type="qcurve" smooth="yes"/>
      <point x="188" y="305" type="line"/>
      <point x="188" y="80" type="line"/>
      <point x="479" y="80" type="line" smooth="yes"/>
      <point x="530" y="80"/>
      <point x="530" y="41" type="qcurve" smooth="yes"/>
      <point x="530" y="0"/>
      <point x="479" y="0" type="qcurve" smooth="yes"/>
      <point x="176" y="0" type="line" smooth="yes"/>
      <point x="140" y="0"/>
      <point x="101" y="39"/>
      <point x="101" y="75" type="qcurve" smooth="yes"/>
    </contour>
  </outline>
</glyph>
<glyph name="F" format="1">
  <advance width="600"/>
  <unicode hex="0046"/>
  <outline>
    <contour>
      <point x="251" y="670" type="move" name="Anchor-7"/>
    </contour>
    <contour>
      <point x="251" y="0" type="move" name="Anchor-6"/>
    </contour>
    <contour>
      <point x="71" y="575" type="line" smooth="yes"/>
      <point x="71" y="611"/>
      <point x="110" y="650"/>
      <point x="146" y="650" type="qcurve" smooth="yes"/>
      <point x="479" y="650" type="line" smooth="yes"/>
      <point x="530" y="650"/>
      <point x="530" y="570"/>
      <point x="479" y="570" type="qcurve" smooth="yes"/>
      <point x="158" y="570" type="line"/>
      <point x="158" y="345" type="line"/>
      <point x="399" y="345" type="line" smooth="yes"/>
      <point x="450" y="345"/>
      <point x="450" y="265"/>
      <point x="399" y="265" type="qcurve" smooth="yes"/>
      <point x="158" y="265" type="line"/>
      <point x="158" y="50" type="line" smooth="yes"/>
      <point x="158" y="-1"/>
      <point x="114" y="-1" type="qcurve" smooth="yes"/>
      <point x="71" y="-1"/>
      <point x="71" y="50" type="qcurve" smooth="yes"/>
    </contour>
  </outline>
</glyph>
<glyph name="G" format="1">
  <advance width="600"/>
  <unicode hex="0047"/>
  <outline>
    <contour>
      <point x="300" y="680" type="move" name="Anchor-7"/>
    </contour>
    <contour>
      <point x="300" y="0" type="move" name="Anchor-6"/>
    </contour>
    <contour>
      <point x="312" y="-9" type="qcurve" smooth="yes"/>
      <point x="182" y="-9"/>
      <point x="39" y="181"/>
      <point x="39" y="341" type="qcurve" smooth="yes"/>
      <point x="39" y="425"/>
      <point x="96" y="565"/>
      <point x="223" y="659"/>
      <point x="312" y="659" type="qcurve" smooth="yes"/>
      <point x="400" y="659"/>
      <point x="516" y="576"/>
      <point x="532" y="499" type="qcurve" smooth="yes"/>
      <point x="540" y="463"/>
      <point x="511" y="451" type="qcurve" smooth="yes"/>
      <point x="494" y="444"/>
      <point x="465" y="457"/>
      <point x="459" y="474" type="qcurve" smooth="yes"/>
      <point x="438" y="530"/>
      <point x="371" y="574"/>
      <point x="312" y="574" type="qcurve" smooth="yes"/>
      <point x="222" y="574"/>
      <point x="129" y="451"/>
      <point x="129" y="341" type="qcurve" smooth="yes"/>
      <point x="129" y="214"/>
      <point x="222" y="77"/>
      <point x="312" y="76" type="qcurve" smooth="yes"/>
      <point x="371" y="75"/>
      <point x="448" y="116"/>
      <point x="479" y="181" type="qcurve" smooth="yes"/>
      <point x="491" y="207"/>
      <point x="493" y="233" type="qcurve"/>
      <point x="358" y="233" type="line" smooth="yes"/>
      <point x="297" y="233"/>
      <point x="297" y="274" type="qcurve" smooth="yes"/>
      <point x="297" y="313"/>
      <point x="358" y="313" type="qcurve" smooth="yes"/>
      <point x="495" y="313" type="line"/>
      <point x="532" y="313" type="line" smooth="yes"/>
      <point x="553" y="313"/>
      <point x="570" y="293"/>
      <point x="570" y="270" type="qcurve" smooth="yes"/>
      <point x="570" y="236"/>
      <point x="549" y="142"/>
      <point x="529" y="108" type="qcurve" smooth="yes"/>
      <point x="495" y="49"/>
      <point x="392" y="-9"/>
    </contour>
    <contour>
      <point x="480" y="313" type="qcurve"/>
      <point x="481" y="313" type="line"/>
      <point x="480" y="314"/>
    </contour>
  </outline>
</glyph>
<glyph name="I" format="1">
  <advance width="600"/>
  <unicode hex="0049"/>
  <outline>
    <contour>
      <point x="240" y="670" type="move" name="Anchor-7"/>
    </contour>
    <contour>
      <point x="240" y="0" type="move" name="Anchor-6"/>
    </contour>
    <contour>
      <point x="121" y="571" type="line" smooth="yes"/>
      <point x="70" y="571"/>
      <point x="70" y="612" type="qcurve" smooth="yes"/>
      <point x="70" y="651"/>
      <point x="121" y="651" type="qcurve" smooth="yes"/>
      <point x="479" y="651" type="line" smooth="yes"/>
      <point x="530" y="651"/>
      <point x="530" y="571"/>
      <point x="479" y="571" type="qcurve" smooth="yes"/>
      <point x="344" y="571" type="line"/>
      <point x="344" y="80" type="line"/>
      <point x="479" y="80" type="line" smooth="yes"/>
      <point x="530" y="80"/>
      <point x="530" y="0"/>
      <point x="479" y="0" type="qcurve" smooth="yes"/>
      <point x="121" y="0" type="line" smooth="yes"/>
      <point x="70" y="0"/>
      <point x="70" y="41" type="qcurve" smooth="yes"/>
      <point x="70" y="80"/>
      <point x="121" y="80" type="qcurve" smooth="yes"/>
      <point x="257" y="80" type="line"/>
      <point x="257" y="571" type="line"/>
    </contour>
  </outline>
</glyph>
<glyph name="J" format="1">
  <advance width="600"/>
  <unicode hex="004A"/>
  <outline>
    <contour>
      <point x="252" y="0" type="move" name="Anchor6"/>
    </contour>
    <contour>
      <point x="252" y="670" type="move" name="Anchor7"/>
    </contour>
    <contour>
      <point x="252" y="670" type="move" name="Anchor-7"/>
    </contour>
    <contour>
      <point x="252" y="0" type="move" name="Anchor-6"/>
    </contour>
    <contour>
      <point x="443" y="205" type="line" smooth="yes"/>
      <point x="443" y="106"/>
      <point x="332" y="-10"/>
      <point x="241" y="-10" type="qcurve" smooth="yes"/>
      <point x="175" y="-10"/>
      <point x="87" y="57"/>
      <point x="66" y="105" type="qcurve" smooth="yes"/>
      <point x="50" y="143"/>
      <point x="93" y="160" type="qcurve" smooth="yes"/>
      <point x="128" y="174"/>
      <point x="148" y="133" type="qcurve" smooth="yes"/>
      <point x="176" y="76"/>
      <point x="241" y="76" type="qcurve" smooth="yes"/>
      <point x="295" y="76"/>
      <point x="356" y="143"/>
      <point x="356" y="205" type="qcurve" smooth="yes"/>
      <point x="356" y="571" type="line"/>
      <point x="215" y="571" type="line" smooth="yes"/>
      <point x="164" y="571"/>
      <point x="164" y="612" type="qcurve" smooth="yes"/>
      <point x="164" y="651"/>
      <point x="215" y="651" type="qcurve" smooth="yes"/>
      <point x="502" y="651" type="line" smooth="yes"/>
      <point x="553" y="651"/>
      <point x="553" y="571"/>
      <point x="502" y="571" type="qcurve" smooth="yes"/>
      <point x="443" y="571" type="line"/>
    </contour>
  </outline>
</glyph>
<glyph name="L" format="1">
  <advance width="600"/>
  <unicode hex="004C"/>
  <outline>
    <contour>
      <point x="238" y="670" type="move" name="Anchor-7"/>
    </contour>
    <contour>
      <point x="238" y="0" type="move" name="Anchor-6"/>
    </contour>
    <contour>
      <point x="71" y="600" type="line" smooth="yes"/>
      <point x="71" y="651"/>
      <point x="114" y="651" type="qcurve" smooth="yes"/>
      <point x="158" y="651"/>
      <point x="158" y="600" type="qcurve" smooth="yes"/>
      <point x="158" y="86" type="line"/>
      <point x="479" y="86" type="line" smooth="yes"/>
      <point x="530" y="86"/>
      <point x="530" y="43" type="qcurve" smooth="yes"/>
      <point x="530" y="-1"/>
      <point x="479" y="-1" type="qcurve" smooth="yes"/>
      <point x="146" y="-1" type="line" smooth="yes"/>
      <point x="110" y="-1"/>
      <point x="71" y="38"/>
      <point x="71" y="74" type="qcurve" smooth="yes"/>
    </contour>
  </outline>
</glyph>
<glyph name="N" format="1">
  <advance width="600"/>
  <unicode hex="004E"/>
  <outline>
    <contour>
      <point x="310" y="670" type="move" name="Anchor-7"/>
    </contour>
    <contour>
      <point x="310" y="0" type="move" name="Anchor-6"/>
    </contour>
    <contour>
      <point x="158" y="52" type="line" smooth="yes"/>
      <point x="158" y="0"/>
      <point x="114" y="0" type="qcurve" smooth="yes"/>
      <point x="71" y="0"/>
      <point x="71" y="52" type="qcurve" smooth="yes"/>
      <point x="71" y="599" type="line" smooth="yes"/>
      <point x="71" y="643"/>
      <point x="103" y="650" type="qcurve"/>
      <point x="139" y="665"/>
      <point x="162" y="629" type="qcurve" smooth="yes"/>
      <point x="442" y="184" type="line"/>
      <point x="442" y="598" type="line" smooth="yes"/>
      <point x="442" y="650"/>
      <point x="486" y="650" type="qcurve" smooth="yes"/>
      <point x="529" y="650"/>
      <point x="529" y="598" type="qcurve" smooth="yes"/>
      <point x="529" y="52" type="line" smooth="yes"/>
      <point x="529" y="0"/>
      <point x="485" y="0" type="qcurve" smooth="yes"/>
      <point x="455" y="0"/>
      <point x="446" y="25" type="qcurve"/>
      <point x="446" y="21" type="line"/>
      <point x="158" y="477" type="line"/>
    </contour>
  </outline>
</glyph>
<glyph name="O" format="1">
  <advance width="600"/>
  <unicode hex="004F"/>
  <outline>
    <contour>
      <point x="300" y="690" type="move" name="Anchor-7"/>
    </contour>
    <contour>
      <point x="300" y="0" type="move" name="Anchor-6"/>
    </contour>
    <contour>
      <point x="300" y="664" type="qcurve" smooth="yes"/>
      <point x="174" y="663"/>
      <point x="39" y="471"/>
      <point x="39" y="331" type="qcurve" smooth="yes"/>
      <point x="39" y="178"/>
      <point x="177" y="-9"/>
      <point x="300" y="-10" type="qcurve" smooth="yes"/>
      <point x="423" y="-9"/>
      <point x="561" y="178"/>
      <point x="561" y="331" type="qcurve" smooth="yes"/>
      <point x="561" y="471"/>
      <point x="426" y="663"/>
    </contour>
    <contour>
      <point x="129" y="331" type="qcurve" smooth="yes"/>
      <point x="129" y="452"/>
      <point x="216" y="578"/>
      <point x="384" y="578"/>
      <point x="471" y="452"/>
      <point x="471" y="331" type="qcurve" smooth="yes"/>
      <point x="471" y="209"/>
      <point x="383" y="76"/>
      <point x="217" y="76"/>
      <point x="129" y="209"/>
    </contour>
  </outline>
</glyph>
<glyph name="R" format="1">
  <advance width="600"/>
  <unicode hex="0052"/>
  <outline>
    <contour>
      <point x="299" y="0" type="move" name="Anchor6"/>
    </contour>
    <contour>
      <point x="299" y="670" type="move" name="Anchor7"/>
    </contour>
    <contour>
      <point x="299" y="670" type="move" name="Anchor-7"/>
    </contour>
    <contour>
      <point x="299" y="0" type="move" name="Anchor-6"/>
    </contour>
    <contour>
      <point x="71" y="575" type="line" smooth="yes"/>
      <point x="71" y="611"/>
      <point x="110" y="650"/>
      <point x="146" y="650" type="qcurve" smooth="yes"/>
      <point x="274" y="650" type="line" smooth="yes"/>
      <point x="390" y="650"/>
      <point x="513" y="562"/>
      <point x="513" y="463" type="qcurve" smooth="yes"/>
      <point x="513" y="334"/>
      <point x="369" y="297" type="qcurve"/>
      <point x="386" y="270"/>
      <point x="442" y="147"/>
      <point x="486" y="80"/>
      <point x="508" y="80" type="qcurve" smooth="yes"/>
      <point x="556" y="80"/>
      <point x="556" y="38" type="qcurve" smooth="yes"/>
      <point x="556" y="28"/>
      <point x="553" y="17"/>
      <point x="543" y="4"/>
      <point x="518" y="-2"/>
      <point x="499" y="-2" type="qcurve" smooth="yes"/>
      <point x="452" y="-2"/>
      <point x="379" y="88"/>
      <point x="299" y="252"/>
      <point x="275" y="285" type="qcurve"/>
      <point x="264" y="285" type="line"/>
      <point x="158" y="285" type="line"/>
      <point x="158" y="50" type="line" smooth="yes"/>
      <point x="158" y="-1"/>
      <point x="114" y="-1" type="qcurve" smooth="yes"/>
      <point x="71" y="-1"/>
      <point x="71" y="50" type="qcurve" smooth="yes"/>
    </contour>
    <contour>
      <point x="158" y="365" type="line"/>
      <point x="274" y="365" type="line" smooth="yes"/>
      <point x="347" y="365"/>
      <point x="430" y="416"/>
      <point x="430" y="467" type="qcurve" smooth="yes"/>
      <point x="430" y="519"/>
      <point x="367" y="570"/>
      <point x="274" y="570" type="qcurve" smooth="yes"/>
      <point x="158" y="570" type="line"/>
    </contour>
  </outline>
</glyph>
<glyph name="U" format="1">
  <advance width="600"/>
  <unicode hex="0055"/>
  <outline>
    <contour>
      <point x="300" y="670" type="move" name="Anchor-7"/>
    </contour>
    <contour>
      <point x="300" y="0" type="move" name="Anchor-6"/>
    </contour>
    <contour>
      <point x="300" y="-10" type="qcurve" smooth="yes"/>
      <point x="252" y="-10"/>
      <point x="173" y="17"/>
      <point x="105" y="74"/>
      <point x="67" y="176"/>
      <point x="67" y="246" type="qcurve" smooth="yes"/>
      <point x="67" y="600" type="line" smooth="yes"/>
      <point x="67" y="651"/>
      <point x="111" y="651" type="qcurve" smooth="yes"/>
      <point x="154" y="651"/>
      <point x="154" y="600" type="qcurve" smooth="yes"/>
      <point x="154" y="246" type="line" smooth="yes"/>
      <point x="154" y="193"/>
      <point x="179" y="122"/>
      <point x="224" y="88"/>
      <point x="270" y="76"/>
      <point x="330" y="76"/>
      <point x="376" y="88"/>
      <point x="421" y="122"/>
      <point x="445" y="193"/>
      <point x="445" y="246" type="qcurve" smooth="yes"/>
      <point x="445" y="600" type="line" smooth="yes"/>
      <point x="445" y="651"/>
      <point x="489" y="651" type="qcurve" smooth="yes"/>
      <point x="532" y="651"/>
      <point x="532" y="600" type="qcurve" smooth="yes"/>
      <point x="532" y="246" type="line" smooth="yes"/>
      <point x="532" y="111"/>
      <point x="401" y="-11"/>
    </contour>
  </outline>
</glyph>
<glyph name="W" format="1">
  <advance width="600"/>
  <unicode hex="0057"/>
  <outline>
    <contour>
      <point x="318" y="670" type="move" name="Anchor-7"/>
    </contour>
    <contour>
      <point x="318" y="0" type="move" name="Anchor-6"/>
    </contour>
    <contour>
      <point x="38" y="596" type="line" smooth="yes"/>
      <point x="31" y="646"/>
      <point x="73" y="653" type="qcurve" smooth="yes"/>
      <point x="115" y="656"/>
      <point x="122" y="607" type="qcurve" smooth="yes"/>
      <point x="181" y="166" type="line"/>
      <point x="254" y="346" type="line" smooth="yes"/>
      <point x="270" y="386"/>
      <point x="330" y="386"/>
      <point x="346" y="346" type="qcurve" smooth="yes"/>
      <point x="419" y="166" type="line"/>
      <point x="478" y="607" type="line" smooth="yes"/>
      <point x="485" y="656"/>
      <point x="527" y="653" type="qcurve" smooth="yes"/>
      <point x="569" y="646"/>
      <point x="562" y="596" type="qcurve" smooth="yes"/>
      <point x="485" y="30" type="line" smooth="yes"/>
      <point x="479" y="-10"/>
      <point x="413" y="-10"/>
      <point x="397" y="28" type="qcurve" smooth="yes"/>
      <point x="300" y="254" type="line"/>
      <point x="203" y="28" type="line" smooth="yes"/>
      <point x="187" y="-10"/>
      <point x="121" y="-10"/>
      <point x="115" y="30" type="qcurve" smooth="yes"/>
    </contour>
  </outline>
</glyph>
<glyph name="X" format="1">
  <advance width="600"/>
  <unicode hex="0058"/>
  <outline>
    <contour>
      <point x="271" y="670" type="move" name="Anchor-7"/>
    </contour>
    <contour>
      <point x="271" y="0" type="move" name="Anchor-6"/>
    </contour>
    <contour>
      <point x="530" y="71" type="line" smooth="yes"/>
      <point x="558" y="29"/>
      <point x="517" y="6" type="qcurve" smooth="yes"/>
      <point x="484" y="-12"/>
      <point x="455" y="30" type="qcurve" smooth="yes"/>
      <point x="303" y="259" type="line"/>
      <point x="144" y="30" type="line" smooth="yes"/>
      <point x="114" y="-12"/>
      <point x="82" y="6" type="qcurve" smooth="yes"/>
      <point x="41" y="29"/>
      <point x="69" y="71" type="qcurve" smooth="yes"/>
      <point x="250" y="339" type="line"/>
      <point x="92" y="579" type="line" smooth="yes"/>
      <point x="63" y="621"/>
      <point x="105" y="644" type="qcurve" smooth="yes"/>
      <point x="138" y="662"/>
      <point x="167" y="620" type="qcurve" smooth="yes"/>
      <point x="302" y="416" type="line"/>
      <point x="437" y="620" type="line" smooth="yes"/>
      <point x="466" y="662"/>
      <point x="499" y="644" type="qcurve" smooth="yes"/>
      <point x="540" y="622"/>
      <point x="512" y="579" type="qcurve" smooth="yes"/>
      <point x="355" y="336" type="line"/>
    </contour>
  </outline>
</glyph>
<glyph name="bracketleft" format="1">
  <advance width="600"/>
  <unicode hex="005B"/>
  <outline>
    <contour>
      <point x="204" y="-124" type="line" smooth="yes"/>
      <point x="186" y="-124"/>
      <point x="160" y="-97"/>
      <point x="160" y="-79" type="qcurve" smooth="yes"/>
      <point x="160" y="705" type="line" smooth="yes"/>
      <point x="160" y="725"/>
      <point x="185" y="752"/>
      <point x="201" y="752" type="qcurve" smooth="yes"/>
      <point x="377" y="752" type="line" smooth="yes"/>
      <point x="394" y="752"/>
      <point x="417" y="727"/>
      <point x="417" y="709" type="qcurve" smooth="yes"/>
      <point x="417" y="690"/>
      <point x="392" y="666"/>
      <point x="375" y="666" type="qcurve" smooth="yes"/>
      <point x="252" y="666" type="line"/>
      <point x="252" y="-38" type="line"/>
      <point x="377" y="-38" type="line" smooth="yes"/>
      <point x="394" y="-38"/>
      <point x="417" y="-63"/>
      <point x="417" y="-81" type="qcurve" smooth="yes"/>
      <point x="417" y="-100"/>
      <point x="392" y="-124"/>
      <point x="375" y="-124" type="qcurve" smooth="yes"/>
    </contour>
  </outline>
</glyph>
<glyph name="backslash" format="1">
  <advance width="600"/>
  <unicode hex="005C"/>
  <outline>
    <contour>
      <point x="46" y="679" type="line" smooth="yes"/>
      <point x="37" y="699"/>
      <point x="49" y="737"/>
      <point x="67" y="746" type="qcurve" smooth="yes"/>
      <point x="86" y="754"/>
      <point x="122" y="740"/>
      <point x="132" y="720" type="qcurve" smooth="yes"/>
      <point x="502" y="-36" type="line" smooth="yes"/>
      <point x="512" y="-56"/>
      <point x="499" y="-94"/>
      <point x="481" y="-102" type="qcurve" smooth="yes"/>
      <point x="462" y="-111"/>
      <point x="426" y="-96"/>
      <point x="416" y="-76" type="qcurve" smooth="yes"/>
    </contour>
  </outline>
</glyph>
<glyph name="bracketright" format="1">
  <advance width="600"/>
  <unicode hex="005D"/>
  <outline>
    <contour>
      <point x="232" y="-124" type="line" smooth="yes"/>
      <point x="214" y="-124"/>
      <point x="190" y="-100"/>
      <point x="190" y="-81" type="qcurve" smooth="yes"/>
      <point x="190" y="-63"/>
      <point x="213" y="-38"/>
      <point x="230" y="-38" type="qcurve" smooth="yes"/>
      <point x="355" y="-38" type="line"/>
      <point x="355" y="666" type="line"/>
      <point x="232" y="666" type="line" smooth="yes"/>
      <point x="214" y="666"/>
      <point x="190" y="690"/>
      <point x="190" y="709" type="qcurve" smooth="yes"/>
      <point x="190" y="727"/>
      <point x="213" y="752"/>
      <point x="230" y="752" type="qcurve" smooth="yes"/>
      <point x="406" y="752" type="line" smooth="yes"/>
      <point x="422" y="752"/>
      <point x="447" y="725"/>
      <point x="447" y="705" type="qcurve" smooth="yes"/>
      <point x="447" y="-79" type="line" smooth="yes"/>
      <point x="447" y="-97"/>
      <point x="421" y="-124"/>
      <point x="403" y="-124" type="qcurve" smooth="yes"/>
    </contour>
  </outline>
</glyph>
<glyph name="underscore" format="1">
  <advance width="600"/>
  <unicode hex="005F"/>
  <outline>
    <contour>
      <point x="526" y="-96" type="line" smooth="yes"/>
      <point x="543" y="-96"/>
      <point x="566" y="-121"/>
      <point x="566" y="-139" type="qcurve" smooth="yes"/>
      <point x="566" y="-158"/>
      <point x="542" y="-182"/>
      <point x="524" y="-182" type="qcurve" smooth="yes"/>
      <point x="63" y="-182" type="line" smooth="yes"/>
      <point x="45" y="-182"/>
      <point x="20" y="-156"/>
      <point x="20" y="-139" type="qcurve" smooth="yes"/>
      <point x="20" y="-123"/>
      <point x="43" y="-96"/>
      <point x="60" y="-96" type="qcurve" smooth="yes"/>
    </contour>
  </outline>
</glyph>
<glyph name="grave" format="1">
  <advance width="600"/>
  <unicode hex="0060"/>
  <outline>
    <contour>
      <point x="404" y="593" type="line" smooth="yes"/>
      <point x="415" y="580"/>
      <point x="413" y="545"/>
      <point x="402" y="534" type="qcurve" smooth="yes"/>
      <point x="390" y="522"/>
      <point x="354" y="522"/>
      <point x="342" y="534" type="qcurve" smooth="yes"/>
      <point x="200" y="676" type="line" smooth="yes"/>
      <point x="188" y="688"/>
      <point x="188" y="723"/>
      <point x="201" y="736" type="qcurve" smooth="yes"/>
      <point x="213" y="748"/>
      <point x="247" y="750"/>
      <point x="259" y="738" type="qcurve" smooth="yes"/>
    </contour>
  </outline>
</glyph>
<glyph name="b" format="1">
  <advance width="600"/>
  <unicode hex="0062"/>
  <outline>
    <contour>
      <point x="196" y="50" type="qcurve"/>
      <point x="196" y="-1"/>
      <point x="155" y="-1" type="qcurve" smooth="yes"/>
      <point x="113" y="-1"/>
      <point x="113" y="50" type="qcurve" smooth="yes"/>
      <point x="113" y="614" type="line" smooth="yes"/>
      <point x="113" y="665"/>
      <point x="155" y="665" type="qcurve" smooth="yes"/>
      <point x="196" y="665"/>
      <point x="196" y="614" type="qcurve" smooth="yes"/>
      <point x="196" y="421" type="line"/>
      <point x="245" y="483"/>
      <point x="343" y="483" type="qcurve" smooth="yes"/>
      <point x="424" y="483"/>
      <point x="535" y="346"/>
      <point x="535" y="233" type="qcurve" smooth="yes"/>
      <point x="535" y="112"/>
      <point x="418" y="-10"/>
      <point x="346" y="-10" type="qcurve" smooth="yes"/>
      <point x="249" y="-10"/>
    </contour>
    <contour>
      <point x="441" y="233" type="qcurve" smooth="yes"/>
      <point x="441" y="317"/>
      <point x="375" y="404"/>
      <point x="326" y="404" type="qcurve" smooth="yes"/>
      <point x="278" y="404"/>
      <point x="210" y="339"/>
      <point x="196" y="288" type="qcurve"/>
      <point x="196" y="141" type="line"/>
      <point x="252" y="66"/>
      <point x="327" y="66" type="qcurve" smooth="yes"/>
      <point x="375" y="66"/>
      <point x="441" y="151"/>
    </contour>
  </outline>
</glyph>
<glyph name="d" format="1">
  <advance width="600"/>
  <unicode hex="0064"/>
  <outline>
    <contour>
      <point x="404" y="614" type="line" smooth="yes"/>
      <point x="404" y="665"/>
      <point x="445" y="665" type="qcurve" smooth="yes"/>
      <point x="487" y="665"/>
      <point x="487" y="614" type="qcurve" smooth="yes"/>
      <point x="487" y="50" type="line" smooth="yes"/>
      <point x="487" y="-1"/>
      <point x="445" y="-1" type="qcurve" smooth="yes"/>
      <point x="404" y="-1"/>
      <point x="404" y="50" type="qcurve"/>
      <point x="351" y="-10"/>
      <point x="254" y="-10" type="qcurve" smooth="yes"/>
      <point x="182" y="-10"/>
      <point x="65" y="112"/>
      <point x="65" y="233" type="qcurve" smooth="yes"/>
      <point x="65" y="346"/>
      <point x="176" y="483"/>
      <point x="257" y="483" type="qcurve" smooth="yes"/>
      <point x="355" y="483"/>
      <point x="404" y="421" type="qcurve"/>
    </contour>
    <contour>
      <point x="159" y="233" type="qcurve" smooth="yes"/>
      <point x="159" y="151"/>
      <point x="225" y="66"/>
      <point x="273" y="66" type="qcurve" smooth="yes"/>
      <point x="348" y="66"/>
      <point x="404" y="141" type="qcurve"/>
      <point x="404" y="288" type="line"/>
      <point x="390" y="339"/>
      <point x="322" y="404"/>
      <point x="274" y="404" type="qcurve" smooth="yes"/>
      <point x="225" y="404"/>
      <point x="159" y="317"/>
    </contour>
  </outline>
</glyph>
<glyph name="f" format="1">
  <advance width="600"/>
  <unicode hex="0066"/>
  <outline>
    <contour>
      <point x="354" y="697" type="qcurve" smooth="yes"/>
      <point x="417" y="697"/>
      <point x="468" y="654" type="qcurve" smooth="yes"/>
      <point x="492" y="634"/>
      <point x="503" y="606"/>
      <point x="494" y="590" type="qcurve" smooth="yes"/>
      <point x="484" y="572"/>
      <point x="452" y="564"/>
      <point x="438" y="576" type="qcurve" smooth="yes"/>
      <point x="388" y="614"/>
      <point x="352" y="614" type="qcurve" smooth="yes"/>
      <point x="321" y="614"/>
      <point x="293" y="565"/>
      <point x="293" y="510" type="qcurve" smooth="yes"/>
      <point x="293" y="473" type="line"/>
      <point x="413" y="473" type="line" smooth="yes"/>
      <point x="464" y="473"/>
      <point x="464" y="395"/>
      <point x="413" y="395" type="qcurve" smooth="yes"/>
      <point x="293" y="395" type="line"/>
      <point x="293" y="51" type="line" smooth="yes"/>
      <point x="293" y="0"/>
      <point x="252" y="0" type="qcurve" smooth="yes"/>
      <point x="210" y="0"/>
      <point x="210" y="51" type="qcurve" smooth="yes"/>
      <point x="210" y="395" type="line"/>
      <point x="179" y="395" type="line" smooth="yes"/>
      <point x="128" y="395"/>
      <point x="128" y="473"/>
      <point x="179" y="473" type="qcurve" smooth="yes"/>
      <point x="210" y="473" type="line"/>
      <point x="210" y="512" type="line" smooth="yes"/>
      <point x="210" y="697"/>
    </contour>
  </outline>
</glyph>
<glyph name="h" format="1">
  <advance width="600"/>
  <unicode hex="0068"/>
  <outline>
    <contour>
      <point x="120" y="629" type="line" smooth="yes"/>
      <point x="120" y="680"/>
      <point x="161" y="680" type="qcurve" smooth="yes"/>
      <point x="203" y="680"/>
      <point x="203" y="629" type="qcurve" smooth="yes"/>
      <point x="203" y="417" type="line"/>
      <point x="256" y="483"/>
      <point x="358" y="483" type="qcurve" smooth="yes"/>
      <point x="438" y="483"/>
      <point x="513" y="394"/>
      <point x="513" y="321" type="qcurve" smooth="yes"/>
      <point x="513" y="50" type="line" smooth="yes"/>
      <point x="513" y="-1"/>
      <point x="471" y="-1" type="qcurve" smooth="yes"/>
      <point x="430" y="-1"/>
      <point x="430" y="50" type="qcurve" smooth="yes"/>
      <point x="430" y="321" type="line" smooth="yes"/>
      <point x="430" y="365"/>
      <point x="388" y="400"/>
      <point x="346" y="400" type="qcurve" smooth="yes"/>
      <point x="300" y="400"/>
      <point x="226" y="342"/>
      <point x="203" y="289" type="qcurve"/>
      <point x="203" y="50" type="line" smooth="yes"/>
      <point x="203" y="-1"/>
      <point x="161" y="-1" type="qcurve" smooth="yes"/>
      <point x="120" y="-1"/>
      <point x="120" y="50" type="qcurve" smooth="yes"/>
    </contour>
  </outline>
</glyph>
<glyph name="k" format="1">
  <advance width="600"/>
  <unicode hex="006B"/>
  <outline>
    <contour>
      <point x="120" y="629" type="line" smooth="yes"/>
      <point x="120" y="680"/>
      <point x="161" y="680" type="qcurve" smooth="yes"/>
      <point x="203" y="680"/>
      <point x="203" y="629" type="qcurve" smooth="yes"/>
      <point x="203" y="304" type="line"/>
      <point x="389" y="462" type="line" smooth="yes"/>
      <point x="427" y="494"/>
      <point x="451" y="471" type="qcurve" smooth="yes"/>
      <point x="466" y="459"/>
      <point x="467" y="426"/>
      <point x="449" y="408" type="qcurve" smooth="yes"/>
      <point x="311" y="283" type="line"/>
      <point x="485" y="76" type="line" smooth="yes"/>
      <point x="519" y="37"/>
      <point x="485" y="10" type="qcurve" smooth="yes"/>
      <point x="455" y="-17"/>
      <point x="421" y="22" type="qcurve" smooth="yes"/>
      <point x="249" y="227" type="line"/>
      <point x="203" y="186" type="line"/>
      <point x="203" y="50" type="line" smooth="yes"/>
      <point x="203" y="-1"/>
      <point x="161" y="-1" type="qcurve" smooth="yes"/>
      <point x="120" y="-1"/>
      <point x="120" y="50" type="qcurve" smooth="yes"/>
    </contour>
  </outline>
</glyph>
<glyph name="l" format="1">
  <advance width="600"/>
  <unicode hex="006C"/>
  <outline>
    <contour>
      <point x="384" y="0" type="qcurve" smooth="yes"/>
      <point x="306" y="0"/>
      <point x="210" y="89"/>
      <point x="210" y="185" type="qcurve" smooth="yes"/>
      <point x="210" y="629" type="line" smooth="yes"/>
      <point x="210" y="680"/>
      <point x="252" y="680" type="qcurve" smooth="yes"/>
      <point x="293" y="680"/>
      <point x="293" y="629" type="qcurve" smooth="yes"/>
      <point x="293" y="187" type="line" smooth="yes"/>
      <point x="293" y="127"/>
      <point x="338" y="83"/>
      <point x="384" y="83" type="qcurve" smooth="yes"/>
      <point x="435" y="83"/>
      <point x="435" y="42" type="qcurve" smooth="yes"/>
      <point x="435" y="0"/>
    </contour>
  </outline>
</glyph>
<glyph name="m" format="1">
  <advance width="600"/>
  <unicode hex="006D"/>
  <outline>
    <contour>
      <point x="40" y="423" type="line" smooth="yes"/>
      <point x="40" y="474"/>
      <point x="81" y="474" type="qcurve" smooth="yes"/>
      <point x="116" y="474"/>
      <point x="130" y="434" type="qcurve"/>
      <point x="166" y="483"/>
      <point x="225" y="483" type="qcurve" smooth="yes"/>
      <point x="282" y="483"/>
      <point x="314" y="426" type="qcurve"/>
      <point x="354" y="483"/>
      <point x="432" y="483" type="qcurve" smooth="yes"/>
      <point x="491" y="483"/>
      <point x="559" y="386"/>
      <point x="558" y="301" type="qcurve" smooth="yes"/>
      <point x="555" y="51" type="line" smooth="yes"/>
      <point x="555" y="0"/>
      <point x="512" y="0" type="qcurve" smooth="yes"/>
      <point x="470" y="0"/>
      <point x="472" y="51" type="qcurve" smooth="yes"/>
      <point x="475" y="301" type="line" smooth="yes"/>
      <point x="476" y="353"/>
      <point x="448" y="394"/>
      <point x="421" y="394" type="qcurve" smooth="yes"/>
      <point x="340" y="394"/>
      <point x="340" y="195" type="qcurve" smooth="yes"/>
      <point x="338" y="51" type="line" smooth="yes"/>
      <point x="338" y="0"/>
      <point x="295" y="0" type="qcurve" smooth="yes"/>
      <point x="253" y="0"/>
      <point x="255" y="51" type="qcurve" smooth="yes"/>
      <point x="258" y="301" type="line" smooth="yes"/>
      <point x="259" y="353"/>
      <point x="231" y="394"/>
      <point x="204" y="394" type="qcurve" smooth="yes"/>
      <point x="147" y="394"/>
      <point x="129" y="290" type="qcurve"/>
      <point x="123" y="51" type="line" smooth="yes"/>
      <point x="121" y="0"/>
      <point x="81" y="0" type="qcurve" smooth="yes"/>
      <point x="40" y="0"/>
      <point x="40" y="51" type="qcurve" smooth="yes"/>
    </contour>
  </outline>
</glyph>
<glyph name="q" format="1">
  <advance width="600"/>
  <unicode hex="0071"/>
  <outline>
    <contour>
      <point x="414" y="424" type="line" smooth="yes"/>
      <point x="414" y="475"/>
      <point x="455" y="475" type="qcurve" smooth="yes"/>
      <point x="497" y="475"/>
      <point x="497" y="424" type="qcurve" smooth="yes"/>
      <point x="497" y="-190" type="line" smooth="yes"/>
      <point x="497" y="-241"/>
      <point x="455" y="-241" type="qcurve" smooth="yes"/>
      <point x="414" y="-241"/>
      <point x="414" y="-190" type="qcurve" smooth="yes"/>
      <point x="414" y="50" type="line"/>
      <point x="361" y="-10"/>
      <point x="264" y="-10" type="qcurve" smooth="yes"/>
      <point x="192" y="-10"/>
      <point x="75" y="112"/>
      <point x="75" y="233" type="qcurve" smooth="yes"/>
      <point x="75" y="346"/>
      <point x="186" y="483"/>
      <point x="267" y="483" type="qcurve" smooth="yes"/>
      <point x="365" y="483"/>
      <point x="414" y="421" type="qcurve"/>
    </contour>
    <contour>
      <point x="167" y="233" type="qcurve" smooth="yes"/>
      <point x="167" y="150"/>
      <point x="234" y="66"/>
      <point x="283" y="66" type="qcurve" smooth="yes"/>
      <point x="358" y="66"/>
      <point x="414" y="141" type="qcurve"/>
      <point x="414" y="288" type="line"/>
      <point x="400" y="339"/>
      <point x="332" y="404"/>
      <point x="284" y="404" type="qcurve" smooth="yes"/>
      <point x="234" y="404"/>
      <point x="167" y="317"/>
    </contour>
  </outline>
</glyph>
<glyph name="t" format="1">
  <advance width="600"/>
  <unicode hex="0074"/>
  <outline>
    <contour>
      <point x="371" y="-11" type="line" smooth="yes"/>
      <point x="293" y="-11"/>
      <point x="197" y="78"/>
      <point x="197" y="174" type="qcurve" smooth="yes"/>
      <point x="197" y="384" type="line"/>
      <point x="166" y="384" type="line" smooth="yes"/>
      <point x="115" y="384"/>
      <point x="115" y="462"/>
      <point x="166" y="462" type="qcurve" smooth="yes"/>
      <point x="197" y="462" type="line"/>
      <point x="197" y="614" type="line" smooth="yes"/>
      <point x="197" y="665"/>
      <point x="239" y="665" type="qcurve" smooth="yes"/>
      <point x="280" y="665"/>
      <point x="280" y="614" type="qcurve" smooth="yes"/>
      <point x="280" y="462" type="line"/>
      <point x="400" y="462" type="line" smooth="yes"/>
      <point x="451" y="462"/>
      <point x="451" y="384"/>
      <point x="400" y="384" type="qcurve" smooth="yes"/>
      <point x="280" y="384" type="line"/>
      <point x="280" y="176" type="line" smooth="yes"/>
      <point x="280" y="117"/>
      <point x="324" y="72"/>
      <point x="369" y="72" type="qcurve" smooth="yes"/>
      <point x="403" y="72"/>
      <point x="435" y="90" type="qcurve" smooth="yes"/>
      <point x="471" y="111"/>
      <point x="511" y="41"/>
      <point x="465" y="12" type="qcurve" smooth="yes"/>
      <point x="427" y="-11"/>
      <point x="372" y="-11" type="qcurve" smooth="yes"/>
    </contour>
  </outline>
</glyph>
<glyph name="v" format="1">
  <advance width="600"/>
  <unicode hex="0076"/>
  <outline>
    <contour>
      <point x="83" y="406" type="line" smooth="yes"/>
      <point x="62" y="451"/>
      <point x="98" y="469" type="qcurve" smooth="yes"/>
      <point x="136" y="486"/>
      <point x="157" y="440" type="qcurve" smooth="yes"/>
      <point x="301" y="125" type="line"/>
      <point x="445" y="440" type="line" smooth="yes"/>
      <point x="466" y="486"/>
      <point x="504" y="469" type="qcurve" smooth="yes"/>
      <point x="540" y="453"/>
      <point x="518" y="406" type="qcurve" smooth="yes"/>
      <point x="343" y="24" type="line"/>
      <point x="337" y="12" type="line" smooth="yes"/>
      <point x="333" y="4"/>
      <point x="326" y="-1" type="qcurve" smooth="yes"/>
      <point x="318" y="-7"/>
      <point x="309" y="-9" type="qcurve" smooth="yes"/>
      <point x="277" y="-18"/>
      <point x="259" y="23" type="qcurve" smooth="yes"/>
    </contour>
  </outline>
</glyph>
<glyph name="braceleft" format="1">
  <advance width="600"/>
  <unicode hex="007B"/>
  <outline>
    <contour>
      <point x="263" y="324" type="qcurve"/>
      <point x="273" y="330"/>
      <point x="291" y="343"/>
      <point x="303" y="362"/>
      <point x="313" y="375"/>
      <point x="320" y="400"/>
      <point x="324" y="412"/>
      <point x="327" y="443"/>
      <point x="328" y="452"/>
      <point x="331" y="487"/>
      <point x="331" y="491" type="qcurve" smooth="yes"/>
      <point x="332" y="510"/>
      <point x="333" y="579"/>
      <point x="336" y="613"/>
      <point x="346" y="654"/>
      <point x="369" y="673"/>
      <point x="389" y="675" type="qcurve" smooth="yes"/>
      <point x="416" y="678"/>
      <point x="441" y="698"/>
      <point x="441" y="718" type="qcurve" smooth="yes"/>
      <point x="441" y="758"/>
      <point x="389" y="758" type="qcurve" smooth="yes"/>
      <point x="257" y="758"/>
      <point x="250" y="568" type="qcurve" smooth="yes"/>
      <point x="250" y="556"/>
      <point x="249" y="497"/>
      <point x="247" y="471"/>
      <point x="241" y="425"/>
      <point x="227" y="401"/>
      <point x="204" y="372"/>
      <point x="168" y="357"/>
      <point x="143" y="353" type="qcurve" smooth="yes"/>
      <point x="120" y="347"/>
      <point x="120" y="301"/>
      <point x="143" y="295" type="qcurve" smooth="yes"/>
      <point x="168" y="291"/>
      <point x="204" y="276"/>
      <point x="227" y="247"/>
      <point x="241" y="223"/>
      <point x="247" y="177"/>
      <point x="249" y="151"/>
      <point x="250" y="92"/>
      <point x="250" y="80" type="qcurve" smooth="yes"/>
      <point x="257" y="-110"/>
      <point x="389" y="-110" type="qcurve" smooth="yes"/>
      <point x="441" y="-110"/>
      <point x="441" y="-70" type="qcurve" smooth="yes"/>
      <point x="441" y="-50"/>
      <point x="416" y="-30"/>
      <point x="389" y="-27" type="qcurve" smooth="yes"/>
      <point x="369" y="-25"/>
      <point x="346" y="-6"/>
      <point x="336" y="35"/>
      <point x="334" y="70"/>
      <point x="332" y="137"/>
      <point x="331" y="157" type="qcurve" smooth="yes"/>
      <point x="331" y="161"/>
      <point x="328" y="196"/>
      <point x="327" y="205"/>
      <point x="324" y="236"/>
      <point x="320" y="248"/>
      <point x="313" y="273"/>
      <point x="303" y="286"/>
      <point x="291" y="305"/>
      <point x="273" y="318"/>
    </contour>
  </outline>
</glyph>
<glyph name="bar" format="1">
  <advance width="600"/>
  <unicode hex="007C"/>
  <outline>
    <contour>
      <point x="343" y="-84"/>
      <point x="343" y="-62" type="qcurve" smooth="yes"/>
      <point x="343" y="703" type="line" smooth="yes"/>
      <point x="343" y="725"/>
      <point x="319" y="754"/>
      <point x="281" y="754"/>
      <point x="256" y="725"/>
      <point x="256" y="703" type="qcurve" smooth="yes"/>
      <point x="256" y="-62" type="line" smooth="yes"/>
      <point x="256" y="-84"/>
      <point x="281" y="-113"/>
      <point x="319" y="-113"/>
    </contour>
  </outline>
</glyph>
<glyph name="braceright" format="1">
  <advance width="600"/>
  <unicode hex="007D"/>
  <outline>
    <contour>
      <point x="337" y="324" type="qcurve"/>
      <point x="260" y="280"/>
      <point x="269" y="157" type="qcurve" smooth="yes"/>
      <point x="268" y="138"/>
      <point x="267" y="69"/>
      <point x="264" y="35"/>
      <point x="254" y="-6"/>
      <point x="231" y="-25"/>
      <point x="211" y="-27" type="qcurve" smooth="yes"/>
      <point x="184" y="-30"/>
      <point x="159" y="-50"/>
      <point x="159" y="-70" type="qcurve" smooth="yes"/>
      <point x="159" y="-110"/>
      <point x="211" y="-110" type="qcurve" smooth="yes"/>
      <point x="343" y="-110"/>
      <point x="350" y="80" type="qcurve" smooth="yes"/>
      <point x="350" y="92"/>
      <point x="351" y="151"/>
      <point x="353" y="177"/>
      <point x="359" y="223"/>
      <point x="373" y="247"/>
      <point x="396" y="276"/>
      <point x="432" y="291"/>
      <point x="457" y="295" type="qcurve" smooth="yes"/>
      <point x="480" y="301"/>
      <point x="480" y="347"/>
      <point x="457" y="353" type="qcurve" smooth="yes"/>
      <point x="432" y="357"/>
      <point x="396" y="372"/>
      <point x="373" y="401"/>
      <point x="359" y="425"/>
      <point x="353" y="471"/>
      <point x="351" y="497"/>
      <point x="350" y="556"/>
      <point x="350" y="568" type="qcurve" smooth="yes"/>
      <point x="343" y="758"/>
      <point x="211" y="758" type="qcurve" smooth="yes"/>
      <point x="159" y="758"/>
      <point x="159" y="718" type="qcurve" smooth="yes"/>
      <point x="159" y="698"/>
      <point x="184" y="678"/>
      <point x="211" y="675" type="qcurve" smooth="yes"/>
      <point x="231" y="673"/>
      <point x="254" y="654"/>
      <point x="264" y="613"/>
      <point x="267" y="579"/>
      <point x="268" y="510"/>
      <point x="269" y="491" type="qcurve" smooth="yes"/>
      <point x="269" y="487"/>
      <point x="272" y="452"/>
      <point x="273" y="443"/>
      <point x="276" y="412"/>
      <point x="280" y="400"/>
      <point x="287" y="375"/>
      <point x="297" y="362"/>
      <point x="309" y="343"/>
      <point x="327" y="330"/>
    </contour>
  </outline>
</glyph>
<glyph name="uni007F" format="1">
  <advance width="600"/>
  <unicode hex="007F"/>
  <outline>
    <contour>
      <point x="496" y="0" type="line"/>
      <point x="103" y="0" type="line"/>
      <point x="103" y="357" type="line"/>
      <point x="300" y="589" type="line"/>
      <point x="496" y="357" type="line"/>
    </contour>
    <contour>
      <point x="17" y="-36" type="line" smooth="yes"/>
      <point x="17" y="-58"/>
      <point x="46" y="-87"/>
      <point x="68" y="-87" type="qcurve" smooth="yes"/>
      <point x="533" y="-87" type="line" smooth="yes"/>
      <point x="555" y="-87"/>
      <point x="584" y="-58"/>
      <point x="584" y="-36" type="qcurve" smooth="yes"/>
      <point x="583" y="372" type="line" smooth="yes"/>
      <point x="583" y="385"/>
      <point x="573" y="398" type="qcurve" smooth="yes"/>
      <point x="342" y="670" type="line" smooth="yes"/>
      <point x="321" y="695"/>
      <point x="279" y="695"/>
      <point x="257" y="670" type="qcurve" smooth="yes"/>
      <point x="27" y="398" type="line" smooth="yes"/>
      <point x="17" y="385"/>
      <point x="17" y="372" type="qcurve" smooth="yes"/>
    </contour>
  </outline>
</glyph>
<glyph name="exclamdown" format="1">
  <advance width="600"/>
  <unicode hex="00A1"/>
  <outline>
    <contour>
      <point x="256" y="508" type="qcurve" smooth="yes"/>
      <point x="256" y="31" type="line" smooth="yes"/>
      <point x="256" y="13"/>
      <point x="281" y="-10"/>
      <point x="299" y="-10" type="qcurve" smooth="yes"/>
      <point x="318" y="-10"/>
      <point x="342" y="14"/>
      <point x="342" y="33" type="qcurve" smooth="yes"/>
      <point x="342" y="506" type="line" smooth="yes"/>
      <point x="342" y="524"/>
      <point x="317" y="548"/>
      <point x="299" y="548" type="qcurve" smooth="yes"/>
      <point x="282" y="548"/>
      <point x="256" y="525"/>
    </contour>
    <contour>
      <point x="326" y="768"/>
      <point x="363" y="731"/>
      <point x="363" y="679"/>
      <point x="326" y="642"/>
      <point x="274" y="642"/>
      <point x="237" y="679"/>
      <point x="237" y="731"/>
      <point x="274" y="768"/>
    </contour>
  </outline>
</glyph>
<glyph name="cent" format="1">
  <advance width="600"/>
  <unicode hex="00A2"/>
  <outline>
    <contour>
      <point x="358" y="-68" type="line" smooth="yes"/>
      <point x="358" y="-85"/>
      <point x="333" y="-108"/>
      <point x="315" y="-108" type="qcurve" smooth="yes"/>
      <point x="296" y="-108"/>
      <point x="272" y="-84"/>
      <point x="272" y="-66" type="qcurve" smooth="yes"/>
      <point x="272" y="-6" type="line"/>
      <point x="191" y="10"/>
      <point x="84" y="141"/>
      <point x="84" y="237" type="qcurve" smooth="yes"/>
      <point x="84" y="335"/>
      <point x="188" y="467"/>
      <point x="272" y="481" type="qcurve"/>
      <point x="272" y="555" type="line" smooth="yes"/>
      <point x="272" y="573"/>
      <point x="298" y="598"/>
      <point x="315" y="598" type="qcurve" smooth="yes"/>
      <point x="331" y="598"/>
      <point x="358" y="575"/>
      <point x="358" y="558" type="qcurve" smooth="yes"/>
      <point x="358" y="480" type="line"/>
      <point x="448" y="467"/>
      <point x="479" y="409" type="qcurve" smooth="yes"/>
      <point x="493" y="379"/>
      <point x="488" y="342"/>
      <point x="472" y="335" type="qcurve" smooth="yes"/>
      <point x="462" y="328"/>
      <point x="425" y="337"/>
      <point x="417" y="355" type="qcurve" smooth="yes"/>
      <point x="402" y="389"/>
      <point x="358" y="399" type="qcurve"/>
      <point x="358" y="72" type="line"/>
      <point x="409" y="79"/>
      <point x="437" y="109" type="qcurve" smooth="yes"/>
      <point x="472" y="150"/>
      <point x="506" y="129" type="qcurve" smooth="yes"/>
      <point x="542" y="107"/>
      <point x="507" y="62" type="qcurve" smooth="yes"/>
      <point x="461" y="1"/>
      <point x="358" y="-9" type="qcurve"/>
    </contour>
    <contour>
      <point x="169" y="237" type="qcurve" smooth="yes"/>
      <point x="169" y="176"/>
      <point x="227" y="91"/>
      <point x="272" y="76" type="qcurve"/>
      <point x="272" y="399" type="line"/>
      <point x="225" y="386"/>
      <point x="169" y="301"/>
    </contour>
  </outline>
</glyph>
<glyph name="sterling" format="1">
  <advance width="600"/>
  <unicode hex="00A3"/>
  <outline>
    <contour>
      <point x="155" y="-5" type="qcurve" smooth="yes"/>
      <point x="109" y="-5"/>
      <point x="42" y="58"/>
      <point x="42" y="100" type="qcurve" smooth="yes"/>
      <point x="42" y="145"/>
      <point x="100" y="205"/>
      <point x="147" y="205" type="qcurve" smooth="yes"/>
      <point x="187" y="205"/>
      <point x="219" y="185" type="qcurve"/>
      <point x="219" y="224"/>
      <point x="206" y="293" type="qcurve"/>
      <point x="159" y="293" type="line" smooth="yes"/>
      <point x="140" y="293"/>
      <point x="116" y="317"/>
      <point x="116" y="333" type="qcurve" smooth="yes"/>
      <point x="116" y="350"/>
      <point x="142" y="373"/>
      <point x="161" y="373" type="qcurve" smooth="yes"/>
      <point x="191" y="373" type="line"/>
      <point x="181" y="436"/>
      <point x="181" y="498" type="qcurve" smooth="yes"/>
      <point x="181" y="667"/>
      <point x="339" y="667" type="qcurve" smooth="yes"/>
      <point x="437" y="667"/>
      <point x="498" y="603" type="qcurve" smooth="yes"/>
      <point x="516" y="584"/>
      <point x="520" y="555"/>
      <point x="507" y="539" type="qcurve" smooth="yes"/>
      <point x="481" y="507"/>
      <point x="440" y="541" type="qcurve" smooth="yes"/>
      <point x="394" y="581"/>
      <point x="343" y="581" type="qcurve" smooth="yes"/>
      <point x="308" y="581"/>
      <point x="269" y="536"/>
      <point x="269" y="499" type="qcurve" smooth="yes"/>
      <point x="269" y="445"/>
      <point x="281" y="373" type="qcurve"/>
      <point x="382" y="373" type="line" smooth="yes"/>
      <point x="401" y="373"/>
      <point x="425" y="349"/>
      <point x="425" y="333" type="qcurve" smooth="yes"/>
      <point x="425" y="318"/>
      <point x="403" y="293"/>
      <point x="385" y="293" type="qcurve" smooth="yes"/>
      <point x="294" y="293" type="line"/>
      <point x="306" y="216"/>
      <point x="303" y="151" type="qcurve" smooth="yes"/>
      <point x="304" y="150"/>
      <point x="321" y="135"/>
      <point x="333" y="126"/>
      <point x="354" y="110"/>
      <point x="372" y="99"/>
      <point x="394" y="88"/>
      <point x="415" y="82"/>
      <point x="425" y="82" type="qcurve" smooth="yes"/>
      <point x="467" y="82"/>
      <point x="517" y="116" type="qcurve" smooth="yes"/>
      <point x="556" y="143"/>
      <point x="573" y="102" type="qcurve" smooth="yes"/>
      <point x="586" y="70"/>
      <point x="555" y="47" type="qcurve" smooth="yes"/>
      <point x="490" y="-2"/>
      <point x="425" y="-2" type="qcurve" smooth="yes"/>
      <point x="354" y="-2"/>
      <point x="279" y="70" type="qcurve"/>
      <point x="255" y="34"/>
      <point x="199" y="-5"/>
    </contour>
    <contour>
      <point x="154" y="74" type="qcurve" smooth="yes"/>
      <point x="182" y="74"/>
      <point x="197" y="113" type="qcurve"/>
      <point x="171" y="133"/>
      <point x="154" y="133" type="qcurve" smooth="yes"/>
      <point x="121" y="133"/>
      <point x="121" y="103" type="qcurve" smooth="yes"/>
      <point x="121" y="90"/>
      <point x="140" y="74"/>
    </contour>
  </outline>
</glyph>
<glyph name="currency" format="1">
  <advance width="600"/>
  <unicode hex="00A4"/>
  <outline>
    <contour>
      <point x="75" y="494" type="line" smooth="yes"/>
      <point x="63" y="506"/>
      <point x="64" y="544"/>
      <point x="86" y="566"/>
      <point x="121" y="568"/>
      <point x="134" y="557" type="qcurve" smooth="yes"/>
      <point x="221" y="470" type="line"/>
      <point x="259" y="492"/>
      <point x="301" y="492" type="qcurve" smooth="yes"/>
      <point x="345" y="492"/>
      <point x="381" y="471" type="qcurve"/>
      <point x="467" y="557" type="line" smooth="yes"/>
      <point x="479" y="569"/>
      <point x="514" y="567"/>
      <point x="538" y="543"/>
      <point x="538" y="506"/>
      <point x="526" y="494" type="qcurve" smooth="yes"/>
      <point x="441" y="409" type="line"/>
      <point x="462" y="373"/>
      <point x="462" y="331" type="qcurve" smooth="yes"/>
      <point x="462" y="287"/>
      <point x="441" y="250" type="qcurve"/>
      <point x="527" y="164" type="line" smooth="yes"/>
      <point x="539" y="152"/>
      <point x="537" y="117"/>
      <point x="525" y="105" type="qcurve" smooth="yes"/>
      <point x="512" y="92"/>
      <point x="476" y="92"/>
      <point x="465" y="104" type="qcurve" smooth="yes"/>
      <point x="379" y="190" type="line"/>
      <point x="342" y="170"/>
      <point x="301" y="170" type="qcurve" smooth="yes"/>
      <point x="259" y="170"/>
      <point x="223" y="191" type="qcurve"/>
      <point x="136" y="104" type="line" smooth="yes"/>
      <point x="124" y="92"/>
      <point x="90" y="92"/>
      <point x="76" y="105" type="qcurve" smooth="yes"/>
      <point x="63" y="118"/>
      <point x="63" y="153"/>
      <point x="74" y="164" type="qcurve" smooth="yes"/>
      <point x="161" y="251" type="line"/>
      <point x="140" y="287"/>
      <point x="140" y="331" type="qcurve" smooth="yes"/>
      <point x="140" y="374"/>
      <point x="160" y="409" type="qcurve"/>
    </contour>
    <contour>
      <point x="301" y="243" type="qcurve" smooth="yes"/>
      <point x="338" y="243"/>
      <point x="389" y="295"/>
      <point x="389" y="367"/>
      <point x="338" y="418"/>
      <point x="301" y="418" type="qcurve" smooth="yes"/>
      <point x="265" y="418"/>
      <point x="214" y="367"/>
      <point x="214" y="295"/>
      <point x="265" y="243"/>
    </contour>
  </outline>
</glyph>
<glyph name="yen" format="1">
  <advance width="600"/>
  <unicode hex="00A5"/>
  <outline>
    <contour>
      <point x="149" y="73" type="line" smooth="yes"/>
      <point x="130" y="73"/>
      <point x="106" y="97"/>
      <point x="106" y="113" type="qcurve" smooth="yes"/>
      <point x="106" y="130"/>
      <point x="132" y="153"/>
      <point x="151" y="153" type="qcurve" smooth="yes"/>
      <point x="254" y="153" type="line"/>
      <point x="254" y="193" type="line"/>
      <point x="149" y="193" type="line" smooth="yes"/>
      <point x="130" y="193"/>
      <point x="106" y="217"/>
      <point x="106" y="233" type="qcurve" smooth="yes"/>
      <point x="106" y="250"/>
      <point x="132" y="273"/>
      <point x="151" y="273" type="qcurve" smooth="yes"/>
      <point x="239" y="273" type="line"/>
      <point x="83" y="580" type="line" smooth="yes"/>
      <point x="58" y="629"/>
      <point x="106" y="648" type="qcurve" smooth="yes"/>
      <point x="126" y="654"/>
      <point x="153" y="640"/>
      <point x="167" y="611" type="qcurve" smooth="yes"/>
      <point x="297" y="337" type="line"/>
      <point x="427" y="611" type="line" smooth="yes"/>
      <point x="441" y="640"/>
      <point x="468" y="654"/>
      <point x="488" y="648" type="qcurve" smooth="yes"/>
      <point x="536" y="629"/>
      <point x="511" y="580" type="qcurve" smooth="yes"/>
      <point x="355" y="273" type="line"/>
      <point x="442" y="273" type="line" smooth="yes"/>
      <point x="461" y="273"/>
      <point x="485" y="249"/>
      <point x="485" y="233" type="qcurve" smooth="yes"/>
      <point x="485" y="218"/>
      <point x="463" y="193"/>
      <point x="445" y="193" type="qcurve" smooth="yes"/>
      <point x="341" y="193" type="line"/>
      <point x="341" y="153" type="line"/>
      <point x="442" y="153" type="line" smooth="yes"/>
      <point x="461" y="153"/>
      <point x="485" y="129"/>
      <point x="485" y="113" type="qcurve" smooth="yes"/>
      <point x="485" y="98"/>
      <point x="463" y="73"/>
      <point x="445" y="73" type="qcurve" smooth="yes"/>
      <point x="341" y="73" type="line"/>
      <point x="341" y="52" type="line" smooth="yes"/>
      <point x="341" y="0"/>
      <point x="297" y="0" type="qcurve" smooth="yes"/>
      <point x="254" y="0"/>
      <point x="254" y="52" type="qcurve" smooth="yes"/>
      <point x="254" y="73" type="line"/>
    </contour>
  </outline>
</glyph>
<glyph name="brokenbar" format="1">
  <advance width="600"/>
  <unicode hex="00A6"/>
  <outline>
    <contour>
      <point x="343" y="499" type="line" smooth="yes"/>
      <point x="343" y="482"/>
      <point x="318" y="459"/>
      <point x="282" y="459"/>
      <point x="257" y="484"/>
      <point x="257" y="501" type="qcurve" smooth="yes"/>
      <point x="257" y="712" type="line" smooth="yes"/>
      <point x="257" y="730"/>
      <point x="283" y="755"/>
      <point x="300" y="755" type="qcurve" smooth="yes"/>
      <point x="316" y="755"/>
      <point x="343" y="732"/>
      <point x="343" y="715" type="qcurve" smooth="yes"/>
    </contour>
    <contour>
      <point x="343" y="-75" type="line" smooth="yes"/>
      <point x="343" y="-92"/>
      <point x="318" y="-115"/>
      <point x="282" y="-115"/>
      <point x="257" y="-90"/>
      <point x="257" y="-73" type="qcurve" smooth="yes"/>
      <point x="257" y="148" type="line" smooth="yes"/>
      <point x="257" y="166"/>
      <point x="283" y="191"/>
      <point x="300" y="191" type="qcurve" smooth="yes"/>
      <point x="316" y="191"/>
      <point x="343" y="168"/>
      <point x="343" y="151" type="qcurve" smooth="yes"/>
    </contour>
  </outline>
</glyph>
<glyph name="section" format="1">
  <advance width="600"/>
  <unicode hex="00A7"/>
  <outline>
    <contour>
      <point x="65" y="116" type="qcurve" smooth="yes"/>
      <point x="47" y="176"/>
      <point x="78" y="190" type="qcurve" smooth="yes"/>
      <point x="101" y="200"/>
      <point x="130" y="186"/>
      <point x="135" y="167" type="qcurve" smooth="yes"/>
      <point x="151" y="96"/>
      <point x="230" y="46"/>
      <point x="291" y="46" type="qcurve" smooth="yes"/>
      <point x="335" y="46"/>
      <point x="414" y="83"/>
      <point x="414" y="124" type="qcurve" smooth="yes"/>
      <point x="414" y="151"/>
      <point x="368" y="194"/>
      <point x="327" y="212"/>
      <point x="280" y="228" type="qcurve" smooth="yes"/>
      <point x="273" y="231"/>
      <point x="269" y="232" type="qcurve" smooth="yes"/>
      <point x="177" y="263"/>
      <point x="95" y="343"/>
      <point x="95" y="402" type="qcurve" smooth="yes"/>
      <point x="95" y="464"/>
      <point x="137" y="511" type="qcurve"/>
      <point x="117" y="540"/>
      <point x="117" y="582" type="qcurve" smooth="yes"/>
      <point x="117" y="649"/>
      <point x="213" y="740"/>
      <point x="283" y="740" type="qcurve" smooth="yes"/>
      <point x="386" y="740"/>
      <point x="457" y="680" type="qcurve" smooth="yes"/>
      <point x="491" y="652"/>
      <point x="479" y="627" type="qcurve" smooth="yes"/>
      <point x="469" y="607"/>
      <point x="437" y="596"/>
      <point x="419" y="611" type="qcurve" smooth="yes"/>
      <point x="363" y="662"/>
      <point x="290" y="662" type="qcurve" smooth="yes"/>
      <point x="252" y="662"/>
      <point x="207" y="617"/>
      <point x="207" y="584" type="qcurve" smooth="yes"/>
      <point x="207" y="570"/>
      <point x="214" y="550"/>
      <point x="223" y="536"/>
      <point x="249" y="521"/>
      <point x="266" y="512"/>
      <point x="312" y="492"/>
      <point x="327" y="485" type="qcurve" smooth="yes"/>
      <point x="417" y="443"/>
      <point x="500" y="356"/>
      <point x="500" y="303" type="qcurve" smooth="yes"/>
      <point x="500" y="252"/>
      <point x="450" y="224" type="qcurve"/>
      <point x="451" y="223" type="line" smooth="yes"/>
      <point x="500" y="179"/>
      <point x="500" y="123" type="qcurve" smooth="yes"/>
      <point x="500" y="55"/>
      <point x="371" y="-28"/>
      <point x="289" y="-28" type="qcurve" smooth="yes"/>
      <point x="107" y="-28"/>
    </contour>
    <contour>
      <point x="177" y="404" type="qcurve" smooth="yes"/>
      <point x="177" y="366"/>
      <point x="226" y="330"/>
      <point x="297" y="305" type="qcurve" smooth="yes"/>
      <point x="365" y="281"/>
      <point x="411" y="252" type="qcurve"/>
      <point x="424" y="273"/>
      <point x="424" y="294" type="qcurve" smooth="yes"/>
      <point x="424" y="307"/>
      <point x="414" y="331"/>
      <point x="391" y="353"/>
      <point x="371" y="369"/>
      <point x="335" y="389"/>
      <point x="314" y="400"/>
      <point x="273" y="419"/>
      <point x="266" y="422" type="qcurve" smooth="yes"/>
      <point x="226" y="441"/>
      <point x="198" y="458" type="qcurve"/>
      <point x="177" y="437"/>
    </contour>
  </outline>
</glyph>
<glyph name="copyright" format="1">
  <advance width="600"/>
  <unicode hex="00A9"/>
  <outline>
    <contour>
      <point x="307" y="156" type="qcurve" smooth="yes"/>
      <point x="236" y="156"/>
      <point x="145" y="250"/>
      <point x="145" y="404"/>
      <point x="234" y="500"/>
      <point x="302" y="500" type="qcurve" smooth="yes"/>
      <point x="337" y="500"/>
      <point x="394" y="470"/>
      <point x="406" y="447" type="qcurve" smooth="yes"/>
      <point x="426" y="406"/>
      <point x="400" y="397" type="qcurve" smooth="yes"/>
      <point x="394" y="391"/>
      <point x="368" y="397"/>
      <point x="363" y="410" type="qcurve" smooth="yes"/>
      <point x="348" y="443"/>
      <point x="302" y="443" type="qcurve" smooth="yes"/>
      <point x="258" y="443"/>
      <point x="204" y="381"/>
      <point x="204" y="273"/>
      <point x="259" y="211"/>
      <point x="305" y="211" type="qcurve" smooth="yes"/>
      <point x="350" y="211"/>
      <point x="375" y="238" type="qcurve" smooth="yes"/>
      <point x="402" y="267"/>
      <point x="425" y="253" type="qcurve" smooth="yes"/>
      <point x="449" y="237"/>
      <point x="426" y="206" type="qcurve" smooth="yes"/>
      <point x="384" y="156"/>
    </contour>
    <contour>
      <point x="299" y="36" type="qcurve" smooth="yes"/>
      <point x="181" y="36"/>
      <point x="13" y="200"/>
      <point x="13" y="323" type="qcurve" smooth="yes"/>
      <point x="13" y="449"/>
      <point x="182" y="614"/>
      <point x="299" y="614" type="qcurve" smooth="yes"/>
      <point x="419" y="614"/>
      <point x="587" y="446"/>
      <point x="587" y="327" type="qcurve" smooth="yes"/>
      <point x="587" y="202"/>
      <point x="423" y="36"/>
    </contour>
    <contour>
      <point x="299" y="108" type="qcurve" smooth="yes"/>
      <point x="391" y="108"/>
      <point x="515" y="233"/>
      <point x="515" y="327" type="qcurve" smooth="yes"/>
      <point x="515" y="416"/>
      <point x="388" y="542"/>
      <point x="299" y="542" type="qcurve" smooth="yes"/>
      <point x="211" y="542"/>
      <point x="85" y="418"/>
      <point x="85" y="323" type="qcurve" smooth="yes"/>
      <point x="85" y="232"/>
      <point x="211" y="108"/>
    </contour>
  </outline>
</glyph>
<glyph name="ordfeminine" format="1">
  <advance width="600"/>
  <unicode hex="00AA"/>
  <outline>
    <contour>
      <point x="396" y="705" type="line" smooth="yes"/>
      <point x="396" y="754"/>
      <point x="435" y="754" type="qcurve" smooth="yes"/>
      <point x="476" y="754"/>
      <point x="476" y="705" type="qcurve" smooth="yes"/>
      <point x="476" y="452" type="line" smooth="yes"/>
      <point x="476" y="402"/>
      <point x="435" y="402" type="qcurve" smooth="yes"/>
      <point x="396" y="402"/>
      <point x="396" y="452" type="qcurve" smooth="yes"/>
      <point x="396" y="461" type="line"/>
      <point x="360" y="396"/>
      <point x="277" y="396" type="qcurve" smooth="yes"/>
      <point x="214" y="396"/>
      <point x="123" y="498"/>
      <point x="123" y="571" type="qcurve" smooth="yes"/>
      <point x="123" y="649"/>
      <point x="213" y="753"/>
      <point x="277" y="753" type="qcurve" smooth="yes"/>
      <point x="360" y="753"/>
      <point x="396" y="688" type="qcurve"/>
    </contour>
    <contour>
      <point x="201" y="571" type="qcurve" smooth="yes"/>
      <point x="201" y="522"/>
      <point x="254" y="470"/>
      <point x="332" y="470"/>
      <point x="385" y="514"/>
      <point x="396" y="554" type="qcurve"/>
      <point x="396" y="595" type="line"/>
      <point x="385" y="635"/>
      <point x="332" y="679"/>
      <point x="254" y="679"/>
      <point x="201" y="625"/>
    </contour>
  </outline>
</glyph>
<glyph name="guillemotleft" format="1">
  <advance width="600"/>
  <unicode hex="00AB"/>
  <outline>
    <contour>
      <point x="296" y="139" type="line" smooth="yes"/>
      <point x="326" y="113"/>
      <point x="309" y="82" type="qcurve" smooth="yes"/>
      <point x="299" y="66"/>
      <point x="265" y="55"/>
      <point x="250" y="66" type="qcurve" smooth="yes"/>
      <point x="66" y="222" type="line" smooth="yes"/>
      <point x="46" y="239"/>
      <point x="47" y="287"/>
      <point x="67" y="304" type="qcurve" smooth="yes"/>
      <point x="253" y="462" type="line" smooth="yes"/>
      <point x="268" y="473"/>
      <point x="299" y="461"/>
      <point x="309" y="445" type="qcurve" smooth="yes"/>
      <point x="326" y="413"/>
      <point x="294" y="386" type="qcurve" smooth="yes"/>
      <point x="149" y="263" type="line"/>
    </contour>
    <contour>
      <point x="536" y="139" type="line" smooth="yes"/>
      <point x="566" y="113"/>
      <point x="549" y="82" type="qcurve" smooth="yes"/>
      <point x="539" y="66"/>
      <point x="505" y="55"/>
      <point x="490" y="66" type="qcurve" smooth="yes"/>
      <point x="306" y="222" type="line" smooth="yes"/>
      <point x="286" y="239"/>
      <point x="287" y="287"/>
      <point x="307" y="304" type="qcurve" smooth="yes"/>
      <point x="493" y="462" type="line" smooth="yes"/>
      <point x="508" y="473"/>
      <point x="539" y="461"/>
      <point x="549" y="445" type="qcurve" smooth="yes"/>
      <point x="566" y="413"/>
      <point x="534" y="386" type="qcurve" smooth="yes"/>
      <point x="389" y="263" type="line"/>
    </contour>
  </outline>
</glyph>
<glyph name="logicalnot" format="1">
  <advance width="600"/>
  <unicode hex="00AC"/>
  <outline>
    <contour>
      <point x="445" y="361" type="line" smooth="yes"/>
      <point x="467" y="361"/>
      <point x="496" y="332"/>
      <point x="496" y="310" type="qcurve" smooth="yes"/>
      <point x="496" y="139" type="line" smooth="yes"/>
      <point x="496" y="122"/>
      <point x="471" y="99"/>
      <point x="453" y="99" type="qcurve" smooth="yes"/>
      <point x="434" y="99"/>
      <point x="410" y="124"/>
      <point x="410" y="141" type="qcurve" smooth="yes"/>
      <point x="410" y="275" type="line"/>
      <point x="133" y="275" type="line" smooth="yes"/>
      <point x="115" y="275"/>
      <point x="90" y="301"/>
      <point x="90" y="318" type="qcurve" smooth="yes"/>
      <point x="90" y="334"/>
      <point x="113" y="361"/>
      <point x="130" y="361" type="qcurve" smooth="yes"/>
    </contour>
  </outline>
</glyph>
<glyph name="uni00AD" format="1">
  <advance width="600"/>
  <unicode hex="00AD"/>
  <outline>
    <contour>
      <point x="463" y="365" type="line" smooth="yes"/>
      <point x="480" y="365"/>
      <point x="503" y="340"/>
      <point x="503" y="304"/>
      <point x="478" y="279"/>
      <point x="461" y="279" type="qcurve" smooth="yes"/>
      <point x="140" y="279" type="line" smooth="yes"/>
      <point x="122" y="279"/>
      <point x="97" y="305"/>
      <point x="97" y="322" type="qcurve" smooth="yes"/>
      <point x="97" y="338"/>
      <point x="120" y="365"/>
      <point x="137" y="365" type="qcurve" smooth="yes"/>
    </contour>
  </outline>
</glyph>
<glyph name="registered" format="1">
  <advance width="600"/>
  <unicode hex="00AE"/>
  <outline>
    <contour>
      <point x="191" y="455" type="line" smooth="yes"/>
      <point x="191" y="491"/>
      <point x="227" y="491" type="qcurve" smooth="yes"/>
      <point x="301" y="491" type="line" smooth="yes"/>
      <point x="416" y="491"/>
      <point x="416" y="401" type="qcurve" smooth="yes"/>
      <point x="416" y="338"/>
      <point x="347" y="321" type="qcurve"/>
      <point x="349" y="317"/>
      <point x="359" y="297"/>
      <point x="364" y="287"/>
      <point x="373" y="269"/>
      <point x="379" y="259"/>
      <point x="388" y="245"/>
      <point x="394" y="237"/>
      <point x="401" y="229"/>
      <point x="408" y="226"/>
      <point x="411" y="226" type="qcurve" smooth="yes"/>
      <point x="437" y="226"/>
      <point x="437" y="201" type="qcurve" smooth="yes"/>
      <point x="437" y="178"/>
      <point x="401" y="178" type="qcurve" smooth="yes"/>
      <point x="354" y="178"/>
      <point x="296" y="316" type="qcurve"/>
      <point x="245" y="316" type="line"/>
      <point x="245" y="212" type="line" smooth="yes"/>
      <point x="245" y="179"/>
      <point x="217" y="179" type="qcurve" smooth="yes"/>
      <point x="191" y="179"/>
      <point x="191" y="212" type="qcurve" smooth="yes"/>
    </contour>
    <contour>
      <point x="303" y="364" type="line" smooth="yes"/>
      <point x="365" y="364"/>
      <point x="365" y="402" type="qcurve" smooth="yes"/>
      <point x="365" y="423"/>
      <point x="340" y="444"/>
      <point x="303" y="444" type="qcurve" smooth="yes"/>
      <point x="245" y="444" type="line"/>
      <point x="245" y="364" type="line"/>
    </contour>
    <contour>
      <point x="299" y="36" type="qcurve" smooth="yes"/>
      <point x="181" y="36"/>
      <point x="13" y="200"/>
      <point x="13" y="323" type="qcurve" smooth="yes"/>
      <point x="13" y="449"/>
      <point x="182" y="614"/>
      <point x="299" y="614" type="qcurve" smooth="yes"/>
      <point x="419" y="614"/>
      <point x="587" y="446"/>
      <point x="587" y="327" type="qcurve" smooth="yes"/>
      <point x="587" y="202"/>
      <point x="423" y="36"/>
    </contour>
    <contour>
      <point x="299" y="108" type="qcurve" smooth="yes"/>
      <point x="391" y="108"/>
      <point x="515" y="233"/>
      <point x="515" y="327" type="qcurve" smooth="yes"/>
      <point x="515" y="416"/>
      <point x="388" y="542"/>
      <point x="299" y="542" type="qcurve" smooth="yes"/>
      <point x="211" y="542"/>
      <point x="85" y="418"/>
      <point x="85" y="323" type="qcurve" smooth="yes"/>
      <point x="85" y="232"/>
      <point x="211" y="108"/>
    </contour>
  </outline>
</glyph>
<glyph name="macron" format="1">
  <advance width="600"/>
  <unicode hex="00AF"/>
  <outline>
    <contour>
      <point x="478" y="650" type="line" smooth="yes"/>
      <point x="494" y="650"/>
      <point x="516" y="626"/>
      <point x="516" y="609" type="qcurve" smooth="yes"/>
      <point x="516" y="591"/>
      <point x="493" y="568"/>
      <point x="476" y="568" type="qcurve" smooth="yes"/>
      <point x="125" y="568" type="line" smooth="yes"/>
      <point x="107" y="568"/>
      <point x="84" y="592"/>
      <point x="84" y="609" type="qcurve" smooth="yes"/>
      <point x="84" y="625"/>
      <point x="106" y="650"/>
      <point x="122" y="650" type="qcurve" smooth="yes"/>
    </contour>
  </outline>
</glyph>
<glyph name="degree" format="1">
  <advance width="600"/>
  <unicode hex="00B0"/>
  <outline>
    <contour>
      <point x="226" y="318"/>
      <point x="120" y="424"/>
      <point x="120" y="572"/>
      <point x="226" y="678"/>
      <point x="374" y="678"/>
      <point x="480" y="572"/>
      <point x="480" y="424"/>
      <point x="374" y="318"/>
    </contour>
    <contour>
      <point x="340" y="400"/>
      <point x="398" y="458"/>
      <point x="398" y="538"/>
      <point x="340" y="596"/>
      <point x="260" y="596"/>
      <point x="202" y="538"/>
      <point x="202" y="458"/>
      <point x="260" y="400"/>
    </contour>
  </outline>
</glyph>
<glyph name="plusminus" format="1">
  <advance width="600"/>
  <unicode hex="00B1"/>
  <outline>
    <contour>
      <point x="448" y="53" type="line" smooth="yes"/>
      <point x="465" y="53"/>
      <point x="488" y="28"/>
      <point x="488" y="-8"/>
      <point x="464" y="-33"/>
      <point x="446" y="-33" type="qcurve" smooth="yes"/>
      <point x="155" y="-33" type="line" smooth="yes"/>
      <point x="137" y="-33"/>
      <point x="112" y="-7"/>
      <point x="112" y="10" type="qcurve" smooth="yes"/>
      <point x="112" y="26"/>
      <point x="135" y="53"/>
      <point x="152" y="53" type="qcurve" smooth="yes"/>
    </contour>
    <contour>
      <point x="142" y="374" type="qcurve" smooth="yes"/>
      <point x="257" y="374" type="line"/>
      <point x="257" y="486" type="line" smooth="yes"/>
      <point x="257" y="504"/>
      <point x="283" y="529"/>
      <point x="300" y="529" type="qcurve" smooth="yes"/>
      <point x="316" y="529"/>
      <point x="343" y="506"/>
      <point x="343" y="489" type="qcurve" smooth="yes"/>
      <point x="343" y="374" type="line"/>
      <point x="458" y="374" type="line" smooth="yes"/>
      <point x="475" y="374"/>
      <point x="498" y="349"/>
      <point x="498" y="331" type="qcurve" smooth="yes"/>
      <point x="498" y="312"/>
      <point x="474" y="288"/>
      <point x="456" y="288" type="qcurve" smooth="yes"/>
      <point x="343" y="288" type="line"/>
      <point x="343" y="173" type="line" smooth="yes"/>
      <point x="343" y="156"/>
      <point x="318" y="133"/>
      <point x="282" y="133"/>
      <point x="257" y="158"/>
      <point x="257" y="175" type="qcurve" smooth="yes"/>
      <point x="257" y="288" type="line"/>
      <point x="145" y="288" type="line" smooth="yes"/>
      <point x="127" y="288"/>
      <point x="102" y="314"/>
      <point x="102" y="331" type="qcurve" smooth="yes"/>
      <point x="102" y="347"/>
      <point x="125" y="374"/>
    </contour>
  </outline>
</glyph>
<glyph name="uni00B2" format="1">
  <advance width="600"/>
  <unicode hex="00B2"/>
  <outline>
    <contour>
      <point x="178" y="591" type="qcurve" smooth="yes"/>
      <point x="178" y="639"/>
      <point x="245" y="691"/>
      <point x="292" y="691" type="qcurve" smooth="yes"/>
      <point x="349" y="691"/>
      <point x="410" y="631"/>
      <point x="410" y="523"/>
      <point x="341" y="444" type="qcurve" smooth="yes"/>
      <point x="256" y="348" type="line"/>
      <point x="390" y="348" type="line" smooth="yes"/>
      <point x="401" y="348"/>
      <point x="417" y="332"/>
      <point x="417" y="319" type="qcurve" smooth="yes"/>
      <point x="417" y="305"/>
      <point x="401" y="289"/>
      <point x="389" y="289" type="qcurve" smooth="yes"/>
      <point x="217" y="289" type="line" smooth="yes"/>
      <point x="173" y="289"/>
      <point x="173" y="321" type="qcurve" smooth="yes"/>
      <point x="173" y="340"/>
      <point x="204" y="376" type="qcurve" smooth="yes"/>
      <point x="287" y="471" type="line" smooth="yes"/>
      <point x="347" y="539"/>
      <point x="347" y="573" type="qcurve" smooth="yes"/>
      <point x="347" y="634"/>
      <point x="289" y="634" type="qcurve" smooth="yes"/>
      <point x="240" y="634"/>
      <point x="240" y="587" type="qcurve" smooth="yes"/>
      <point x="240" y="557"/>
      <point x="208" y="557" type="qcurve" smooth="yes"/>
      <point x="178" y="557"/>
    </contour>
  </outline>
</glyph>
<glyph name="uni00B3" format="1">
  <advance width="600"/>
  <unicode hex="00B3"/>
  <outline>
    <contour>
      <point x="254" y="527" type="qcurve" smooth="yes"/>
      <point x="287" y="531"/>
      <point x="320" y="571"/>
      <point x="320" y="598" type="qcurve" smooth="yes"/>
      <point x="320" y="638"/>
      <point x="273" y="638" type="qcurve" smooth="yes"/>
      <point x="241" y="638"/>
      <point x="211" y="615" type="qcurve" smooth="yes"/>
      <point x="186" y="596"/>
      <point x="169" y="614" type="qcurve" smooth="yes"/>
      <point x="148" y="634"/>
      <point x="168" y="654" type="qcurve" smooth="yes"/>
      <point x="205" y="693"/>
      <point x="269" y="693" type="qcurve" smooth="yes"/>
      <point x="321" y="693"/>
      <point x="381" y="642"/>
      <point x="381" y="598" type="qcurve" smooth="yes"/>
      <point x="381" y="527"/>
      <point x="316" y="505" type="qcurve"/>
      <point x="393" y="483"/>
      <point x="393" y="396" type="qcurve" smooth="yes"/>
      <point x="393" y="346"/>
      <point x="320" y="288"/>
      <point x="270" y="288" type="qcurve" smooth="yes"/>
      <point x="202" y="288"/>
      <point x="159" y="331" type="qcurve" smooth="yes"/>
      <point x="149" y="342"/>
      <point x="151" y="367"/>
      <point x="161" y="377" type="qcurve" smooth="yes"/>
      <point x="176" y="392"/>
      <point x="200" y="372" type="qcurve" smooth="yes"/>
      <point x="228" y="347"/>
      <point x="274" y="347" type="qcurve" smooth="yes"/>
      <point x="292" y="347"/>
      <point x="331" y="375"/>
      <point x="331" y="402" type="qcurve" smooth="yes"/>
      <point x="331" y="465"/>
      <point x="254" y="475" type="qcurve" smooth="yes"/>
      <point x="229" y="478"/>
      <point x="229" y="524"/>
    </contour>
  </outline>
</glyph>
<glyph name="acute" format="1">
  <advance width="600"/>
  <unicode hex="00B4"/>
  <outline>
    <contour>
      <point x="344" y="738" type="line" smooth="yes"/>
      <point x="356" y="750"/>
      <point x="390" y="748"/>
      <point x="402" y="736" type="qcurve" smooth="yes"/>
      <point x="415" y="723"/>
      <point x="415" y="688"/>
      <point x="403" y="676" type="qcurve" smooth="yes"/>
      <point x="261" y="534" type="line" smooth="yes"/>
      <point x="249" y="522"/>
      <point x="213" y="522"/>
      <point x="201" y="534" type="qcurve" smooth="yes"/>
      <point x="190" y="545"/>
      <point x="188" y="580"/>
      <point x="199" y="593" type="qcurve" smooth="yes"/>
    </contour>
  </outline>
</glyph>
<glyph name="paragraph" format="1">
  <advance width="600"/>
  <unicode hex="00B6"/>
  <outline>
    <contour>
      <point x="21" y="483" type="qcurve" smooth="yes"/>
      <point x="21" y="584"/>
      <point x="144" y="672"/>
      <point x="260" y="672" type="qcurve" smooth="yes"/>
      <point x="546" y="672" type="line" smooth="yes"/>
      <point x="563" y="672"/>
      <point x="586" y="647"/>
      <point x="586" y="629" type="qcurve" smooth="yes"/>
      <point x="586" y="610"/>
      <point x="562" y="586"/>
      <point x="544" y="586" type="qcurve" smooth="yes"/>
      <point x="519" y="586" type="line"/>
      <point x="519" y="-55" type="line" smooth="yes"/>
      <point x="519" y="-71"/>
      <point x="495" y="-93"/>
      <point x="478" y="-93" type="qcurve" smooth="yes"/>
      <point x="460" y="-93"/>
      <point x="436" y="-69"/>
      <point x="436" y="-53" type="qcurve" smooth="yes"/>
      <point x="436" y="586" type="line"/>
      <point x="366" y="586" type="line"/>
      <point x="366" y="-55" type="line" smooth="yes"/>
      <point x="366" y="-71"/>
      <point x="342" y="-93"/>
      <point x="325" y="-93" type="qcurve" smooth="yes"/>
      <point x="307" y="-93"/>
      <point x="283" y="-69"/>
      <point x="283" y="-53" type="qcurve" smooth="yes"/>
      <point x="283" y="280" type="line"/>
      <point x="155" y="281"/>
      <point x="21" y="386"/>
    </contour>
    <contour>
      <point x="107" y="481" type="qcurve" smooth="yes"/>
      <point x="107" y="368"/>
      <point x="283" y="366" type="qcurve"/>
      <point x="283" y="586" type="line"/>
      <point x="263" y="586" type="line" smooth="yes"/>
      <point x="172" y="586"/>
      <point x="107" y="530"/>
    </contour>
  </outline>
</glyph>
<glyph name="periodcentered" format="1">
  <advance width="600"/>
  <unicode hex="00B7"/>
  <outline>
    <contour>
      <point x="250" y="315" type="qcurve" smooth="yes"/>
      <point x="250" y="294"/>
      <point x="279" y="266"/>
      <point x="321" y="266"/>
      <point x="350" y="294"/>
      <point x="350" y="315" type="qcurve" smooth="yes"/>
      <point x="350" y="335"/>
      <point x="321" y="364"/>
      <point x="300" y="364" type="qcurve" smooth="yes"/>
      <point x="280" y="364"/>
      <point x="250" y="335"/>
    </contour>
  </outline>
</glyph>
<glyph name="cedilla" format="1">
  <advance width="600"/>
  <unicode hex="00B8"/>
  <outline>
    <contour>
      <point x="312" y="-211" type="qcurve" smooth="yes"/>
      <point x="242" y="-211"/>
      <point x="200" y="-184" type="qcurve" smooth="yes"/>
      <point x="166" y="-164"/>
      <point x="181" y="-137" type="qcurve" smooth="yes"/>
      <point x="196" y="-111"/>
      <point x="223" y="-127" type="qcurve" smooth="yes"/>
      <point x="267" y="-152"/>
      <point x="306" y="-152" type="qcurve" smooth="yes"/>
      <point x="336" y="-152"/>
      <point x="376" y="-135"/>
      <point x="376" y="-120" type="qcurve" smooth="yes"/>
      <point x="376" y="-108"/>
      <point x="340" y="-85"/>
      <point x="297" y="-66"/>
      <point x="261" y="-32"/>
      <point x="261" y="-11" type="qcurve"/>
      <point x="334" y="-11" type="line"/>
      <point x="334" y="-24"/>
      <point x="366" y="-46"/>
      <point x="406" y="-61"/>
      <point x="438" y="-96"/>
      <point x="438" y="-120" type="qcurve" smooth="yes"/>
      <point x="438" y="-159"/>
      <point x="370" y="-211"/>
    </contour>
  </outline>
</glyph>
<glyph name="uni00B9" format="1">
  <advance width="600"/>
  <unicode hex="00B9"/>
  <outline>
    <contour>
      <point x="188" y="310" type="line" smooth="yes"/>
      <point x="177" y="310"/>
      <point x="156" y="329"/>
      <point x="156" y="342" type="qcurve" smooth="yes"/>
      <point x="156" y="356"/>
      <point x="176" y="373"/>
      <point x="188" y="373" type="qcurve" smooth="yes"/>
      <point x="272" y="373" type="line"/>
      <point x="272" y="580" type="line"/>
      <point x="235" y="534" type="line" smooth="yes"/>
      <point x="226" y="522"/>
      <point x="198" y="522"/>
      <point x="188" y="532" type="qcurve" smooth="yes"/>
      <point x="165" y="553"/>
      <point x="186" y="577" type="qcurve" smooth="yes"/>
      <point x="278" y="678" type="line" smooth="yes"/>
      <point x="296" y="697"/>
      <point x="314" y="697" type="qcurve" smooth="yes"/>
      <point x="333" y="697"/>
      <point x="333" y="669" type="qcurve" smooth="yes"/>
      <point x="333" y="373" type="line"/>
      <point x="413" y="373" type="line" smooth="yes"/>
      <point x="425" y="373"/>
      <point x="444" y="357"/>
      <point x="444" y="342" type="qcurve" smooth="yes"/>
      <point x="444" y="328"/>
      <point x="423" y="310"/>
      <point x="413" y="310" type="qcurve" smooth="yes"/>
    </contour>
  </outline>
</glyph>
<glyph name="ordmasculine" format="1">
  <advance width="600"/>
  <unicode hex="00BA"/>
  <outline>
    <contour>
      <point x="226" y="397"/>
      <point x="120" y="503"/>
      <point x="120" y="651"/>
      <point x="226" y="757"/>
      <point x="374" y="757"/>
      <point x="480" y="651"/>
      <point x="480" y="503"/>
      <point x="374" y="397"/>
    </contour>
    <contour>
      <point x="340" y="479"/>
      <point x="398" y="536"/>
      <point x="398" y="618"/>
      <point x="340" y="675"/>
      <point x="260" y="675"/>
      <point x="202" y="618"/>
      <point x="202" y="536"/>
      <point x="260" y="479"/>
    </contour>
  </outline>
</glyph>
<glyph name="onequarter" format="1">
  <advance width="600"/>
  <unicode hex="00BC"/>
  <outline>
    <contour>
      <point x="164" y="86" type="line" smooth="yes"/>
      <point x="141" y="54"/>
      <point x="113" y="73" type="qcurve" smooth="yes"/>
      <point x="100" y="81"/>
      <point x="95" y="110"/>
      <point x="105" y="125" type="qcurve" smooth="yes"/>
      <point x="458" y="611" type="line" smooth="yes"/>
      <point x="479" y="640"/>
      <point x="510" y="624" type="qcurve" smooth="yes"/>
      <point x="522" y="615"/>
      <point x="528" y="585"/>
      <point x="519" y="572" type="qcurve" smooth="yes"/>
    </contour>
    <contour>
      <point x="55" y="390" type="line" smooth="yes"/>
      <point x="44" y="390"/>
      <point x="23" y="409"/>
      <point x="23" y="422" type="qcurve" smooth="yes"/>
      <point x="23" y="436"/>
      <point x="43" y="453"/>
      <point x="55" y="453" type="qcurve" smooth="yes"/>
      <point x="129" y="453" type="line"/>
      <point x="129" y="660" type="line"/>
      <point x="92" y="614" type="line" smooth="yes"/>
      <point x="83" y="602"/>
      <point x="55" y="602"/>
      <point x="45" y="612" type="qcurve" smooth="yes"/>
      <point x="22" y="633"/>
      <point x="43" y="657" type="qcurve" smooth="yes"/>
      <point x="135" y="758" type="line" smooth="yes"/>
      <point x="153" y="777"/>
      <point x="171" y="777" type="qcurve" smooth="yes"/>
      <point x="190" y="777"/>
      <point x="190" y="749" type="qcurve" smooth="yes"/>
      <point x="190" y="453" type="line"/>
      <point x="260" y="453" type="line" smooth="yes"/>
      <point x="272" y="453"/>
      <point x="291" y="437"/>
      <point x="291" y="422" type="qcurve" smooth="yes"/>
      <point x="291" y="408"/>
      <point x="270" y="390"/>
      <point x="260" y="390" type="qcurve" smooth="yes"/>
    </contour>
    <contour>
      <point x="480" y="268" type="line" smooth="yes"/>
      <point x="480" y="280"/>
      <point x="498" y="297"/>
      <point x="509" y="297" type="qcurve" smooth="yes"/>
      <point x="521" y="297"/>
      <point x="539" y="281"/>
      <point x="539" y="269" type="qcurve" smooth="yes"/>
      <point x="539" y="91" type="line"/>
      <point x="541" y="91" type="line" smooth="yes"/>
      <point x="558" y="91"/>
      <point x="577" y="74"/>
      <point x="577" y="60" type="qcurve" smooth="yes"/>
      <point x="577" y="28"/>
      <point x="541" y="28" type="qcurve" smooth="yes"/>
      <point x="539" y="28" type="line"/>
      <point x="539" y="-42" type="line" smooth="yes"/>
      <point x="539" y="-69"/>
      <point x="509" y="-69" type="qcurve" smooth="yes"/>
      <point x="497" y="-69"/>
      <point x="480" y="-53"/>
      <point x="480" y="-41" type="qcurve" smooth="yes"/>
      <point x="480" y="28" type="line"/>
      <point x="345" y="28" type="line" smooth="yes"/>
      <point x="306" y="28"/>
      <point x="320" y="77" type="qcurve" smooth="yes"/>
      <point x="358" y="211"/>
      <point x="359" y="294" type="qcurve" smooth="yes"/>
      <point x="359" y="315"/>
      <point x="381" y="334"/>
      <point x="397" y="332" type="qcurve" smooth="yes"/>
      <point x="408" y="331"/>
      <point x="418" y="314"/>
      <point x="420" y="298"/>
      <point x="420" y="281" type="qcurve" smooth="yes"/>
      <point x="420" y="197"/>
      <point x="392" y="91" type="qcurve"/>
      <point x="480" y="91" type="line"/>
    </contour>
  </outline>
</glyph>
<glyph name="onehalf" format="1">
  <advance width="600"/>
  <unicode hex="00BD"/>
  <outline>
    <contour>
      <point x="164" y="86" type="line" smooth="yes"/>
      <point x="141" y="54"/>
      <point x="113" y="73" type="qcurve" smooth="yes"/>
      <point x="100" y="81"/>
      <point x="95" y="110"/>
      <point x="105" y="125" type="qcurve" smooth="yes"/>
      <point x="458" y="611" type="line" smooth="yes"/>
      <point x="479" y="640"/>
      <point x="510" y="624" type="qcurve" smooth="yes"/>
      <point x="522" y="615"/>
      <point x="528" y="585"/>
      <point x="519" y="572" type="qcurve" smooth="yes"/>
    </contour>
    <contour>
      <point x="55" y="390" type="line" smooth="yes"/>
      <point x="44" y="390"/>
      <point x="23" y="409"/>
      <point x="23" y="422" type="qcurve" smooth="yes"/>
      <point x="23" y="436"/>
      <point x="43" y="453"/>
      <point x="55" y="453" type="qcurve" smooth="yes"/>
      <point x="129" y="453" type="line"/>
      <point x="129" y="660" type="line"/>
      <point x="92" y="614" type="line" smooth="yes"/>
      <point x="83" y="602"/>
      <point x="55" y="602"/>
      <point x="45" y="612" type="qcurve" smooth="yes"/>
      <point x="22" y="633"/>
      <point x="43" y="657" type="qcurve" smooth="yes"/>
      <point x="135" y="758" type="line" smooth="yes"/>
      <point x="153" y="777"/>
      <point x="171" y="777" type="qcurve" smooth="yes"/>
      <point x="190" y="777"/>
      <point x="190" y="749" type="qcurve" smooth="yes"/>
      <point x="190" y="453" type="line"/>
      <point x="260" y="453" type="line" smooth="yes"/>
      <point x="272" y="453"/>
      <point x="291" y="437"/>
      <point x="291" y="422" type="qcurve" smooth="yes"/>
      <point x="291" y="408"/>
      <point x="270" y="390"/>
      <point x="260" y="390" type="qcurve" smooth="yes"/>
    </contour>
    <contour>
      <point x="338" y="241" type="qcurve" smooth="yes"/>
      <point x="338" y="289"/>
      <point x="405" y="341"/>
      <point x="452" y="341" type="qcurve" smooth="yes"/>
      <point x="509" y="341"/>
      <point x="570" y="281"/>
      <point x="570" y="173"/>
      <point x="501" y="94" type="qcurve" smooth="yes"/>
      <point x="416" y="-2" type="line"/>
      <point x="550" y="-2" type="line" smooth="yes"/>
      <point x="561" y="-2"/>
      <point x="577" y="-18"/>
      <point x="577" y="-31" type="qcurve" smooth="yes"/>
      <point x="577" y="-45"/>
      <point x="561" y="-61"/>
      <point x="549" y="-61" type="qcurve" smooth="yes"/>
      <point x="377" y="-61" type="line" smooth="yes"/>
      <point x="333" y="-61"/>
      <point x="333" y="-29" type="qcurve" smooth="yes"/>
      <point x="333" y="-10"/>
      <point x="364" y="26" type="qcurve" smooth="yes"/>
      <point x="447" y="121" type="line" smooth="yes"/>
      <point x="507" y="189"/>
      <point x="507" y="223" type="qcurve" smooth="yes"/>
      <point x="507" y="284"/>
      <point x="449" y="284" type="qcurve" smooth="yes"/>
      <point x="400" y="284"/>
      <point x="400" y="237" type="qcurve" smooth="yes"/>
      <point x="400" y="207"/>
      <point x="368" y="207" type="qcurve" smooth="yes"/>
      <point x="338" y="207"/>
    </contour>
  </outline>
</glyph>
<glyph name="threequarters" format="1">
  <advance width="600"/>
  <unicode hex="00BE"/>
  <outline>
    <contour>
      <point x="154" y="86" type="line" smooth="yes"/>
      <point x="131" y="54"/>
      <point x="103" y="73" type="qcurve" smooth="yes"/>
      <point x="90" y="81"/>
      <point x="85" y="110"/>
      <point x="95" y="125" type="qcurve" smooth="yes"/>
      <point x="448" y="611" type="line" smooth="yes"/>
      <point x="469" y="640"/>
      <point x="500" y="624" type="qcurve" smooth="yes"/>
      <point x="512" y="615"/>
      <point x="518" y="585"/>
      <point x="509" y="572" type="qcurve" smooth="yes"/>
    </contour>
    <contour>
      <point x="144" y="607" type="qcurve" smooth="yes"/>
      <point x="177" y="611"/>
      <point x="210" y="651"/>
      <point x="210" y="678" type="qcurve" smooth="yes"/>
      <point x="210" y="718"/>
      <point x="163" y="718" type="qcurve" smooth="yes"/>
      <point x="131" y="718"/>
      <point x="101" y="695" type="qcurve" smooth="yes"/>
      <point x="76" y="676"/>
      <point x="59" y="694" type="qcurve" smooth="yes"/>
      <point x="38" y="714"/>
      <point x="58" y="734" type="qcurve" smooth="yes"/>
      <point x="95" y="773"/>
      <point x="159" y="773" type="qcurve" smooth="yes"/>
      <point x="211" y="773"/>
      <point x="271" y="722"/>
      <point x="271" y="678" type="qcurve" smooth="yes"/>
      <point x="271" y="607"/>
      <point x="206" y="585" type="qcurve"/>
      <point x="283" y="563"/>
      <point x="283" y="476" type="qcurve" smooth="yes"/>
      <point x="283" y="426"/>
      <point x="210" y="368"/>
      <point x="160" y="368" type="qcurve" smooth="yes"/>
      <point x="92" y="368"/>
      <point x="49" y="411" type="qcurve" smooth="yes"/>
      <point x="39" y="422"/>
      <point x="41" y="447"/>
      <point x="51" y="457" type="qcurve" smooth="yes"/>
      <point x="66" y="472"/>
      <point x="90" y="452" type="qcurve" smooth="yes"/>
      <point x="118" y="427"/>
      <point x="164" y="427" type="qcurve" smooth="yes"/>
      <point x="182" y="427"/>
      <point x="221" y="455"/>
      <point x="221" y="482" type="qcurve" smooth="yes"/>
      <point x="221" y="545"/>
      <point x="144" y="555" type="qcurve" smooth="yes"/>
      <point x="119" y="558"/>
      <point x="119" y="604"/>
    </contour>
    <contour>
      <point x="480" y="268" type="line" smooth="yes"/>
      <point x="480" y="280"/>
      <point x="498" y="297"/>
      <point x="509" y="297" type="qcurve" smooth="yes"/>
      <point x="521" y="297"/>
      <point x="539" y="281"/>
      <point x="539" y="269" type="qcurve" smooth="yes"/>
      <point x="539" y="91" type="line"/>
      <point x="541" y="91" type="line" smooth="yes"/>
      <point x="558" y="91"/>
      <point x="577" y="74"/>
      <point x="577" y="60" type="qcurve" smooth="yes"/>
      <point x="577" y="28"/>
      <point x="541" y="28" type="qcurve" smooth="yes"/>
      <point x="539" y="28" type="line"/>
      <point x="539" y="-42" type="line" smooth="yes"/>
      <point x="539" y="-69"/>
      <point x="509" y="-69" type="qcurve" smooth="yes"/>
      <point x="497" y="-69"/>
      <point x="480" y="-53"/>
      <point x="480" y="-41" type="qcurve" smooth="yes"/>
      <point x="480" y="28" type="line"/>
      <point x="345" y="28" type="line" smooth="yes"/>
      <point x="306" y="28"/>
      <point x="320" y="77" type="qcurve" smooth="yes"/>
      <point x="358" y="211"/>
      <point x="359" y="294" type="qcurve" smooth="yes"/>
      <point x="359" y="315"/>
      <point x="381" y="334"/>
      <point x="397" y="332" type="qcurve" smooth="yes"/>
      <point x="408" y="331"/>
      <point x="418" y="314"/>
      <point x="420" y="298"/>
      <point x="420" y="281" type="qcurve" smooth="yes"/>
      <point x="420" y="197"/>
      <point x="392" y="91" type="qcurve"/>
      <point x="480" y="91" type="line"/>
    </contour>
  </outline>
</glyph>
<glyph name="questiondown" format="1">
  <advance width="600"/>
  <unicode hex="00BF"/>
  <outline>
    <contour>
      <point x="435" y="-101" type="qcurve" smooth="yes"/>
      <point x="376" y="-160"/>
      <point x="294" y="-160" type="qcurve" smooth="yes"/>
      <point x="223" y="-160"/>
      <point x="140" y="-78"/>
      <point x="140" y="-4" type="qcurve" smooth="yes"/>
      <point x="140" y="38"/>
      <point x="184" y="125"/>
      <point x="236" y="185"/>
      <point x="281" y="257"/>
      <point x="282" y="286" type="qcurve" smooth="yes"/>
      <point x="284" y="337"/>
      <point x="327" y="337" type="qcurve" smooth="yes"/>
      <point x="371" y="337"/>
      <point x="369" y="285" type="qcurve" smooth="yes"/>
      <point x="368" y="246"/>
      <point x="323" y="168"/>
      <point x="271" y="113"/>
      <point x="228" y="35"/>
      <point x="228" y="-3" type="qcurve" smooth="yes"/>
      <point x="228" y="-33"/>
      <point x="265" y="-75"/>
      <point x="291" y="-75" type="qcurve" smooth="yes"/>
      <point x="339" y="-75"/>
      <point x="370" y="-43" type="qcurve" smooth="yes"/>
      <point x="405" y="-7"/>
      <point x="437" y="-36" type="qcurve" smooth="yes"/>
      <point x="472" y="-64"/>
    </contour>
    <contour>
      <point x="357" y="509"/>
      <point x="394" y="472"/>
      <point x="394" y="420"/>
      <point x="357" y="383"/>
      <point x="305" y="383"/>
      <point x="268" y="420"/>
      <point x="268" y="472"/>
      <point x="305" y="509"/>
    </contour>
  </outline>
</glyph>
<glyph name="Agrave" format="1">
  <advance width="600"/>
  <unicode hex="00C0"/>
  <outline>
    <contour>
      <point x="300" y="0" type="move" name="Anchor6"/>
    </contour>
    <contour>
      <point x="263" y="721" type="move" name="Anchor7"/>
    </contour>
    <contour>
      <point x="263" y="721" type="move" name="Anchor-7"/>
    </contour>
    <contour>
      <point x="300" y="0" type="move" name="Anchor-6"/>
    </contour>
    <contour>
      <point x="260" y="632" type="line" smooth="yes"/>
      <point x="271" y="661"/>
      <point x="298" y="661" type="qcurve" smooth="yes"/>
      <point x="324" y="661"/>
      <point x="335" y="633" type="qcurve" smooth="yes"/>
      <point x="553" y="71" type="line" smooth="yes"/>
      <point x="572" y="20"/>
      <point x="530" y="3" type="qcurve" smooth="yes"/>
      <point x="487" y="-11"/>
      <point x="469" y="40" type="qcurve" smooth="yes"/>
      <point x="419" y="176" type="line"/>
      <point x="179" y="176" type="line"/>
      <point x="129" y="40" type="line" smooth="yes"/>
      <point x="111" y="-11"/>
      <point x="68" y="3" type="qcurve" smooth="yes"/>
      <point x="26" y="20"/>
      <point x="45" y="71" type="qcurve" smooth="yes"/>
    </contour>
    <contour>
      <point x="413" y="698" type="qcurve" smooth="yes"/>
      <point x="408" y="685"/>
      <point x="381" y="676"/>
      <point x="367" y="682" type="qcurve" smooth="yes"/>
      <point x="223" y="743" type="line" smooth="yes"/>
      <point x="210" y="749"/>
      <point x="200" y="775"/>
      <point x="210" y="801"/>
      <point x="236" y="811"/>
      <point x="251" y="805" type="qcurve" smooth="yes"/>
      <point x="394" y="744" type="line" smooth="yes"/>
      <point x="408" y="738"/>
      <point x="419" y="711"/>
    </contour>
    <contour>
      <point x="208" y="256" type="line"/>
      <point x="390" y="256" type="line"/>
      <point x="299" y="503" type="line"/>
    </contour>
  </outline>
</glyph>
<glyph name="Aacute" format="1">
  <advance width="600"/>
  <unicode hex="00C1"/>
  <outline>
    <contour>
      <point x="300" y="0" type="move" name="Anchor6"/>
    </contour>
    <contour>
      <point x="288" y="956" type="move" name="Anchor7"/>
    </contour>
    <contour>
      <point x="288" y="956" type="move" name="Anchor-7"/>
    </contour>
    <contour>
      <point x="300" y="0" type="move" name="Anchor-6"/>
    </contour>
    <contour>
      <point x="260" y="632" type="line" smooth="yes"/>
      <point x="271" y="661"/>
      <point x="298" y="661" type="qcurve" smooth="yes"/>
      <point x="324" y="661"/>
      <point x="335" y="633" type="qcurve" smooth="yes"/>
      <point x="553" y="71" type="line" smooth="yes"/>
      <point x="572" y="20"/>
      <point x="530" y="3" type="qcurve" smooth="yes"/>
      <point x="487" y="-11"/>
      <point x="469" y="40" type="qcurve" smooth="yes"/>
      <point x="419" y="176" type="line"/>
      <point x="179" y="176" type="line"/>
      <point x="129" y="40" type="line" smooth="yes"/>
      <point x="111" y="-11"/>
      <point x="68" y="3" type="qcurve" smooth="yes"/>
      <point x="26" y="20"/>
      <point x="45" y="71" type="qcurve" smooth="yes"/>
    </contour>
    <contour>
      <point x="175" y="698" type="qcurve" smooth="yes"/>
      <point x="163" y="729"/>
      <point x="194" y="744" type="qcurve" smooth="yes"/>
      <point x="337" y="805" type="line" smooth="yes"/>
      <point x="352" y="811"/>
      <point x="378" y="801"/>
      <point x="388" y="775"/>
      <point x="378" y="749"/>
      <point x="365" y="743" type="qcurve" smooth="yes"/>
      <point x="221" y="682" type="line" smooth="yes"/>
      <point x="207" y="676"/>
      <point x="180" y="685"/>
    </contour>
    <contour>
      <point x="208" y="256" type="line"/>
      <point x="390" y="256" type="line"/>
      <point x="299" y="503" type="line"/>
    </contour>
  </outline>
</glyph>
<glyph name="Atilde" format="1">
  <advance width="600"/>
  <unicode hex="00C3"/>
  <outline>
    <contour>
      <point x="300" y="0" type="move" name="Anchor6"/>
    </contour>
    <contour>
      <point x="303" y="797" type="move" name="Anchor7"/>
    </contour>
    <contour>
      <point x="303" y="797" type="move" name="Anchor-7"/>
    </contour>
    <contour>
      <point x="300" y="0" type="move" name="Anchor-6"/>
    </contour>
    <contour>
      <point x="260" y="632" type="line" smooth="yes"/>
      <point x="271" y="661"/>
      <point x="298" y="661" type="qcurve" smooth="yes"/>
      <point x="324" y="661"/>
      <point x="335" y="633" type="qcurve" smooth="yes"/>
      <point x="553" y="71" type="line" smooth="yes"/>
      <point x="572" y="20"/>
      <point x="530" y="3" type="qcurve" smooth="yes"/>
      <point x="487" y="-11"/>
      <point x="469" y="40" type="qcurve" smooth="yes"/>
      <point x="419" y="176" type="line"/>
      <point x="179" y="176" type="line"/>
      <point x="129" y="40" type="line" smooth="yes"/>
      <point x="111" y="-11"/>
      <point x="68" y="3" type="qcurve" smooth="yes"/>
      <point x="26" y="20"/>
      <point x="45" y="71" type="qcurve" smooth="yes"/>
    </contour>
    <contour>
      <point x="223" y="736" type="qcurve" smooth="yes"/>
      <point x="246" y="736"/>
      <point x="348" y="671"/>
      <point x="379" y="671" type="qcurve" smooth="yes"/>
      <point x="419" y="671"/>
      <point x="469" y="721"/>
      <point x="469" y="760" type="qcurve" smooth="yes"/>
      <point x="469" y="797"/>
      <point x="442" y="797" type="qcurve" smooth="yes"/>
      <point x="412" y="797"/>
      <point x="412" y="762" type="qcurve" smooth="yes"/>
      <point x="412" y="729"/>
      <point x="382" y="729" type="qcurve" smooth="yes"/>
      <point x="362" y="729"/>
      <point x="261" y="793"/>
      <point x="226" y="793" type="qcurve" smooth="yes"/>
      <point x="186" y="793"/>
      <point x="136" y="745"/>
      <point x="136" y="706" type="qcurve" smooth="yes"/>
      <point x="136" y="668"/>
      <point x="163" y="668" type="qcurve" smooth="yes"/>
      <point x="193" y="668"/>
      <point x="193" y="703" type="qcurve" smooth="yes"/>
      <point x="193" y="736"/>
    </contour>
    <contour>
      <point x="208" y="256" type="line"/>
      <point x="390" y="256" type="line"/>
      <point x="299" y="503" type="line"/>
    </contour>
  </outline>
</glyph>
<glyph name="Aring" format="1">
  <advance width="600"/>
  <unicode hex="00C5"/>
  <outline>
    <contour>
      <point x="295" y="803" type="move" name="Anchor-7"/>
    </contour>
    <contour>
      <point x="300" y="0" type="move" name="Anchor-6"/>
    </contour>
    <contour>
      <point x="311" y="662"/>
      <point x="335" y="686"/>
      <point x="335" y="702" type="qcurve" smooth="yes"/>
      <point x="335" y="719"/>
      <point x="311" y="744"/>
      <point x="279" y="744"/>
      <point x="255" y="719"/>
      <point x="255" y="702" type="qcurve" smooth="yes"/>
      <point x="255" y="686"/>
      <point x="279" y="662"/>
    </contour>
    <contour>
      <point x="45" y="71" type="qcurve" smooth="yes"/>
      <point x="253" y="613" type="line"/>
      <point x="228" y="625"/>
      <point x="196" y="674"/>
      <point x="196" y="701" type="qcurve" smooth="yes"/>
      <point x="196" y="743"/>
      <point x="254" y="803"/>
      <point x="336" y="803"/>
      <point x="394" y="743"/>
      <point x="394" y="701" type="qcurve" smooth="yes"/>
      <point x="394" y="644"/>
      <point x="342" y="615" type="qcurve"/>
      <point x="553" y="71" type="line" smooth="yes"/>
      <point x="572" y="20"/>
      <point x="530" y="3" type="qcurve" smooth="yes"/>
      <point x="487" y="-11"/>
      <point x="469" y="40" type="qcurve" smooth="yes"/>
      <point x="419" y="176" type="line"/>
      <point x="179" y="176" type="line"/>
      <point x="129" y="40" type="line" smooth="yes"/>
      <point x="111" y="-11"/>
      <point x="68" y="3" type="qcurve" smooth="yes"/>
      <point x="26" y="20"/>
    </contour>
    <contour>
      <point x="208" y="256" type="line"/>
      <point x="390" y="256" type="line"/>
      <point x="299" y="503" type="line"/>
    </contour>
  </outline>
</glyph>
<glyph name="AE" format="1">
  <advance width="600"/>
  <unicode hex="00C6"/>
  <outline>
    <contour>
      <point x="215" y="610" type="line" smooth="yes"/>
      <point x="228" y="650"/>
      <point x="261" y="650" type="qcurve" smooth="yes"/>
      <point x="501" y="650" type="line" smooth="yes"/>
      <point x="552" y="650"/>
      <point x="552" y="611" type="qcurve" smooth="yes"/>
      <point x="552" y="570"/>
      <point x="501" y="570" type="qcurve" smooth="yes"/>
      <point x="360" y="570" type="line"/>
      <point x="360" y="385" type="line"/>
      <point x="473" y="385" type="line" smooth="yes"/>
      <point x="524" y="385"/>
      <point x="524" y="305"/>
      <point x="473" y="305" type="qcurve" smooth="yes"/>
      <point x="360" y="305" type="line"/>
      <point x="360" y="80" type="line"/>
      <point x="501" y="80" type="line" smooth="yes"/>
      <point x="552" y="80"/>
      <point x="552" y="41" type="qcurve" smooth="yes"/>
      <point x="552" y="0"/>
      <point x="501" y="0" type="qcurve" smooth="yes"/>
      <point x="348" y="0" type="line" smooth="yes"/>
      <point x="312" y="0"/>
      <point x="272" y="39"/>
      <point x="273" y="75" type="qcurve" smooth="yes"/>
      <point x="274" y="175" type="line"/>
      <point x="170" y="175" type="line"/>
      <point x="133" y="40" type="line" smooth="yes"/>
      <point x="119" y="-12"/>
      <point x="72" y="3" type="qcurve" smooth="yes"/>
      <point x="37" y="17"/>
      <point x="53" y="71" type="qcurve" smooth="yes"/>
    </contour>
    <contour>
      <point x="193" y="255" type="line"/>
      <point x="276" y="255" type="line"/>
      <point x="280" y="553" type="line"/>
      <point x="275" y="553" type="line"/>
    </contour>
  </outline>
</glyph>
<glyph name="Ccedilla" format="1">
  <advance width="600"/>
  <unicode hex="00C7"/>
  <outline>
    <contour>
      <point x="302" y="-199" type="qcurve" smooth="yes"/>
      <point x="232" y="-199"/>
      <point x="190" y="-172" type="qcurve" smooth="yes"/>
      <point x="156" y="-152"/>
      <point x="171" y="-125" type="qcurve" smooth="yes"/>
      <point x="186" y="-99"/>
      <point x="213" y="-115" type="qcurve" smooth="yes"/>
      <point x="257" y="-140"/>
      <point x="296" y="-140" type="qcurve" smooth="yes"/>
      <point x="326" y="-140"/>
      <point x="366" y="-123"/>
      <point x="366" y="-108" type="qcurve" smooth="yes"/>
      <point x="366" y="-96"/>
      <point x="330" y="-72"/>
      <point x="287" y="-54"/>
      <point x="251" y="-20"/>
      <point x="251" y="0" type="qcurve"/>
      <point x="160" y="27"/>
      <point x="60" y="203"/>
      <point x="60" y="331" type="qcurve" smooth="yes"/>
      <point x="60" y="468"/>
      <point x="198" y="658"/>
      <point x="323" y="659" type="qcurve" smooth="yes"/>
      <point x="404" y="658"/>
      <point x="518" y="574"/>
      <point x="533" y="498" type="qcurve" smooth="yes"/>
      <point x="541" y="462"/>
      <point x="512" y="450" type="qcurve" smooth="yes"/>
      <point x="495" y="443"/>
      <point x="466" y="456"/>
      <point x="460" y="473" type="qcurve" smooth="yes"/>
      <point x="439" y="529"/>
      <point x="375" y="573"/>
      <point x="323" y="573" type="qcurve" smooth="yes"/>
      <point x="239" y="573"/>
      <point x="150" y="446"/>
      <point x="150" y="331" type="qcurve" smooth="yes"/>
      <point x="150" y="212"/>
      <point x="240" y="77"/>
      <point x="323" y="76" type="qcurve" smooth="yes"/>
      <point x="369" y="75"/>
      <point x="441" y="120"/>
      <point x="480" y="181" type="qcurve" smooth="yes"/>
      <point x="489" y="195"/>
      <point x="519" y="204"/>
      <point x="534" y="196" type="qcurve" smooth="yes"/>
      <point x="565" y="178"/>
      <point x="548" y="142" type="qcurve" smooth="yes"/>
      <point x="476" y="-7"/>
      <point x="327" y="-10" type="qcurve"/>
      <point x="333" y="-20"/>
      <point x="386" y="-44"/>
      <point x="428" y="-80"/>
      <point x="428" y="-108" type="qcurve" smooth="yes"/>
      <point x="428" y="-147"/>
      <point x="360" y="-199"/>
    </contour>
  </outline>
</glyph>
<glyph name="Eacute" format="1">
  <advance width="600"/>
  <unicode hex="00C9"/>
  <outline>
    <contour>
      <point x="241" y="0" type="move" name="Anchor6"/>
    </contour>
    <contour>
      <point x="298" y="956" type="move" name="Anchor7"/>
    </contour>
    <contour>
      <point x="298" y="956" type="move" name="Anchor-7"/>
    </contour>
    <contour>
      <point x="241" y="0" type="move" name="Anchor-6"/>
    </contour>
    <contour>
      <point x="111" y="575" type="line" smooth="yes"/>
      <point x="111" y="611"/>
      <point x="150" y="650"/>
      <point x="186" y="650" type="qcurve" smooth="yes"/>
      <point x="489" y="650" type="line" smooth="yes"/>
      <point x="540" y="650"/>
      <point x="540" y="611" type="qcurve" smooth="yes"/>
      <point x="540" y="570"/>
      <point x="489" y="570" type="qcurve" smooth="yes"/>
      <point x="198" y="570" type="line"/>
      <point x="198" y="385" type="line"/>
      <point x="409" y="385" type="line" smooth="yes"/>
      <point x="460" y="385"/>
      <point x="460" y="305"/>
      <point x="409" y="305" type="qcurve" smooth="yes"/>
      <point x="198" y="305" type="line"/>
      <point x="198" y="80" type="line"/>
      <point x="489" y="80" type="line" smooth="yes"/>
      <point x="540" y="80"/>
      <point x="540" y="41" type="qcurve" smooth="yes"/>
      <point x="540" y="0"/>
      <point x="489" y="0" type="qcurve" smooth="yes"/>
      <point x="186" y="0" type="line" smooth="yes"/>
      <point x="150" y="0"/>
      <point x="111" y="39"/>
      <point x="111" y="75" type="qcurve" smooth="yes"/>
    </contour>
    <contour>
      <point x="185" y="698" type="qcurve" smooth="yes"/>
      <point x="173" y="729"/>
      <point x="204" y="744" type="qcurve" smooth="yes"/>
      <point x="347" y="805" type="line" smooth="yes"/>
      <point x="362" y="811"/>
      <point x="388" y="801"/>
      <point x="398" y="775"/>
      <point x="388" y="749"/>
      <point x="375" y="743" type="qcurve" smooth="yes"/>
      <point x="231" y="682" type="line" smooth="yes"/>
      <point x="217" y="676"/>
      <point x="190" y="685"/>
    </contour>
  </outline>
</glyph>
<glyph name="Ecircumflex" format="1">
  <advance width="600"/>
  <unicode hex="00CA"/>
  <outline>
    <contour>
      <point x="310" y="654" type="move" name="Anchor-7"/>
    </contour>
    <contour>
      <point x="241" y="0" type="move" name="Anchor-6"/>
    </contour>
    <contour>
      <point x="111" y="575" type="line" smooth="yes"/>
      <point x="111" y="611"/>
      <point x="150" y="650"/>
      <point x="186" y="650" type="qcurve" smooth="yes"/>
      <point x="489" y="650" type="line" smooth="yes"/>
      <point x="540" y="650"/>
      <point x="540" y="611" type="qcurve" smooth="yes"/>
      <point x="540" y="570"/>
      <point x="489" y="570" type="qcurve" smooth="yes"/>
      <point x="198" y="570" type="line"/>
      <point x="198" y="385" type="line"/>
      <point x="409" y="385" type="line" smooth="yes"/>
      <point x="460" y="385"/>
      <point x="460" y="305"/>
      <point x="409" y="305" type="qcurve" smooth="yes"/>
      <point x="198" y="305" type="line"/>
      <point x="198" y="80" type="line"/>
      <point x="489" y="80" type="line" smooth="yes"/>
      <point x="540" y="80"/>
      <point x="540" y="41" type="qcurve" smooth="yes"/>
      <point x="540" y="0"/>
      <point x="489" y="0" type="qcurve" smooth="yes"/>
      <point x="186" y="0" type="line" smooth="yes"/>
      <point x="150" y="0"/>
      <point x="111" y="39"/>
      <point x="111" y="75" type="qcurve" smooth="yes"/>
    </contour>
    <contour>
      <point x="129" y="707" type="qcurve" smooth="yes"/>
      <point x="115" y="739"/>
      <point x="155" y="757" type="qcurve" smooth="yes"/>
      <point x="256" y="802" type="line" smooth="yes"/>
      <point x="286" y="816"/>
      <point x="316" y="802" type="qcurve" smooth="yes"/>
      <point x="417" y="757" type="line" smooth="yes"/>
      <point x="457" y="738"/>
      <point x="444" y="707" type="qcurve" smooth="yes"/>
      <point x="428" y="675"/>
      <point x="388" y="693" type="qcurve" smooth="yes"/>
      <point x="286" y="739" type="line"/>
      <point x="184" y="693" type="line" smooth="yes"/>
      <point x="143" y="674"/>
    </contour>
  </outline>
</glyph>
<glyph name="Igrave" format="1">
  <advance width="600"/>
  <unicode hex="00CC"/>
  <outline>
    <contour>
      <point x="240" y="0" type="move" name="Anchor6"/>
    </contour>
    <contour>
      <point x="223" y="721" type="move" name="Anchor7"/>
    </contour>
    <contour>
      <point x="223" y="721" type="move" name="Anchor-7"/>
    </contour>
    <contour>
      <point x="240" y="0" type="move" name="Anchor-6"/>
    </contour>
    <contour>
      <point x="121" y="571" type="line" smooth="yes"/>
      <point x="70" y="571"/>
      <point x="70" y="612" type="qcurve" smooth="yes"/>
      <point x="70" y="651"/>
      <point x="121" y="651" type="qcurve" smooth="yes"/>
      <point x="479" y="651" type="line" smooth="yes"/>
      <point x="530" y="651"/>
      <point x="530" y="571"/>
      <point x="479" y="571" type="qcurve" smooth="yes"/>
      <point x="344" y="571" type="line"/>
      <point x="344" y="80" type="line"/>
      <point x="479" y="80" type="line" smooth="yes"/>
      <point x="530" y="80"/>
      <point x="530" y="0"/>
      <point x="479" y="0" type="qcurve" smooth="yes"/>
      <point x="121" y="0" type="line" smooth="yes"/>
      <point x="70" y="0"/>
      <point x="70" y="41" type="qcurve" smooth="yes"/>
      <point x="70" y="80"/>
      <point x="121" y="80" type="qcurve" smooth="yes"/>
      <point x="257" y="80" type="line"/>
      <point x="257" y="571" type="line"/>
    </contour>
    <contour>
      <point x="373" y="698" type="qcurve" smooth="yes"/>
      <point x="368" y="685"/>
      <point x="341" y="676"/>
      <point x="327" y="682" type="qcurve" smooth="yes"/>
      <point x="183" y="743" type="line" smooth="yes"/>
      <point x="170" y="749"/>
      <point x="160" y="775"/>
      <point x="170" y="801"/>
      <point x="196" y="811"/>
      <point x="211" y="805" type="qcurve" smooth="yes"/>
      <point x="354" y="744" type="line" smooth="yes"/>
      <point x="368" y="738"/>
      <point x="379" y="711"/>
    </contour>
  </outline>
</glyph>
<glyph name="Iacute" format="1">
  <advance width="600"/>
  <unicode hex="00CD"/>
  <outline>
    <contour>
      <point x="240" y="0" type="move" name="Anchor6"/>
    </contour>
    <contour>
      <point x="328" y="958" type="move" name="Anchor7"/>
    </contour>
    <contour>
      <point x="328" y="958" type="move" name="Anchor-7"/>
    </contour>
    <contour>
      <point x="240" y="0" type="move" name="Anchor-6"/>
    </contour>
    <contour>
      <point x="121" y="571" type="line" smooth="yes"/>
      <point x="70" y="571"/>
      <point x="70" y="612" type="qcurve" smooth="yes"/>
      <point x="70" y="651"/>
      <point x="121" y="651" type="qcurve" smooth="yes"/>
      <point x="479" y="651" type="line" smooth="yes"/>
      <point x="530" y="651"/>
      <point x="530" y="571"/>
      <point x="479" y="571" type="qcurve" smooth="yes"/>
      <point x="344" y="571" type="line"/>
      <point x="344" y="80" type="line"/>
      <point x="479" y="80" type="line" smooth="yes"/>
      <point x="530" y="80"/>
      <point x="530" y="0"/>
      <point x="479" y="0" type="qcurve" smooth="yes"/>
      <point x="121" y="0" type="line" smooth="yes"/>
      <point x="70" y="0"/>
      <point x="70" y="41" type="qcurve" smooth="yes"/>
      <point x="70" y="80"/>
      <point x="121" y="80" type="qcurve" smooth="yes"/>
      <point x="257" y="80" type="line"/>
      <point x="257" y="571" type="line"/>
    </contour>
    <contour>
      <point x="215" y="700" type="qcurve" smooth="yes"/>
      <point x="203" y="731"/>
      <point x="234" y="746" type="qcurve" smooth="yes"/>
      <point x="377" y="807" type="line" smooth="yes"/>
      <point x="392" y="813"/>
      <point x="418" y="803"/>
      <point x="428" y="777"/>
      <point x="418" y="751"/>
      <point x="405" y="745" type="qcurve" smooth="yes"/>
      <point x="261" y="684" type="line" smooth="yes"/>
      <point x="247" y="678"/>
      <point x="220" y="687"/>
    </contour>
  </outline>
</glyph>
<glyph name="Eth" format="1">
  <advance width="600"/>
  <unicode hex="00D0"/>
  <outline>
    <contour>
      <point x="288" y="668" type="move" name="Anchor-7"/>
    </contour>
    <contour>
      <point x="288" y="0" type="move" name="Anchor-6"/>
    </contour>
    <contour>
      <point x="316" y="375" type="line" smooth="yes"/>
      <point x="333" y="375"/>
      <point x="356" y="350"/>
      <point x="356" y="314"/>
      <point x="332" y="289"/>
      <point x="314" y="289" type="qcurve" smooth="yes"/>
      <point x="158" y="289" type="line"/>
      <point x="158" y="79" type="line"/>
      <point x="257" y="79" type="line" smooth="yes"/>
      <point x="299" y="79"/>
      <point x="373" y="109"/>
      <point x="434" y="169"/>
      <point x="470" y="270"/>
      <point x="471" y="334" type="qcurve" smooth="yes"/>
      <point x="472" y="457"/>
      <point x="332" y="570"/>
      <point x="231" y="570" type="qcurve" smooth="yes"/>
      <point x="158" y="570" type="line"/>
      <point x="158" y="375" type="line"/>
    </contour>
    <contour>
      <point x="146" y="0" type="line" smooth="yes"/>
      <point x="110" y="0"/>
      <point x="71" y="39"/>
      <point x="71" y="75" type="qcurve" smooth="yes"/>
      <point x="71" y="289" type="line"/>
      <point x="63" y="289" type="line" smooth="yes"/>
      <point x="45" y="289"/>
      <point x="20" y="315"/>
      <point x="20" y="332" type="qcurve" smooth="yes"/>
      <point x="20" y="348"/>
      <point x="43" y="375"/>
      <point x="60" y="375" type="qcurve" smooth="yes"/>
      <point x="71" y="375" type="line"/>
      <point x="71" y="575" type="line" smooth="yes"/>
      <point x="71" y="611"/>
      <point x="110" y="650"/>
      <point x="146" y="650" type="qcurve" smooth="yes"/>
      <point x="231" y="650" type="line" smooth="yes"/>
      <point x="377" y="650"/>
      <point x="561" y="481"/>
      <point x="561" y="330" type="qcurve" smooth="yes"/>
      <point x="561" y="178"/>
      <point x="389" y="0"/>
      <point x="256" y="0" type="qcurve" smooth="yes"/>
    </contour>
  </outline>
</glyph>
<glyph name="Ntilde" format="1">
  <advance width="600"/>
  <unicode hex="00D1"/>
  <outline>
    <contour>
      <point x="310" y="0" type="move" name="Anchor6"/>
    </contour>
    <contour>
      <point x="303" y="831" type="move" name="Anchor7"/>
    </contour>
    <contour>
      <point x="303" y="831" type="move" name="Anchor-7"/>
    </contour>
    <contour>
      <point x="310" y="0" type="move" name="Anchor-6"/>
    </contour>
    <contour>
      <point x="158" y="52" type="line" smooth="yes"/>
      <point x="158" y="0"/>
      <point x="114" y="0" type="qcurve" smooth="yes"/>
      <point x="71" y="0"/>
      <point x="71" y="52" type="qcurve" smooth="yes"/>
      <point x="71" y="599" type="line" smooth="yes"/>
      <point x="71" y="643"/>
      <point x="103" y="650" type="qcurve"/>
      <point x="139" y="665"/>
      <point x="162" y="629" type="qcurve" smooth="yes"/>
      <point x="442" y="184" type="line"/>
      <point x="442" y="598" type="line" smooth="yes"/>
      <point x="442" y="650"/>
      <point x="486" y="650" type="qcurve" smooth="yes"/>
      <point x="529" y="650"/>
      <point x="529" y="598" type="qcurve" smooth="yes"/>
      <point x="529" y="52" type="line" smooth="yes"/>
      <point x="529" y="0"/>
      <point x="485" y="0" type="qcurve" smooth="yes"/>
      <point x="455" y="0"/>
      <point x="446" y="25" type="qcurve"/>
      <point x="446" y="21" type="line"/>
      <point x="158" y="477" type="line"/>
    </contour>
    <contour>
      <point x="216" y="764" type="qcurve" smooth="yes"/>
      <point x="241" y="764"/>
      <point x="352" y="693"/>
      <point x="387" y="693" type="qcurve" smooth="yes"/>
      <point x="431" y="693"/>
      <point x="486" y="747"/>
      <point x="486" y="790" type="qcurve" smooth="yes"/>
      <point x="486" y="831"/>
      <point x="456" y="831" type="qcurve" smooth="yes"/>
      <point x="423" y="831"/>
      <point x="423" y="792" type="qcurve" smooth="yes"/>
      <point x="423" y="756"/>
      <point x="391" y="756" type="qcurve" smooth="yes"/>
      <point x="369" y="756"/>
      <point x="258" y="827"/>
      <point x="219" y="827" type="qcurve" smooth="yes"/>
      <point x="176" y="827"/>
      <point x="121" y="774"/>
      <point x="121" y="731" type="qcurve" smooth="yes"/>
      <point x="121" y="690"/>
      <point x="151" y="690" type="qcurve" smooth="yes"/>
      <point x="183" y="690"/>
      <point x="183" y="764"/>
    </contour>
  </outline>
</glyph>
<glyph name="Ograve" format="1">
  <advance width="600"/>
  <unicode hex="00D2"/>
  <outline>
    <contour>
      <point x="263" y="721" type="move" name="Anchor-7"/>
    </contour>
    <contour>
      <point x="300" y="0" type="move" name="Anchor-6"/>
    </contour>
    <contour>
      <point x="300" y="664" type="qcurve" smooth="yes"/>
      <point x="174" y="663"/>
      <point x="39" y="471"/>
      <point x="39" y="331" type="qcurve" smooth="yes"/>
      <point x="39" y="178"/>
      <point x="177" y="-9"/>
      <point x="300" y="-10" type="qcurve" smooth="yes"/>
      <point x="423" y="-9"/>
      <point x="561" y="178"/>
      <point x="561" y="331" type="qcurve" smooth="yes"/>
      <point x="561" y="471"/>
      <point x="426" y="663"/>
    </contour>
    <contour>
      <point x="129" y="331" type="qcurve" smooth="yes"/>
      <point x="129" y="452"/>
      <point x="216" y="578"/>
      <point x="384" y="578"/>
      <point x="471" y="452"/>
      <point x="471" y="331" type="qcurve" smooth="yes"/>
      <point x="471" y="209"/>
      <point x="383" y="76"/>
      <point x="217" y="76"/>
      <point x="129" y="209"/>
    </contour>
    <contour>
      <point x="413" y="698" type="qcurve" smooth="yes"/>
      <point x="408" y="685"/>
      <point x="381" y="676"/>
      <point x="367" y="682" type="qcurve" smooth="yes"/>
      <point x="223" y="743" type="line" smooth="yes"/>
      <point x="210" y="749"/>
      <point x="200" y="775"/>
      <point x="210" y="801"/>
      <point x="236" y="811"/>
      <point x="251" y="805" type="qcurve" smooth="yes"/>
      <point x="394" y="744" type="line" smooth="yes"/>
      <point x="408" y="738"/>
      <point x="419" y="711"/>
    </contour>
  </outline>
</glyph>
<glyph name="Oacute" format="1">
  <advance width="600"/>
  <unicode hex="00D3"/>
  <outline>
    <contour>
      <point x="300" y="0" type="move" name="Anchor6"/>
    </contour>
    <contour>
      <point x="318" y="956" type="move" name="Anchor7"/>
    </contour>
    <contour>
      <point x="318" y="956" type="move" name="Anchor-7"/>
    </contour>
    <contour>
      <point x="300" y="0" type="move" name="Anchor-6"/>
    </contour>
    <contour>
      <point x="300" y="664" type="qcurve" smooth="yes"/>
      <point x="174" y="663"/>
      <point x="39" y="471"/>
      <point x="39" y="331" type="qcurve" smooth="yes"/>
      <point x="39" y="178"/>
      <point x="177" y="-9"/>
      <point x="300" y="-10" type="qcurve" smooth="yes"/>
      <point x="423" y="-9"/>
      <point x="561" y="178"/>
      <point x="561" y="331" type="qcurve" smooth="yes"/>
      <point x="561" y="471"/>
      <point x="426" y="663"/>
    </contour>
    <contour>
      <point x="129" y="331" type="qcurve" smooth="yes"/>
      <point x="129" y="452"/>
      <point x="216" y="578"/>
      <point x="384" y="578"/>
      <point x="471" y="452"/>
      <point x="471" y="331" type="qcurve" smooth="yes"/>
      <point x="471" y="209"/>
      <point x="383" y="76"/>
      <point x="217" y="76"/>
      <point x="129" y="209"/>
    </contour>
    <contour>
      <point x="205" y="698" type="qcurve" smooth="yes"/>
      <point x="193" y="729"/>
      <point x="224" y="744" type="qcurve" smooth="yes"/>
      <point x="367" y="805" type="line" smooth="yes"/>
      <point x="382" y="811"/>
      <point x="408" y="801"/>
      <point x="418" y="775"/>
      <point x="408" y="749"/>
      <point x="395" y="743" type="qcurve" smooth="yes"/>
      <point x="251" y="682" type="line" smooth="yes"/>
      <point x="237" y="676"/>
      <point x="210" y="685"/>
    </contour>
  </outline>
</glyph>
<glyph name="Ocircumflex" format="1">
  <advance width="600"/>
  <unicode hex="00D4"/>
  <outline>
    <contour>
      <point x="300" y="0" type="move" name="Anchor6"/>
    </contour>
    <contour>
      <point x="320" y="654" type="move" name="Anchor7"/>
    </contour>
    <contour>
      <point x="320" y="654" type="move" name="Anchor-7"/>
    </contour>
    <contour>
      <point x="300" y="0" type="move" name="Anchor-6"/>
    </contour>
    <contour>
      <point x="300" y="664" type="qcurve" smooth="yes"/>
      <point x="174" y="663"/>
      <point x="39" y="471"/>
      <point x="39" y="331" type="qcurve" smooth="yes"/>
      <point x="39" y="178"/>
      <point x="177" y="-9"/>
      <point x="300" y="-10" type="qcurve" smooth="yes"/>
      <point x="423" y="-9"/>
      <point x="561" y="178"/>
      <point x="561" y="331" type="qcurve" smooth="yes"/>
      <point x="561" y="471"/>
      <point x="426" y="663"/>
    </contour>
    <contour>
      <point x="129" y="331" type="qcurve" smooth="yes"/>
      <point x="129" y="452"/>
      <point x="216" y="578"/>
      <point x="384" y="578"/>
      <point x="471" y="452"/>
      <point x="471" y="331" type="qcurve" smooth="yes"/>
      <point x="471" y="209"/>
      <point x="383" y="76"/>
      <point x="217" y="76"/>
      <point x="129" y="209"/>
    </contour>
    <contour>
      <point x="139" y="707" type="qcurve" smooth="yes"/>
      <point x="125" y="739"/>
      <point x="165" y="757" type="qcurve" smooth="yes"/>
      <point x="266" y="802" type="line" smooth="yes"/>
      <point x="296" y="816"/>
      <point x="326" y="802" type="qcurve" smooth="yes"/>
      <point x="427" y="757" type="line" smooth="yes"/>
      <point x="467" y="738"/>
      <point x="454" y="707" type="qcurve" smooth="yes"/>
      <point x="438" y="675"/>
      <point x="398" y="693" type="qcurve" smooth="yes"/>
      <point x="296" y="739" type="line"/>
      <point x="194" y="693" type="line" smooth="yes"/>
      <point x="153" y="674"/>
    </contour>
  </outline>
</glyph>
<glyph name="Otilde" format="1">
  <advance width="600"/>
  <unicode hex="00D5"/>
  <outline>
    <contour>
      <point x="303" y="812" type="move" name="Anchor-7"/>
    </contour>
    <contour>
      <point x="300" y="0" type="move" name="Anchor-6"/>
    </contour>
    <contour>
      <point x="300" y="664" type="qcurve" smooth="yes"/>
      <point x="174" y="663"/>
      <point x="39" y="471"/>
      <point x="39" y="331" type="qcurve" smooth="yes"/>
      <point x="39" y="178"/>
      <point x="177" y="-9"/>
      <point x="300" y="-10" type="qcurve" smooth="yes"/>
      <point x="423" y="-9"/>
      <point x="561" y="178"/>
      <point x="561" y="331" type="qcurve" smooth="yes"/>
      <point x="561" y="471"/>
      <point x="426" y="663"/>
    </contour>
    <contour>
      <point x="129" y="331" type="qcurve" smooth="yes"/>
      <point x="129" y="452"/>
      <point x="216" y="578"/>
      <point x="384" y="578"/>
      <point x="471" y="452"/>
      <point x="471" y="331" type="qcurve" smooth="yes"/>
      <point x="471" y="209"/>
      <point x="383" y="76"/>
      <point x="217" y="76"/>
      <point x="129" y="209"/>
    </contour>
    <contour>
      <point x="218" y="746" type="qcurve" smooth="yes"/>
      <point x="242" y="746"/>
      <point x="352" y="677"/>
      <point x="385" y="677" type="qcurve" smooth="yes"/>
      <point x="428" y="677"/>
      <point x="482" y="730"/>
      <point x="482" y="772" type="qcurve" smooth="yes"/>
      <point x="482" y="812"/>
      <point x="453" y="812" type="qcurve" smooth="yes"/>
      <point x="421" y="812"/>
      <point x="421" y="774" type="qcurve" smooth="yes"/>
      <point x="421" y="739"/>
      <point x="389" y="739" type="qcurve" smooth="yes"/>
      <point x="367" y="739"/>
      <point x="259" y="808"/>
      <point x="221" y="808" type="qcurve" smooth="yes"/>
      <point x="179" y="808"/>
      <point x="125" y="756"/>
      <point x="125" y="714" type="qcurve" smooth="yes"/>
      <point x="125" y="674"/>
      <point x="154" y="674" type="qcurve" smooth="yes"/>
      <point x="186" y="674"/>
      <point x="186" y="711" type="qcurve" smooth="yes"/>
      <point x="186" y="746"/>
    </contour>
  </outline>
</glyph>
<glyph name="Odieresis" format="1">
  <advance width="600"/>
  <unicode hex="00D6"/>
  <outline>
    <contour>
      <point x="218" y="767" type="move" name="Anchor-7"/>
    </contour>
    <contour>
      <point x="300" y="0" type="move" name="Anchor-6"/>
    </contour>
    <contour>
      <point x="300" y="664" type="qcurve" smooth="yes"/>
      <point x="174" y="663"/>
      <point x="39" y="471"/>
      <point x="39" y="331" type="qcurve" smooth="yes"/>
      <point x="39" y="178"/>
      <point x="177" y="-9"/>
      <point x="300" y="-10" type="qcurve" smooth="yes"/>
      <point x="423" y="-9"/>
      <point x="561" y="178"/>
      <point x="561" y="331" type="qcurve" smooth="yes"/>
      <point x="561" y="471"/>
      <point x="426" y="663"/>
    </contour>
    <contour>
      <point x="129" y="331" type="qcurve" smooth="yes"/>
      <point x="129" y="452"/>
      <point x="216" y="578"/>
      <point x="384" y="578"/>
      <point x="471" y="452"/>
      <point x="471" y="331" type="qcurve" smooth="yes"/>
      <point x="471" y="209"/>
      <point x="383" y="76"/>
      <point x="217" y="76"/>
      <point x="129" y="209"/>
    </contour>
    <contour>
      <point x="162" y="755"/>
      <point x="193" y="787"/>
      <point x="237" y="787"/>
      <point x="268" y="755"/>
      <point x="268" y="711"/>
      <point x="237" y="680"/>
      <point x="193" y="680"/>
      <point x="162" y="711"/>
    </contour>
    <contour>
      <point x="332" y="755"/>
      <point x="363" y="787"/>
      <point x="407" y="787"/>
      <point x="438" y="755"/>
      <point x="438" y="711"/>
      <point x="407" y="680"/>
      <point x="363" y="680"/>
      <point x="332" y="711"/>
    </contour>
  </outline>
</glyph>
<glyph name="multiply" format="1">
  <advance width="600"/>
  <unicode hex="00D7"/>
  <outline>
    <contour>
      <point x="219" y="473" type="qcurve" smooth="yes"/>
      <point x="300" y="392" type="line"/>
      <point x="379" y="471" type="line" smooth="yes"/>
      <point x="392" y="484"/>
      <point x="428" y="483"/>
      <point x="452" y="459"/>
      <point x="454" y="425"/>
      <point x="442" y="412" type="qcurve" smooth="yes"/>
      <point x="361" y="331" type="line"/>
      <point x="442" y="250" type="line" smooth="yes"/>
      <point x="454" y="237"/>
      <point x="452" y="203"/>
      <point x="440" y="191" type="qcurve" smooth="yes"/>
      <point x="427" y="178"/>
      <point x="392" y="178"/>
      <point x="380" y="190" type="qcurve" smooth="yes"/>
      <point x="300" y="270" type="line"/>
      <point x="219" y="189" type="line" smooth="yes"/>
      <point x="206" y="177"/>
      <point x="173" y="178"/>
      <point x="147" y="204"/>
      <point x="147" y="239"/>
      <point x="159" y="251" type="qcurve" smooth="yes"/>
      <point x="239" y="331" type="line"/>
      <point x="160" y="410" type="line" smooth="yes"/>
      <point x="148" y="422"/>
      <point x="148" y="459"/>
      <point x="160" y="471" type="qcurve" smooth="yes"/>
      <point x="171" y="482"/>
      <point x="206" y="484"/>
    </contour>
  </outline>
</glyph>
<glyph name="Oslash" format="1">
  <advance width="600"/>
  <unicode hex="00D8"/>
  <outline>
    <contour>
      <point x="300" y="690" type="move" name="Anchor-7"/>
    </contour>
    <contour>
      <point x="300" y="0" type="move" name="Anchor-6"/>
    </contour>
    <contour>
      <point x="300" y="-10" type="qcurve" smooth="yes"/>
      <point x="239" y="-10"/>
      <point x="189" y="15" type="qcurve"/>
      <point x="179" y="-6" type="line" smooth="yes"/>
      <point x="171" y="-23"/>
      <point x="140" y="-36"/>
      <point x="124" y="-28" type="qcurve" smooth="yes"/>
      <point x="109" y="-21"/>
      <point x="99" y="10"/>
      <point x="107" y="27" type="qcurve" smooth="yes"/>
      <point x="125" y="64" type="line"/>
      <point x="39" y="156"/>
      <point x="39" y="331" type="qcurve" smooth="yes"/>
      <point x="39" y="471"/>
      <point x="174" y="663"/>
      <point x="300" y="664" type="qcurve" smooth="yes"/>
      <point x="357" y="664"/>
      <point x="407" y="640" type="qcurve"/>
      <point x="415" y="656" type="line" smooth="yes"/>
      <point x="434" y="693"/>
      <point x="469" y="678" type="qcurve" smooth="yes"/>
      <point x="484" y="670"/>
      <point x="494" y="639"/>
      <point x="487" y="622" type="qcurve" smooth="yes"/>
      <point x="472" y="592" type="line"/>
      <point x="561" y="499"/>
      <point x="561" y="331" type="qcurve" smooth="yes"/>
      <point x="561" y="178"/>
      <point x="423" y="-9"/>
    </contour>
    <contour>
      <point x="300" y="76" type="qcurve" smooth="yes"/>
      <point x="383" y="76"/>
      <point x="471" y="209"/>
      <point x="471" y="331" type="qcurve" smooth="yes"/>
      <point x="471" y="448"/>
      <point x="432" y="509" type="qcurve"/>
      <point x="227" y="93" type="line"/>
      <point x="259" y="76"/>
    </contour>
    <contour>
      <point x="129" y="331" type="qcurve" smooth="yes"/>
      <point x="129" y="217"/>
      <point x="168" y="151" type="qcurve"/>
      <point x="370" y="564" type="line"/>
      <point x="339" y="578"/>
      <point x="300" y="578" type="qcurve" smooth="yes"/>
      <point x="216" y="578"/>
      <point x="129" y="452"/>
    </contour>
  </outline>
</glyph>
<glyph name="Ugrave" format="1">
  <advance width="600"/>
  <unicode hex="00D9"/>
  <outline>
    <contour>
      <point x="213" y="701" type="move" name="Anchor-7"/>
    </contour>
    <contour>
      <point x="300" y="0" type="move" name="Anchor-6"/>
    </contour>
    <contour>
      <point x="300" y="-10" type="qcurve" smooth="yes"/>
      <point x="252" y="-10"/>
      <point x="173" y="17"/>
      <point x="105" y="74"/>
      <point x="67" y="176"/>
      <point x="67" y="246" type="qcurve" smooth="yes"/>
      <point x="67" y="600" type="line" smooth="yes"/>
      <point x="67" y="651"/>
      <point x="111" y="651" type="qcurve" smooth="yes"/>
      <point x="154" y="651"/>
      <point x="154" y="600" type="qcurve" smooth="yes"/>
      <point x="154" y="246" type="line" smooth="yes"/>
      <point x="154" y="193"/>
      <point x="179" y="122"/>
      <point x="224" y="88"/>
      <point x="270" y="76"/>
      <point x="330" y="76"/>
      <point x="376" y="88"/>
      <point x="421" y="122"/>
      <point x="445" y="193"/>
      <point x="445" y="246" type="qcurve" smooth="yes"/>
      <point x="445" y="600" type="line" smooth="yes"/>
      <point x="445" y="651"/>
      <point x="489" y="651" type="qcurve" smooth="yes"/>
      <point x="532" y="651"/>
      <point x="532" y="600" type="qcurve" smooth="yes"/>
      <point x="532" y="246" type="line" smooth="yes"/>
      <point x="532" y="111"/>
      <point x="401" y="-11"/>
    </contour>
    <contour>
      <point x="363" y="678" type="qcurve" smooth="yes"/>
      <point x="358" y="665"/>
      <point x="331" y="656"/>
      <point x="317" y="662" type="qcurve" smooth="yes"/>
      <point x="173" y="723" type="line" smooth="yes"/>
      <point x="160" y="729"/>
      <point x="150" y="755"/>
      <point x="160" y="781"/>
      <point x="186" y="791"/>
      <point x="201" y="785" type="qcurve" smooth="yes"/>
      <point x="344" y="724" type="line" smooth="yes"/>
      <point x="358" y="718"/>
      <point x="369" y="691"/>
    </contour>
  </outline>
</glyph>
<glyph name="Uacute" format="1">
  <advance width="600"/>
  <unicode hex="00DA"/>
  <outline>
    <contour>
      <point x="300" y="0" type="move" name="Anchor6"/>
    </contour>
    <contour>
      <point x="338" y="946" type="move" name="Anchor7"/>
    </contour>
    <contour>
      <point x="338" y="946" type="move" name="Anchor-7"/>
    </contour>
    <contour>
      <point x="300" y="0" type="move" name="Anchor-6"/>
    </contour>
    <contour>
      <point x="300" y="-10" type="qcurve" smooth="yes"/>
      <point x="252" y="-10"/>
      <point x="173" y="17"/>
      <point x="105" y="74"/>
      <point x="67" y="176"/>
      <point x="67" y="246" type="qcurve" smooth="yes"/>
      <point x="67" y="600" type="line" smooth="yes"/>
      <point x="67" y="651"/>
      <point x="111" y="651" type="qcurve" smooth="yes"/>
      <point x="154" y="651"/>
      <point x="154" y="600" type="qcurve" smooth="yes"/>
      <point x="154" y="246" type="line" smooth="yes"/>
      <point x="154" y="193"/>
      <point x="179" y="122"/>
      <point x="224" y="88"/>
      <point x="270" y="76"/>
      <point x="330" y="76"/>
      <point x="376" y="88"/>
      <point x="421" y="122"/>
      <point x="445" y="193"/>
      <point x="445" y="246" type="qcurve" smooth="yes"/>
      <point x="445" y="600" type="line" smooth="yes"/>
      <point x="445" y="651"/>
      <point x="489" y="651" type="qcurve" smooth="yes"/>
      <point x="532" y="651"/>
      <point x="532" y="600" type="qcurve" smooth="yes"/>
      <point x="532" y="246" type="line" smooth="yes"/>
      <point x="532" y="111"/>
      <point x="401" y="-11"/>
    </contour>
    <contour>
      <point x="225" y="688" type="qcurve" smooth="yes"/>
      <point x="213" y="719"/>
      <point x="244" y="734" type="qcurve" smooth="yes"/>
      <point x="387" y="795" type="line" smooth="yes"/>
      <point x="402" y="801"/>
      <point x="428" y="791"/>
      <point x="438" y="765"/>
      <point x="428" y="739"/>
      <point x="415" y="733" type="qcurve" smooth="yes"/>
      <point x="271" y="672" type="line" smooth="yes"/>
      <point x="257" y="666"/>
      <point x="230" y="675"/>
    </contour>
  </outline>
</glyph>
<glyph name="Ucircumflex" format="1">
  <advance width="600"/>
  <unicode hex="00DB"/>
  <outline>
    <contour>
      <point x="320" y="654" type="move" name="Anchor-7"/>
    </contour>
    <contour>
      <point x="300" y="0" type="move" name="Anchor-6"/>
    </contour>
    <contour>
      <point x="300" y="-10" type="qcurve" smooth="yes"/>
      <point x="252" y="-10"/>
      <point x="173" y="17"/>
      <point x="105" y="74"/>
      <point x="67" y="176"/>
      <point x="67" y="246" type="qcurve" smooth="yes"/>
      <point x="67" y="600" type="line" smooth="yes"/>
      <point x="67" y="651"/>
      <point x="111" y="651" type="qcurve" smooth="yes"/>
      <point x="154" y="651"/>
      <point x="154" y="600" type="qcurve" smooth="yes"/>
      <point x="154" y="246" type="line" smooth="yes"/>
      <point x="154" y="193"/>
      <point x="179" y="122"/>
      <point x="224" y="88"/>
      <point x="270" y="76"/>
      <point x="330" y="76"/>
      <point x="376" y="88"/>
      <point x="421" y="122"/>
      <point x="445" y="193"/>
      <point x="445" y="246" type="qcurve" smooth="yes"/>
      <point x="445" y="600" type="line" smooth="yes"/>
      <point x="445" y="651"/>
      <point x="489" y="651" type="qcurve" smooth="yes"/>
      <point x="532" y="651"/>
      <point x="532" y="600" type="qcurve" smooth="yes"/>
      <point x="532" y="246" type="line" smooth="yes"/>
      <point x="532" y="111"/>
      <point x="401" y="-11"/>
    </contour>
    <contour>
      <point x="139" y="707" type="qcurve" smooth="yes"/>
      <point x="125" y="739"/>
      <point x="165" y="757" type="qcurve" smooth="yes"/>
      <point x="266" y="802" type="line" smooth="yes"/>
      <point x="296" y="816"/>
      <point x="326" y="802" type="qcurve" smooth="yes"/>
      <point x="427" y="757" type="line" smooth="yes"/>
      <point x="467" y="738"/>
      <point x="454" y="707" type="qcurve" smooth="yes"/>
      <point x="438" y="675"/>
      <point x="398" y="693" type="qcurve" smooth="yes"/>
      <point x="296" y="739" type="line"/>
      <point x="194" y="693" type="line" smooth="yes"/>
      <point x="153" y="674"/>
    </contour>
  </outline>
</glyph>
<glyph name="Yacute" format="1">
  <advance width="600"/>
  <unicode hex="00DD"/>
  <outline>
    <contour>
      <point x="338" y="956" type="move" name="Anchor-7"/>
    </contour>
    <contour>
      <point x="277" y="0" type="move" name="Anchor-6"/>
    </contour>
    <contour>
      <point x="66" y="580" type="line" smooth="yes"/>
      <point x="39" y="628"/>
      <point x="89" y="648" type="qcurve" smooth="yes"/>
      <point x="108" y="654"/>
      <point x="135" y="639"/>
      <point x="150" y="611" type="qcurve" smooth="yes"/>
      <point x="300" y="337" type="line"/>
      <point x="450" y="611" type="line" smooth="yes"/>
      <point x="465" y="639"/>
      <point x="492" y="654"/>
      <point x="511" y="648" type="qcurve" smooth="yes"/>
      <point x="561" y="628"/>
      <point x="534" y="580" type="qcurve" smooth="yes"/>
      <point x="346" y="250" type="line"/>
      <point x="343" y="242" type="line"/>
      <point x="343" y="52" type="line" smooth="yes"/>
      <point x="343" y="0"/>
      <point x="299" y="0" type="qcurve" smooth="yes"/>
      <point x="256" y="0"/>
      <point x="256" y="52" type="qcurve" smooth="yes"/>
      <point x="256" y="244" type="line"/>
      <point x="254" y="250" type="line"/>
    </contour>
    <contour>
      <point x="225" y="698" type="qcurve" smooth="yes"/>
      <point x="213" y="729"/>
      <point x="244" y="744" type="qcurve" smooth="yes"/>
      <point x="387" y="805" type="line" smooth="yes"/>
      <point x="402" y="811"/>
      <point x="428" y="801"/>
      <point x="438" y="775"/>
      <point x="428" y="749"/>
      <point x="415" y="743" type="qcurve" smooth="yes"/>
      <point x="271" y="682" type="line" smooth="yes"/>
      <point x="257" y="676"/>
      <point x="230" y="685"/>
    </contour>
  </outline>
</glyph>
<glyph name="Thorn" format="1">
  <advance width="600"/>
  <unicode hex="00DE"/>
  <outline>
    <contour>
      <point x="60" y="542" type="line" smooth="yes"/>
      <point x="60" y="593"/>
      <point x="100" y="593" type="qcurve" smooth="yes"/>
      <point x="141" y="593"/>
      <point x="141" y="542" type="qcurve" smooth="yes"/>
      <point x="141" y="463" type="line"/>
      <point x="209" y="499"/>
      <point x="301" y="499" type="qcurve" smooth="yes"/>
      <point x="399" y="499"/>
      <point x="545" y="362"/>
      <point x="545" y="142"/>
      <point x="399" y="5"/>
      <point x="301" y="5" type="qcurve" smooth="yes"/>
      <point x="209" y="5"/>
      <point x="141" y="41" type="qcurve"/>
      <point x="141" y="-69" type="line" smooth="yes"/>
      <point x="141" y="-102"/>
      <point x="121" y="-120"/>
      <point x="100" y="-120" type="qcurve" smooth="yes"/>
      <point x="60" y="-120"/>
      <point x="60" y="-69" type="qcurve" smooth="yes"/>
    </contour>
    <contour>
      <point x="141" y="148" type="line"/>
      <point x="199" y="92"/>
      <point x="295" y="92" type="qcurve" smooth="yes"/>
      <point x="355" y="92"/>
      <point x="447" y="170"/>
      <point x="447" y="334"/>
      <point x="355" y="412"/>
      <point x="295" y="412" type="qcurve" smooth="yes"/>
      <point x="199" y="412"/>
      <point x="141" y="356" type="qcurve"/>
    </contour>
  </outline>
</glyph>
<glyph name="germandbls" format="1">
  <advance width="600"/>
  <unicode hex="00DF"/>
  <outline>
    <contour>
      <point x="217" y="44" type="qcurve" smooth="yes"/>
      <point x="217" y="90"/>
      <point x="280" y="90" type="qcurve" smooth="yes"/>
      <point x="330" y="90"/>
      <point x="407" y="136"/>
      <point x="407" y="187" type="qcurve" smooth="yes"/>
      <point x="407" y="280"/>
      <point x="274" y="298" type="qcurve" smooth="yes"/>
      <point x="232" y="304"/>
      <point x="232" y="341" type="qcurve" smooth="yes"/>
      <point x="232" y="379"/>
      <point x="274" y="384" type="qcurve" smooth="yes"/>
      <point x="329" y="391"/>
      <point x="387" y="458"/>
      <point x="387" y="501" type="qcurve" smooth="yes"/>
      <point x="387" y="574"/>
      <point x="299" y="574" type="qcurve" smooth="yes"/>
      <point x="240" y="574"/>
      <point x="179" y="516"/>
      <point x="179" y="446" type="qcurve" smooth="yes"/>
      <point x="179" y="45" type="line" smooth="yes"/>
      <point x="179" y="0"/>
      <point x="136" y="0" type="qcurve" smooth="yes"/>
      <point x="92" y="0"/>
      <point x="92" y="45" type="qcurve" smooth="yes"/>
      <point x="92" y="436" type="line" smooth="yes"/>
      <point x="92" y="554"/>
      <point x="202" y="659"/>
      <point x="292" y="659" type="qcurve" smooth="yes"/>
      <point x="378" y="659"/>
      <point x="477" y="573"/>
      <point x="477" y="501" type="qcurve" smooth="yes"/>
      <point x="477" y="385"/>
      <point x="370" y="347" type="qcurve"/>
      <point x="434" y="330"/>
      <point x="497" y="240"/>
      <point x="497" y="177" type="qcurve" smooth="yes"/>
      <point x="497" y="92"/>
      <point x="370" y="-1"/>
      <point x="273" y="-1" type="qcurve" smooth="yes"/>
      <point x="217" y="-1"/>
    </contour>
  </outline>
</glyph>
<glyph name="agrave" format="1">
  <advance width="600"/>
  <unicode hex="00E0"/>
  <outline>
    <contour>
      <point x="263" y="701" type="move" name="Anchor-7"/>
    </contour>
    <contour>
      <point x="259" y="-10" type="move" name="Anchor-6"/>
    </contour>
    <contour>
      <point x="259" y="-10" type="qcurve" smooth="yes"/>
      <point x="187" y="-10"/>
      <point x="85" y="74"/>
      <point x="85" y="152" type="qcurve" smooth="yes"/>
      <point x="85" y="222"/>
      <point x="189" y="307"/>
      <point x="269" y="307" type="qcurve" smooth="yes"/>
      <point x="338" y="307"/>
      <point x="398" y="277" type="qcurve"/>
      <point x="398" y="281" type="line" smooth="yes"/>
      <point x="398" y="348"/>
      <point x="347" y="404"/>
      <point x="294" y="404" type="qcurve" smooth="yes"/>
      <point x="229" y="404"/>
      <point x="165" y="368" type="qcurve" smooth="yes"/>
      <point x="128" y="346"/>
      <point x="88" y="416"/>
      <point x="132" y="443" type="qcurve" smooth="yes"/>
      <point x="198" y="483"/>
      <point x="296" y="483" type="qcurve" smooth="yes"/>
      <point x="388" y="483"/>
      <point x="481" y="373"/>
      <point x="481" y="281" type="qcurve" smooth="yes"/>
      <point x="481" y="102" type="line" smooth="yes"/>
      <point x="481" y="80"/>
      <point x="492" y="48"/>
      <point x="510" y="21"/>
      <point x="511" y="18" type="qcurve" smooth="yes"/>
      <point x="516" y="5"/>
      <point x="499" y="-11"/>
      <point x="480" y="-11" type="qcurve" smooth="yes"/>
      <point x="451" y="-11"/>
      <point x="399" y="27"/>
      <point x="398" y="58" type="qcurve"/>
      <point x="337" y="-10"/>
    </contour>
    <contour>
      <point x="271" y="68" type="qcurve" smooth="yes"/>
      <point x="345" y="68"/>
      <point x="401" y="140" type="qcurve"/>
      <point x="401" y="209" type="line"/>
      <point x="349" y="244"/>
      <point x="274" y="244" type="qcurve" smooth="yes"/>
      <point x="226" y="244"/>
      <point x="165" y="191"/>
      <point x="165" y="152" type="qcurve" smooth="yes"/>
      <point x="165" y="106"/>
      <point x="228" y="68"/>
    </contour>
    <contour>
      <point x="341" y="527" type="qcurve" smooth="yes"/>
      <point x="333" y="516"/>
      <point x="306" y="512"/>
      <point x="293" y="521" type="qcurve" smooth="yes"/>
      <point x="165" y="611" type="line" smooth="yes"/>
      <point x="153" y="619"/>
      <point x="149" y="648"/>
      <point x="157" y="659" type="qcurve" smooth="yes"/>
      <point x="165" y="671"/>
      <point x="191" y="675"/>
      <point x="205" y="666" type="qcurve" smooth="yes"/>
      <point x="332" y="576" type="line" smooth="yes"/>
      <point x="345" y="567"/>
      <point x="349" y="539"/>
    </contour>
  </outline>
</glyph>
<glyph name="acircumflex" format="1">
  <advance width="600"/>
  <unicode hex="00E2"/>
  <outline>
    <contour>
      <point x="300" y="654" type="move" name="Anchor-7"/>
    </contour>
    <contour>
      <point x="259" y="-10" type="move" name="Anchor-6"/>
    </contour>
    <contour>
      <point x="259" y="-10" type="qcurve" smooth="yes"/>
      <point x="187" y="-10"/>
      <point x="85" y="74"/>
      <point x="85" y="152" type="qcurve" smooth="yes"/>
      <point x="85" y="222"/>
      <point x="189" y="307"/>
      <point x="269" y="307" type="qcurve" smooth="yes"/>
      <point x="338" y="307"/>
      <point x="398" y="277" type="qcurve"/>
      <point x="398" y="281" type="line" smooth="yes"/>
      <point x="398" y="348"/>
      <point x="347" y="404"/>
      <point x="294" y="404" type="qcurve" smooth="yes"/>
      <point x="229" y="404"/>
      <point x="165" y="368" type="qcurve" smooth="yes"/>
      <point x="128" y="346"/>
      <point x="88" y="416"/>
      <point x="132" y="443" type="qcurve" smooth="yes"/>
      <point x="198" y="483"/>
      <point x="296" y="483" type="qcurve" smooth="yes"/>
      <point x="388" y="483"/>
      <point x="481" y="373"/>
      <point x="481" y="281" type="qcurve" smooth="yes"/>
      <point x="481" y="102" type="line" smooth="yes"/>
      <point x="481" y="80"/>
      <point x="492" y="48"/>
      <point x="510" y="21"/>
      <point x="511" y="18" type="qcurve" smooth="yes"/>
      <point x="516" y="5"/>
      <point x="499" y="-11"/>
      <point x="480" y="-11" type="qcurve" smooth="yes"/>
      <point x="451" y="-11"/>
      <point x="399" y="27"/>
      <point x="398" y="58" type="qcurve"/>
      <point x="337" y="-10"/>
    </contour>
    <contour>
      <point x="271" y="68" type="qcurve" smooth="yes"/>
      <point x="345" y="68"/>
      <point x="401" y="140" type="qcurve"/>
      <point x="401" y="209" type="line"/>
      <point x="349" y="244"/>
      <point x="274" y="244" type="qcurve" smooth="yes"/>
      <point x="226" y="244"/>
      <point x="165" y="191"/>
      <point x="165" y="152" type="qcurve" smooth="yes"/>
      <point x="165" y="106"/>
      <point x="228" y="68"/>
    </contour>
    <contour>
      <point x="457" y="508" type="qcurve" smooth="yes"/>
      <point x="449" y="497"/>
      <point x="422" y="493"/>
      <point x="409" y="502" type="qcurve" smooth="yes"/>
      <point x="300" y="579" type="line"/>
      <point x="191" y="502" type="line" smooth="yes"/>
      <point x="178" y="493"/>
      <point x="151" y="497"/>
      <point x="143" y="508" type="qcurve" smooth="yes"/>
      <point x="135" y="520"/>
      <point x="139" y="548"/>
      <point x="152" y="557" type="qcurve" smooth="yes"/>
      <point x="280" y="648" type="line" smooth="yes"/>
      <point x="289" y="654"/>
      <point x="311" y="654"/>
      <point x="320" y="648" type="qcurve" smooth="yes"/>
      <point x="448" y="557" type="line" smooth="yes"/>
      <point x="461" y="548"/>
      <point x="465" y="520"/>
    </contour>
  </outline>
</glyph>
<glyph name="aring" format="1">
  <advance width="600"/>
  <unicode hex="00E5"/>
  <outline>
    <contour>
      <point x="259" y="-10" type="move" name="Anchor6"/>
    </contour>
    <contour>
      <point x="296" y="483" type="move" name="Anchor7"/>
    </contour>
    <contour>
      <point x="296" y="483" type="move" name="Anchor-7"/>
    </contour>
    <contour>
      <point x="259" y="-10" type="move" name="Anchor-6"/>
    </contour>
    <contour>
      <point x="259" y="-10" type="qcurve" smooth="yes"/>
      <point x="187" y="-10"/>
      <point x="85" y="74"/>
      <point x="85" y="152" type="qcurve" smooth="yes"/>
      <point x="85" y="222"/>
      <point x="189" y="307"/>
      <point x="269" y="307" type="qcurve" smooth="yes"/>
      <point x="338" y="307"/>
      <point x="398" y="277" type="qcurve"/>
      <point x="398" y="281" type="line" smooth="yes"/>
      <point x="398" y="348"/>
      <point x="347" y="404"/>
      <point x="294" y="404" type="qcurve" smooth="yes"/>
      <point x="229" y="404"/>
      <point x="165" y="368" type="qcurve" smooth="yes"/>
      <point x="128" y="346"/>
      <point x="88" y="416"/>
      <point x="132" y="443" type="qcurve" smooth="yes"/>
      <point x="198" y="483"/>
      <point x="296" y="483" type="qcurve" smooth="yes"/>
      <point x="388" y="483"/>
      <point x="481" y="373"/>
      <point x="481" y="281" type="qcurve" smooth="yes"/>
      <point x="481" y="102" type="line" smooth="yes"/>
      <point x="481" y="80"/>
      <point x="492" y="48"/>
      <point x="510" y="21"/>
      <point x="511" y="18" type="qcurve" smooth="yes"/>
      <point x="516" y="5"/>
      <point x="499" y="-11"/>
      <point x="480" y="-11" type="qcurve" smooth="yes"/>
      <point x="451" y="-11"/>
      <point x="399" y="27"/>
      <point x="398" y="58" type="qcurve"/>
      <point x="337" y="-10"/>
    </contour>
    <contour>
      <point x="271" y="68" type="qcurve" smooth="yes"/>
      <point x="345" y="68"/>
      <point x="401" y="140" type="qcurve"/>
      <point x="401" y="209" type="line"/>
      <point x="349" y="244"/>
      <point x="274" y="244" type="qcurve" smooth="yes"/>
      <point x="226" y="244"/>
      <point x="165" y="191"/>
      <point x="165" y="152" type="qcurve" smooth="yes"/>
      <point x="165" y="106"/>
      <point x="228" y="68"/>
    </contour>
    <contour>
      <point x="194" y="579"/>
      <point x="194" y="618" type="qcurve" smooth="yes"/>
      <point x="194" y="660"/>
      <point x="252" y="720"/>
      <point x="334" y="720"/>
      <point x="392" y="660"/>
      <point x="392" y="618" type="qcurve" smooth="yes"/>
      <point x="392" y="579"/>
      <point x="333" y="520"/>
      <point x="253" y="520"/>
    </contour>
    <contour>
      <point x="333" y="603"/>
      <point x="333" y="619" type="qcurve" smooth="yes"/>
      <point x="333" y="636"/>
      <point x="309" y="661"/>
      <point x="277" y="661"/>
      <point x="253" y="636"/>
      <point x="253" y="619" type="qcurve" smooth="yes"/>
      <point x="253" y="603"/>
      <point x="277" y="579"/>
      <point x="309" y="579"/>
    </contour>
  </outline>
</glyph>
